<svg xmlns="http://www.w3.org/2000/svg" version="1.1" xmlns:xlink="http://www.w3.org/1999/xlink" width="512" height="512" x="0" y="0" viewBox="0 0 97 97" style="enable-background:new 0 0 512 512" xml:space="preserve" class=""><g><g fill="#000"><path d="M66.145 13.156a8.694 8.694 0 1 1 15.43 8.015l-8.928 17.143a8.645 8.645 0 0 1-1.312 1.868c2.44 3.612 3.196 8.258 1.65 12.655a358.309 358.309 0 0 1-1.11 3.115.798.798 0 0 1-1.122.435l-28.81-15.056a.806.806 0 0 1-.222-1.254c.717-.795 1.415-1.592 2.085-2.376 3.152-3.689 7.822-5.775 12.538-5.62.054-.11.11-.22.17-.329zM37.719 44.991a.807.807 0 0 0-.923.126c-1.773 1.648-3.543 3.087-5.193 4.11-5.574 3.458-10.182 4.705-13.044 5.147a4.922 4.922 0 0 0-3.694 2.733c-.69 1.46-.639 3.372.705 4.853 1.48 1.63 3.672 3.789 6.834 6.386a.8.8 0 0 0 .665.165c2.212-.445 4.515-.865 6.525-1.915.584-.306 1.46-.85 2.558-1.793 1.094-.938 2.758-.837 3.718.225a2.52 2.52 0 0 1-.243 3.621c-1.388 1.19-2.596 1.965-3.553 2.466-.783.409-1.603.749-2.44 1.04-.636.22-.785 1.076-.233 1.461 1.593 1.11 3.33 2.269 5.223 3.473a83.238 83.238 0 0 0 2.86 1.738c.266.155.6.141.85-.039a34.027 34.027 0 0 0 3.464-2.826c2.146-2.013 3.997-4.23 5.494-6.782.73-1.24 2.332-1.678 3.58-.975s1.67 2.278.94 3.52c-1.752 2.986-3.92 5.6-6.435 7.959-.435.408-.908.83-1.417 1.26-.45.38-.37 1.105.164 1.354a75.51 75.51 0 0 0 7.707 3.113c2.674.904 5.533-.13 7.067-2.428 1.94-2.905 5.348-8.385 8.273-15.053.76-1.73 1.532-3.616 2.289-5.55a.798.798 0 0 0-.374-.997zM22.974 37.907a3.767 3.767 0 1 0 0-7.533 3.767 3.767 0 0 0 0 7.533zM12.72 49.485a3.767 3.767 0 1 0 0-7.533 3.767 3.767 0 0 0 0 7.533z" fill="#cc841d" opacity="1" data-original="#000000"></path></g></g></svg>