<svg width="30" height="30" viewBox="0 0 30 30" fill="none" xmlns="http://www.w3.org/2000/svg">
<g clip-path="url(#clip0_1706_4071)">
<path d="M8 26H1.5C1.225 26 0.975 26.11 0.795 26.295C0.61 26.475 0.5 26.725 0.5 27C0.5 27.55 0.95 28 1.5 28H8V26Z" fill="#FC0852"/>
<path d="M8 28H28.5C28.775 28 29.025 27.89 29.205 27.705C29.39 27.525 29.5 27.275 29.5 27C29.5 26.45 29.05 26 28.5 26H8V28Z" fill="#C9E1EA"/>
<path d="M15 21.5C20.799 21.5 25.5 16.799 25.5 11C25.5 5.20101 20.799 0.5 15 0.5C9.20101 0.5 4.5 5.20101 4.5 11C4.5 16.799 9.20101 21.5 15 21.5Z" fill="#29B6BA"/>
<path d="M20.45 12.0586L13.0285 17.2646C12.174 17.8641 11 17.2516 11 16.2061V5.79407C11 4.74907 12.174 4.13657 13.0285 4.73557L20.45 9.94157C21.183 10.4561 21.183 11.5441 20.45 12.0581V12.0586Z" fill="white"/>
<path d="M8 29.5C9.38071 29.5 10.5 28.3807 10.5 27C10.5 25.6193 9.38071 24.5 8 24.5C6.61929 24.5 5.5 25.6193 5.5 27C5.5 28.3807 6.61929 29.5 8 29.5Z" fill="#29B6BA"/>
<path d="M15.0005 22.0001C21.066 22.0001 26.0005 17.0656 26.0005 11.0001C26.0005 4.93456 21.066 5.71877e-05 15.0005 5.71877e-05C12.5274 -0.00795867 10.1254 0.826915 8.19048 2.36706C8.13891 2.40771 8.09588 2.45813 8.06384 2.51544C8.0318 2.57275 8.01139 2.63582 8.00377 2.70104C7.99616 2.76625 8.00148 2.83233 8.01945 2.89548C8.03742 2.95863 8.06767 3.01762 8.10848 3.06906C8.149 3.12079 8.19938 3.16398 8.25669 3.19613C8.314 3.22828 8.37711 3.24876 8.44238 3.25638C8.50766 3.26401 8.57379 3.25863 8.63697 3.24055C8.70015 3.22247 8.75912 3.19205 8.81048 3.15106C10.5694 1.75145 12.7526 0.992622 15.0005 0.999557C20.5145 0.999557 25.0005 5.48556 25.0005 10.9996C25.0005 16.5136 20.5145 20.9996 15.0005 20.9996C9.48648 20.9996 5.00048 16.5136 5.00048 10.9996C5.00048 8.63306 5.84598 6.33506 7.38148 4.53006C7.46279 4.42854 7.50134 4.29933 7.48895 4.16985C7.47655 4.04038 7.4142 3.92083 7.31511 3.83657C7.21602 3.75232 7.088 3.70999 6.95822 3.71858C6.82843 3.72716 6.7071 3.78598 6.61998 3.88256C4.93065 5.86927 4.00241 8.39172 4.00098 10.9996C4.00098 17.0651 8.93548 21.9996 15.001 21.9996L15.0005 22.0001Z" fill="#161616"/>
<path d="M12.2895 17.9991C12.6568 17.9989 13.0151 17.8854 13.3155 17.6741L20.7375 12.4681C20.9729 12.3025 21.1651 12.0828 21.2977 11.8274C21.4304 11.572 21.4996 11.2884 21.4996 11.0006C21.4996 10.7128 21.4304 10.4292 21.2977 10.1738C21.1651 9.91838 20.9729 9.69862 20.7375 9.53308L13.3155 4.32708C13.0481 4.1387 12.7339 4.02757 12.4075 4.00588C12.0811 3.98418 11.755 4.05275 11.465 4.20408C11.1736 4.35502 10.9295 4.58329 10.7592 4.86385C10.589 5.14441 10.4993 5.46642 10.5 5.79458V16.2066C10.5 16.8781 10.8695 17.4876 11.465 17.7971C11.7196 17.9298 12.0024 17.9991 12.2895 17.9991ZM11.5 5.79458C11.5 5.49308 11.659 5.23008 11.9265 5.09158C12.043 5.03108 12.167 5.00058 12.291 5.00058C12.448 5.00058 12.6045 5.04958 12.7415 5.14558L20.1635 10.3516C20.3775 10.5021 20.5005 10.7381 20.5005 11.0006C20.5005 11.2631 20.3775 11.4991 20.1635 11.6496L12.7415 16.8556C12.6242 16.9397 12.4857 16.9893 12.3417 16.9988C12.1977 17.0084 12.0539 16.9775 11.9265 16.9096C11.797 16.8437 11.6885 16.743 11.6131 16.6188C11.5378 16.4946 11.4986 16.3518 11.5 16.2066V5.79458ZM28.5 25.5006H10.594C10.0745 24.6056 9.10752 24.0006 8.00002 24.0006C6.89252 24.0006 5.92552 24.6056 5.40602 25.5006H1.50002C1.30412 25.4989 1.10989 25.5367 0.928894 25.6117C0.747903 25.6867 0.583855 25.7974 0.446522 25.9371C0.304264 26.0751 0.191378 26.2405 0.114648 26.4232C0.0379182 26.606 -0.00107129 26.8024 2.23869e-05 27.0006C2.23869e-05 27.8276 0.673022 28.5006 1.50002 28.5006H5.40602C5.92552 29.3956 6.89252 30.0006 8.00002 30.0006C9.10752 30.0006 10.0745 29.3956 10.594 28.5006H28.5C28.6959 28.5022 28.8902 28.4644 29.0712 28.3894C29.2521 28.3144 29.4162 28.2038 29.5535 28.0641C29.6958 27.9261 29.8087 27.7607 29.8854 27.5779C29.9621 27.3952 30.0011 27.1988 30 27.0006C30 26.1736 29.327 25.5006 28.5 25.5006ZM1.50002 27.5006C1.36741 27.5006 1.24024 27.4479 1.14647 27.3541C1.0527 27.2604 1.00002 27.1332 1.00002 27.0006C1.00002 26.8671 1.05152 26.7436 1.15352 26.6441C1.19866 26.5981 1.25261 26.5617 1.31214 26.537C1.37168 26.5123 1.43558 26.5 1.50002 26.5006H5.04502C5.01752 26.6636 5.00002 26.8301 5.00002 27.0006C5.00002 27.1711 5.01752 27.3376 5.04502 27.5006H1.50002ZM8.00002 29.0006C6.89702 29.0006 6.00002 28.1036 6.00002 27.0006C6.00002 25.8976 6.89702 25.0006 8.00002 25.0006C9.10302 25.0006 10 25.8976 10 27.0006C10 28.1036 9.10302 29.0006 8.00002 29.0006ZM28.8465 27.3571C28.8014 27.4031 28.7474 27.4395 28.6879 27.4641C28.6284 27.4888 28.5645 27.5012 28.5 27.5006H10.955C10.9825 27.3376 11 27.1711 11 27.0006C11 26.8301 10.9825 26.6636 10.955 26.5006H28.5C28.6326 26.5006 28.7598 26.5533 28.8536 26.647C28.9473 26.7408 29 26.868 29 27.0006C29.0002 27.0673 28.9866 27.1334 28.9602 27.1947C28.9338 27.256 28.8951 27.3113 28.8465 27.3571Z" fill="#161616"/>
</g>
<defs>
<clipPath id="clip0_1706_4071">
<rect width="30" height="30" fill="white"/>
</clipPath>
</defs>
</svg>
