<svg xmlns="http://www.w3.org/2000/svg" version="1.1" xmlns:xlink="http://www.w3.org/1999/xlink" width="512" height="512" x="0" y="0" viewBox="0 0 512 512" style="enable-background:new 0 0 512 512" xml:space="preserve" class=""><g><path d="M256 0C114.62 0 0 114.62 0 256s114.62 256 256 256 256-114.62 256-256S397.38 0 256 0zm93.6 378.69a12.29 12.29 0 0 1-20.19 9.41L256 314.91l-73.41 73.19a12.29 12.29 0 0 1-20.19-9.41V149.43A28.43 28.43 0 0 1 190.83 121h130.34a28.43 28.43 0 0 1 28.43 28.43z" data-name="Layer 2" fill="#ffffff" opacity="1" data-original="#000000" class=""></path></g></svg>