<svg width="260" height="260" viewBox="0 0 260 260" fill="none" xmlns="http://www.w3.org/2000/svg">
<g filter="url(#filter0_d_2221_4544)">
<rect x="18" y="18" width="220" height="220" rx="38" fill="white"/>
</g>
<path d="M180.736 163.875C176.08 174.799 156.833 183.199 133.107 184.262H122.875C99.1592 183.194 79.9199 174.796 75.2639 163.875H64.5859C68.791 180.331 92.9374 193.185 122.875 194.512H133.125C163.063 193.185 187.209 180.331 191.414 163.875H180.736Z" fill="#4D6939"/>
<path d="M75.2818 153.586C79.1076 144.679 92.6376 137.443 110.388 134.529H145.622C163.388 137.461 176.944 144.7 180.736 153.625H191.414C188.114 140.71 172.536 130.017 151.516 125.368H104.484C83.4639 130.017 67.8839 140.712 64.5859 153.625L75.2818 153.586Z" fill="#4D6939"/>
<path d="M128 189.5C157.212 189.5 181.428 178.417 186.107 163.875H180.726C176.07 174.799 156.823 183.199 133.097 184.262H122.875C99.1589 183.194 79.9196 174.796 75.2636 163.875H69.8823C74.5717 178.417 98.7873 189.5 128 189.5Z" fill="#668951"/>
<path d="M110.383 134.529H145.617C163.388 137.461 176.944 144.7 180.736 153.625H186.117C181.428 139.083 157.212 128 128 128C98.7875 128 74.5923 139.073 69.9004 153.605L75.2816 153.587C79.1075 144.679 92.6375 137.456 110.383 134.529Z" fill="#668951"/>
<path d="M166.438 89.5625C166.438 79.3682 162.388 69.5915 155.179 62.3831C147.971 55.1747 138.194 51.125 128 51.125C117.806 51.125 108.029 55.1747 100.821 62.3831C93.6122 69.5915 89.5625 79.3682 89.5625 89.5625C89.5625 110.79 128 158.75 128 158.75C128 158.75 166.438 110.79 166.438 89.5625Z" fill="#C1272D"/>
<path d="M133.125 51.5068C123.906 52.7427 115.449 57.281 109.323 64.2795C103.197 71.278 99.8175 80.2615 99.8125 89.5625C99.8125 105.937 122.665 138.191 133.125 152.088C143.585 138.191 166.438 105.937 166.438 89.5625C166.432 80.2615 163.053 71.278 156.927 64.2795C150.801 57.281 142.344 52.7427 133.125 51.5068Z" fill="#D4483E"/>
<path d="M122.875 174.125H133.125V204.875H122.875V174.125Z" fill="#C1272D"/>
<path d="M87 153.625V163.875H51.125V153.625H87Z" fill="#C1272D"/>
<path d="M128 110.062C139.322 110.062 148.5 100.884 148.5 89.5625C148.5 78.2407 139.322 69.0625 128 69.0625C116.678 69.0625 107.5 78.2407 107.5 89.5625C107.5 100.884 116.678 110.062 128 110.062Z" fill="#F9CB5D"/>
<path d="M156.188 87H150.911C150.324 81.8056 147.991 76.9644 144.295 73.268C140.598 69.5716 135.757 67.2388 130.562 66.6512V61.375H125.438V66.6512C120.243 67.2388 115.402 69.5716 111.705 73.268C108.009 76.9644 105.676 81.8056 105.089 87H99.8125V92.125H105.089C105.676 97.3194 108.009 102.161 111.705 105.857C115.402 109.553 120.243 111.886 125.438 112.474V117.75H130.562V112.474C135.757 111.886 140.598 109.553 144.295 105.857C147.991 102.161 150.324 97.3194 150.911 92.125H156.188V87ZM130.562 107.295V102.375H125.438V107.295C121.612 106.739 118.068 104.961 115.335 102.228C112.601 99.4943 110.824 95.9507 110.267 92.125H115.188V87H110.267C110.824 83.1743 112.601 79.6307 115.335 76.8971C118.068 74.1635 121.612 72.3862 125.438 71.83V76.75H130.562V71.83C134.388 72.3862 137.932 74.1635 140.665 76.8971C143.399 79.6307 145.176 83.1743 145.732 87H140.812V92.125H145.732C145.176 95.9507 143.399 99.4943 140.665 102.228C137.932 104.961 134.388 106.739 130.562 107.295Z" fill="white"/>
<path d="M61.375 158.75H87V153.625H56.25C56.25 154.984 56.79 156.288 57.7511 157.249C58.7122 158.21 60.0158 158.75 61.375 158.75Z" fill="#D4483E"/>
<path d="M204.875 153.625V163.875H169V153.625H204.875Z" fill="#C1272D"/>
<path d="M194.625 158.75H169V153.625H199.75C199.75 154.984 199.21 156.288 198.249 157.249C197.288 158.21 195.984 158.75 194.625 158.75Z" fill="#D4483E"/>
<path d="M128 174.125V194.625C128 195.984 128.54 197.288 129.501 198.249C130.462 199.21 131.766 199.75 133.125 199.75V174.125H128Z" fill="#D4483E"/>
<defs>
<filter id="filter0_d_2221_4544" x="0" y="0" width="260" height="260" filterUnits="userSpaceOnUse" color-interpolation-filters="sRGB">
<feFlood flood-opacity="0" result="BackgroundImageFix"/>
<feColorMatrix in="SourceAlpha" type="matrix" values="0 0 0 0 0 0 0 0 0 0 0 0 0 0 0 0 0 0 127 0" result="hardAlpha"/>
<feOffset dx="2" dy="2"/>
<feGaussianBlur stdDeviation="10"/>
<feComposite in2="hardAlpha" operator="out"/>
<feColorMatrix type="matrix" values="0 0 0 0 0 0 0 0 0 0 0 0 0 0 0 0 0 0 0.35 0"/>
<feBlend mode="normal" in2="BackgroundImageFix" result="effect1_dropShadow_2221_4544"/>
<feBlend mode="normal" in="SourceGraphic" in2="effect1_dropShadow_2221_4544" result="shape"/>
</filter>
</defs>
</svg>
