<svg width="260" height="260" viewBox="0 0 260 260" fill="none" xmlns="http://www.w3.org/2000/svg">
<g filter="url(#filter0_d_2229_4545)">
<rect x="18" y="18" width="220" height="220" rx="38" fill="white"/>
</g>
<path fill-rule="evenodd" clip-rule="evenodd" d="M166.745 200.517H137.423L131.397 165.573L136.25 159.223L140.416 161.893L161.124 135.685C162.903 136.21 164.764 136.938 166.705 137.909C174.551 141.873 178.555 147.697 179.445 149.072C181.063 151.539 182.357 154.208 183.449 157.767C187.938 172.165 187.979 195.664 187.938 200.517H166.745Z" fill="#7986CB"/>
<path fill-rule="evenodd" clip-rule="evenodd" d="M161.124 135.685L140.416 161.893L136.25 159.224L127.555 153.683L142.681 140.215L149.476 134.148C151.862 134.067 156.149 134.148 161.124 135.685Z" fill="#E8EAF6"/>
<path fill-rule="evenodd" clip-rule="evenodd" d="M158.899 77.2831C159.182 79.912 158.009 82.4196 156.675 84.6036C156.432 85.008 153.803 89.0929 153.318 89.3356H153.277C152.711 88.7694 151.457 84.8867 146.887 79.1436C145.593 77.5258 144.986 76.8382 144.501 76.3529C144.177 76.0294 143.166 75.0587 141.67 74.0476C141.184 73.724 140.173 72.9556 139.89 73.4409C139.324 74.3711 138.353 75.6654 136.776 76.6765C134.349 78.2134 131.842 78.092 129.658 78.0516C129.658 78.0516 122.337 77.8898 114.41 78.4156C111.539 78.6178 108.465 78.7796 105.836 80.1547C102.479 81.9342 101.306 85.6551 100.7 89.1738C100.7 89.2547 100.619 89.3356 100.578 89.3356C100.457 89.376 100.416 89.2951 100.336 89.2142C99.3245 87.8796 99.1223 85.6956 98.92 84.1182C98.3538 79.0222 98.4347 74.9778 98.8796 73.8049C99.1627 73.1174 100.659 69.72 104.137 66.3631C109.759 60.9436 119.021 58.072 123.753 57.1014C127.555 56.2925 131.599 55.888 135.563 56.1711C137.747 56.3329 140.052 56.616 142.196 57.1418C143.935 57.5867 145.714 58.436 146.766 59.892C147.898 61.4694 148.181 63.4916 149.556 64.9476C151.053 66.5249 153.075 67.4956 154.572 69.0325C156.594 71.0951 158.616 74.3711 158.899 77.2831Z" fill="#795548"/>
<path fill-rule="evenodd" clip-rule="evenodd" d="M158.818 92.976C161.043 98.1933 157.322 106.606 152.307 107.455C151.579 110.852 149.92 116.636 145.876 121.408C143.611 124.078 141.427 125.615 140.861 126.019C140.699 126.14 140.497 126.262 140.295 126.383C138.92 127.273 136.533 128.688 133.217 129.497C132.206 129.74 128.283 130.589 123.348 129.497C122.499 129.295 118.98 128.486 115.138 125.857C114.532 125.453 113.965 125.008 113.359 124.523C112.226 123.592 107.939 119.912 105.593 113.481C104.825 111.419 104.38 108.911 104.218 107.657C97.5045 105.716 93.1365 95.7667 100.457 89.3764C100.538 89.336 100.578 89.2956 100.578 89.2147C101.225 85.7364 102.358 82.0156 105.715 80.1956C108.303 78.8204 111.377 78.6587 114.289 78.4564C122.216 77.8902 129.536 78.0924 129.536 78.0924C131.72 78.1329 134.228 78.2542 136.655 76.7173C138.232 75.7467 139.203 74.412 139.769 73.4818C140.052 72.9964 141.063 73.7649 141.548 74.0884C143.045 75.14 144.056 76.0702 144.38 76.3938C144.865 76.8791 145.472 77.5667 146.766 79.1844C151.296 84.9276 152.59 88.7698 153.156 89.3764H153.196C155.704 89.3764 157.888 90.7515 158.818 92.976Z" fill="#F9C29D"/>
<path fill-rule="evenodd" clip-rule="evenodd" d="M142.681 140.255L127.555 153.723L113.035 140.093C114.168 137.788 115.745 133.824 115.866 130.468C115.907 128.364 115.583 127.353 115.179 125.816C119.061 128.445 122.58 129.254 123.389 129.456C128.323 130.548 132.246 129.699 133.257 129.456C136.574 128.688 138.96 127.272 140.335 126.342C140.012 127.556 139.688 128.567 139.728 130.427C139.85 134.31 141.265 137.788 142.681 140.255Z" fill="#F9C29D"/>
<path fill-rule="evenodd" clip-rule="evenodd" d="M131.397 165.573L137.423 200.517H128.242H127.959H118.778L124.805 165.573H131.397Z" fill="#E8EAF6"/>
<path fill-rule="evenodd" clip-rule="evenodd" d="M127.555 153.723L136.25 159.223L131.397 165.573H124.805L119.951 158.536L127.555 153.723Z" fill="#E8EAF6"/>
<path fill-rule="evenodd" clip-rule="evenodd" d="M127.555 153.723L119.951 158.536L114.693 161.893L94.2285 135.968C99.6076 134.188 104.259 134.107 106.807 134.188L113.076 140.093L127.555 153.723Z" fill="#E8EAF6"/>
<path fill-rule="evenodd" clip-rule="evenodd" d="M91.4379 200.517H68.2632C68.2632 195.664 68.3036 172.206 72.7525 157.767C73.8445 154.208 75.1387 151.539 76.7565 149.072C77.6867 147.697 81.6907 141.873 89.4965 137.909C91.1143 137.1 92.6512 136.453 94.1881 135.968L114.653 161.893L119.911 158.536L124.764 165.573L118.738 200.517H91.4379Z" fill="#7986CB"/>
<path fill-rule="evenodd" clip-rule="evenodd" d="M153.277 91.6812C152.63 91.6812 152.024 91.4386 151.579 90.9532C151.174 90.5488 150.932 90.0635 150.487 89.1332C149.678 87.5155 148.181 84.5226 145.067 80.5995C143.773 78.9817 143.247 78.4155 142.883 78.0515C142.6 77.7683 141.832 77.0403 140.74 76.2719C139.931 77.2426 139.041 78.011 137.989 78.6581C135.037 80.5186 132.085 80.4377 129.739 80.3972H129.577C129.496 80.3972 122.257 80.2355 114.532 80.7612L114.168 80.8017C111.62 80.9635 108.95 81.1657 106.888 82.2577C104.865 83.3497 103.652 85.5337 102.924 89.6186C102.762 90.5084 102.115 91.2363 101.306 91.5599C101.306 91.5599 101.306 91.5599 101.266 91.5599C100.214 91.9239 99.0819 91.5599 98.3943 90.6701C97.0192 88.8501 96.7361 86.3426 96.5338 84.4821V84.4417C96.2912 82.379 95.6441 75.4226 96.6956 72.9555C97.2619 71.6208 98.9605 68.1426 102.479 64.7452C109.476 57.991 121.003 55.3217 123.227 54.8768C127.595 53.987 131.801 53.6635 135.684 53.9061C138.394 54.1083 140.699 54.4319 142.721 54.9577C145.31 55.6048 147.373 56.899 148.586 58.6381C149.233 59.5279 149.637 60.4986 150.001 61.3479C150.365 62.1972 150.689 62.9657 151.174 63.451C151.781 64.0981 152.59 64.6643 153.399 65.271C154.329 65.9181 155.259 66.6057 156.149 67.4955C158.333 69.7199 160.76 73.4003 161.164 77.1617C161.528 80.6399 159.991 83.6732 158.616 85.9381C158.454 86.1808 157.726 87.3537 156.958 88.4457C155.381 90.751 154.895 91.2363 154.208 91.5599C153.965 91.6003 153.601 91.6812 153.277 91.6812ZM102.156 87.7986C102.156 87.839 102.156 87.839 102.156 87.7986V87.7986ZM140.173 70.9737C141.306 70.9737 142.277 71.6612 142.924 72.1061L143.005 72.1466C144.541 73.1981 145.633 74.2092 146.119 74.6946C146.685 75.2203 147.332 75.9483 148.707 77.6875C151.093 80.7208 152.59 83.2283 153.601 85.0483C154.086 84.3203 154.531 83.6328 154.693 83.3901C155.704 81.7319 156.796 79.5883 156.594 77.5257C156.392 75.5035 154.855 72.6723 152.913 70.6501C152.307 70.0435 151.579 69.5177 150.77 68.9515C149.799 68.2639 148.748 67.5359 147.817 66.5248C146.766 65.3923 146.24 64.179 145.755 63.0466C145.472 62.359 145.189 61.7119 144.825 61.2266C144.056 60.175 142.641 59.6492 141.589 59.3661C139.85 58.9212 137.787 58.6381 135.361 58.4763C131.923 58.2337 128.161 58.5168 124.198 59.3661C118.617 60.539 110.406 63.4915 105.715 68.0212C102.762 70.8928 101.347 73.8048 100.983 74.6946C100.821 75.2203 100.619 77.5257 100.942 81.4892C101.832 80.1546 103.045 78.9817 104.663 78.0919C107.616 76.5146 110.892 76.3123 113.804 76.1101L114.168 76.0697C122.135 75.5035 129.334 75.7057 129.617 75.7057H129.779C131.761 75.7461 133.662 75.7866 135.441 74.6946C136.372 74.1283 137.181 73.279 137.787 72.2275C138.151 71.5803 138.758 71.1759 139.486 71.0141C139.769 70.9737 139.971 70.9737 140.173 70.9737Z" fill="#231F20"/>
<path fill-rule="evenodd" clip-rule="evenodd" d="M128.404 132.328C126.786 132.328 124.926 132.167 122.904 131.722C121.164 131.317 117.646 130.306 113.884 127.718C113.197 127.273 112.55 126.787 111.943 126.262C109.759 124.482 105.755 120.519 103.49 114.209C102.843 112.47 102.439 110.569 102.236 109.315C100.619 108.587 99.1627 107.536 97.9089 106.12C96.3316 104.381 95.2395 102.238 94.7542 99.9727C93.7431 95.3621 95.3204 90.8323 99.0413 87.5563C100.012 86.707 101.468 86.8283 102.317 87.799C103.167 88.7696 103.045 90.2256 102.075 91.075C98.7582 93.987 98.8795 97.263 99.284 98.9616C99.9715 101.995 102.236 104.543 104.946 105.352C105.836 105.595 106.483 106.363 106.604 107.293C106.807 108.668 107.211 110.893 107.858 112.672C109.84 118.132 113.44 121.53 114.896 122.703C115.421 123.107 115.947 123.511 116.513 123.916C119.749 126.14 122.782 126.949 123.915 127.192C128.04 128.122 131.478 127.515 132.772 127.192C134.996 126.666 137.059 125.776 139.081 124.401C139.243 124.28 139.364 124.199 139.486 124.118L139.607 124.037C140.335 123.552 142.196 122.136 144.137 119.871C146.928 116.595 148.95 112.106 150.082 106.929C150.284 105.999 151.012 105.271 151.983 105.109C153.318 104.867 154.733 103.613 155.785 101.671C157.241 99.0425 157.605 95.8878 156.715 93.8252C156.149 92.4905 154.814 91.6412 153.318 91.6007H153.277C151.983 91.6007 150.972 90.5492 150.972 89.255C150.972 87.9607 152.024 86.9092 153.318 86.9092H153.439C156.756 86.9496 159.748 88.9314 161.043 91.9647C162.499 95.3621 162.054 99.9323 159.91 103.855C158.495 106.444 156.553 108.304 154.369 109.194C153.035 114.614 150.81 119.184 147.736 122.824C145.512 125.453 143.368 127.071 142.276 127.839L142.155 127.92C141.993 128.001 141.872 128.122 141.67 128.243C139.162 129.902 136.614 131.034 133.864 131.681C132.651 132.005 130.75 132.328 128.404 132.328Z" fill="#231F20"/>
<path fill-rule="evenodd" clip-rule="evenodd" d="M113.036 142.399C112.672 142.399 112.348 142.318 111.984 142.156C110.811 141.59 110.366 140.174 110.932 139.042C112.146 136.615 113.44 133.097 113.521 130.387C113.561 128.85 113.359 128.081 113.036 126.868C112.995 126.706 112.955 126.545 112.914 126.383C112.591 125.129 113.359 123.875 114.572 123.552C115.826 123.228 117.08 123.997 117.404 125.21C117.444 125.372 117.484 125.493 117.525 125.655C117.889 126.989 118.212 128.284 118.132 130.468C118.01 134.714 115.948 139.285 115.058 141.064C114.734 141.954 113.885 142.399 113.036 142.399Z" fill="#231F20"/>
<path fill-rule="evenodd" clip-rule="evenodd" d="M142.681 142.56C141.872 142.56 141.063 142.115 140.659 141.387C139.243 138.879 137.545 134.956 137.464 130.507C137.423 128.404 137.747 127.11 138.111 125.897L138.151 125.735C138.515 124.481 139.769 123.753 141.023 124.117C142.277 124.481 143.005 125.735 142.641 126.989L142.56 127.191C142.236 128.283 142.075 129.011 142.075 130.427C142.155 133.905 143.531 137.1 144.703 139.122C145.351 140.255 144.946 141.67 143.814 142.277C143.45 142.479 143.045 142.56 142.681 142.56Z" fill="#231F20"/>
<path fill-rule="evenodd" clip-rule="evenodd" d="M187.979 202.863H68.2633C66.9691 202.863 65.958 201.812 65.9175 200.558C65.8771 192.065 66.2815 170.791 70.5282 157.121C71.6607 153.521 72.9953 150.569 74.8153 147.819C76.3118 145.554 80.6798 139.811 88.4451 135.847C90.0629 135.038 91.7211 134.31 93.4602 133.744C97.7069 132.328 102.358 131.681 106.847 131.843C107.414 131.883 107.939 132.086 108.344 132.49L114.613 138.395L127.595 150.569L141.104 138.516L147.898 132.45C148.303 132.086 148.829 131.883 149.354 131.843C153.601 131.681 157.767 132.207 161.811 133.42C163.874 134.027 165.856 134.836 167.757 135.807C175.522 139.77 179.89 145.513 181.386 147.778C183.166 150.488 184.541 153.44 185.674 157.08C189.92 170.751 190.325 192.024 190.284 200.518C190.284 201.812 189.233 202.863 187.979 202.863ZM70.5687 198.172H185.593C185.552 189.8 184.946 170.589 181.184 158.455C180.173 155.22 179.041 152.712 177.463 150.367C176.169 148.385 172.367 143.41 165.613 139.972C163.955 139.123 162.216 138.435 160.436 137.869C157.16 136.858 153.763 136.413 150.366 136.454L144.218 141.954L129.092 155.422C128.202 156.231 126.827 156.191 125.937 155.382L111.418 141.752L105.796 136.494C102.115 136.454 98.3944 137.02 94.9162 138.152C93.4198 138.638 91.9638 139.285 90.5482 139.972C83.7535 143.41 79.9922 148.385 78.698 150.367C77.1207 152.753 75.9882 155.22 74.9771 158.455C71.2158 170.589 70.6495 189.8 70.5687 198.172Z" fill="#231F20"/>
<path fill-rule="evenodd" clip-rule="evenodd" d="M91.4381 202.863C90.1438 202.863 89.0923 201.812 89.0923 200.518V172.368C89.0923 171.074 90.1438 170.022 91.4381 170.022C92.7323 170.022 93.7838 171.074 93.7838 172.368V200.518C93.7434 201.812 92.6918 202.863 91.4381 202.863Z" fill="#231F20"/>
<path fill-rule="evenodd" clip-rule="evenodd" d="M166.746 202.863C165.451 202.863 164.4 201.812 164.4 200.518V172.368C164.4 171.074 165.451 170.022 166.746 170.022C168.04 170.022 169.091 171.074 169.091 172.368V200.518C169.091 201.812 168.04 202.863 166.746 202.863Z" fill="#231F20"/>
<path fill-rule="evenodd" clip-rule="evenodd" d="M114.694 164.198C114.006 164.198 113.319 163.875 112.874 163.308L92.4088 137.384C91.5999 136.372 91.8021 134.916 92.8132 134.108C93.8243 133.299 95.2803 133.501 96.0892 134.512L115.26 158.819L126.382 151.782C127.474 151.094 128.89 151.418 129.577 152.51C130.265 153.602 129.941 155.017 128.849 155.745L115.988 163.915C115.543 164.077 115.098 164.198 114.694 164.198Z" fill="#231F20"/>
<path fill-rule="evenodd" clip-rule="evenodd" d="M140.416 164.198C139.971 164.198 139.567 164.076 139.162 163.834L126.261 155.664C125.169 154.976 124.845 153.52 125.533 152.428C126.22 151.336 127.676 151.013 128.728 151.7L139.85 158.738L159.263 134.188C159.304 134.107 159.385 134.067 159.425 133.986C160.355 133.056 161.811 133.056 162.701 133.986C163.55 134.835 163.591 136.21 162.863 137.1L142.196 163.268C141.791 163.915 141.144 164.198 140.416 164.198Z" fill="#231F20"/>
<path fill-rule="evenodd" clip-rule="evenodd" d="M131.397 167.879H124.804C124.036 167.879 123.308 167.515 122.904 166.868L118.05 159.83C117.322 158.779 117.605 157.323 118.657 156.595C119.708 155.867 121.164 156.15 121.892 157.201L126.058 163.228H130.305L134.471 157.808C135.239 156.797 136.736 156.595 137.747 157.363C138.758 158.132 138.96 159.628 138.192 160.639L133.338 166.989C132.812 167.555 132.125 167.879 131.397 167.879Z" fill="#231F20"/>
<path fill-rule="evenodd" clip-rule="evenodd" d="M118.778 202.863C118.657 202.863 118.495 202.863 118.374 202.823C117.12 202.62 116.271 201.407 116.473 200.113L122.499 165.169C122.702 163.915 123.915 163.066 125.209 163.268C126.463 163.47 127.312 164.684 127.11 165.978L121.084 200.922C120.882 202.054 119.87 202.863 118.778 202.863Z" fill="#231F20"/>
<path fill-rule="evenodd" clip-rule="evenodd" d="M137.423 202.863C136.291 202.863 135.32 202.054 135.118 200.922L129.092 165.978C128.89 164.724 129.739 163.511 130.993 163.268C132.246 163.066 133.46 163.915 133.702 165.169L139.729 200.113C139.931 201.367 139.082 202.58 137.828 202.823C137.706 202.823 137.585 202.863 137.423 202.863Z" fill="#231F20"/>
<defs>
<filter id="filter0_d_2229_4545" x="0" y="0" width="260" height="260" filterUnits="userSpaceOnUse" color-interpolation-filters="sRGB">
<feFlood flood-opacity="0" result="BackgroundImageFix"/>
<feColorMatrix in="SourceAlpha" type="matrix" values="0 0 0 0 0 0 0 0 0 0 0 0 0 0 0 0 0 0 127 0" result="hardAlpha"/>
<feOffset dx="2" dy="2"/>
<feGaussianBlur stdDeviation="10"/>
<feComposite in2="hardAlpha" operator="out"/>
<feColorMatrix type="matrix" values="0 0 0 0 0 0 0 0 0 0 0 0 0 0 0 0 0 0 0.35 0"/>
<feBlend mode="normal" in2="BackgroundImageFix" result="effect1_dropShadow_2229_4545"/>
<feBlend mode="normal" in="SourceGraphic" in2="effect1_dropShadow_2229_4545" result="shape"/>
</filter>
</defs>
</svg>
