<svg width="260" height="260" viewBox="0 0 260 260" fill="none" xmlns="http://www.w3.org/2000/svg">
<g filter="url(#filter0_d_2229_4544)">
<rect x="18" y="18" width="220" height="220" rx="38" fill="white"/>
</g>
<g clip-path="url(#clip0_2229_4544)">
<path d="M118.093 205.994C155.7 205.994 186.186 175.508 186.186 137.901C186.186 100.294 155.7 69.8076 118.093 69.8076C80.4864 69.8076 50 100.294 50 137.901C50 175.508 80.4864 205.994 118.093 205.994Z" fill="#FD646F"/>
<path d="M186.186 137.901C186.186 175.507 155.699 205.994 118.093 205.994C97.6871 205.994 79.3744 197.016 66.897 182.792C78.8826 193.312 94.5914 199.689 111.788 199.689C149.394 199.689 179.881 169.202 179.881 131.596C179.881 114.399 173.504 98.6907 162.984 86.7051C177.208 99.1825 186.186 117.495 186.186 137.901Z" fill="#FC4755"/>
<path d="M118.093 189.286C146.472 189.286 169.478 166.28 169.478 137.901C169.478 109.522 146.472 86.5156 118.093 86.5156C89.7139 86.5156 66.708 109.522 66.708 137.901C66.708 166.28 89.7139 189.286 118.093 189.286Z" fill="#F5F5F5"/>
<path d="M169.479 137.901C169.479 166.28 146.472 189.286 118.093 189.286C102.3 189.286 88.1702 182.158 78.7412 170.948C87.6753 178.457 99.2039 182.981 111.788 182.981C140.167 182.981 163.174 159.975 163.174 131.596C163.174 119.011 158.65 107.483 151.141 98.5488C162.351 107.978 169.479 122.107 169.479 137.901Z" fill="#E6E6E6"/>
<path d="M118.093 172.578C137.245 172.578 152.77 157.052 152.77 137.901C152.77 118.749 137.245 103.224 118.093 103.224C98.9415 103.224 83.416 118.749 83.416 137.901C83.416 157.052 98.9415 172.578 118.093 172.578Z" fill="#FD646F"/>
<path d="M152.77 137.901C152.77 157.052 137.244 172.578 118.093 172.578C106.911 172.578 96.9622 167.285 90.6226 159.067C96.4767 163.588 103.819 166.273 111.788 166.273C130.939 166.273 146.465 150.748 146.465 131.596C146.465 123.627 143.779 116.285 139.259 110.431C147.477 116.77 152.77 126.719 152.77 137.901Z" fill="#FC4755"/>
<path d="M118.093 155.555C127.843 155.555 135.747 147.651 135.747 137.901C135.747 128.151 127.843 120.247 118.093 120.247C108.343 120.247 100.439 128.151 100.439 137.901C100.439 147.651 108.343 155.555 118.093 155.555Z" fill="#F5F5F5"/>
<path d="M182.52 159.996C181.177 163.911 179.491 167.663 177.492 171.216L162.291 164.126C164.375 160.626 166.052 156.856 167.259 152.881L182.52 159.996Z" fill="#FC4755"/>
<path d="M167.259 152.882C166.052 156.857 164.375 160.627 162.291 164.126L147.03 157.011C149.281 153.616 150.945 149.805 151.885 145.713L167.259 152.882Z" fill="#E6E6E6"/>
<path d="M151.885 145.713C150.945 149.805 149.281 153.616 147.03 157.011L131.261 149.66C133.991 146.602 135.675 142.589 135.744 138.185L151.885 145.713Z" fill="#FC4755"/>
<path d="M135.744 138.185C135.675 142.589 133.991 146.602 131.261 149.659L116.492 142.771C113.604 141.428 112.255 138.125 113.286 135.18C113.355 134.988 113.431 134.796 113.519 134.603C114.238 133.065 115.508 131.965 116.99 131.426C118.465 130.89 120.152 130.912 121.687 131.631L135.744 138.185Z" fill="#E6E6E6"/>
<path d="M205.472 78.4338C205.977 78.518 206.176 79.1374 205.815 79.5006L199.146 86.2008L195.054 90.3117L183.872 101.541C183.154 102.263 182.131 102.593 181.126 102.428L164.449 99.6808L176.939 87.2916L181.078 83.1871L188.692 75.6338L205.472 78.4338Z" fill="#50758D"/>
<path d="M199.146 86.2013L195.054 90.3121L176.94 87.292L181.079 83.1875L199.146 86.2013Z" fill="#2B597F"/>
<path d="M180.711 68.3543L173.135 75.7657L169.015 79.7977L156.569 91.9757L153.789 75.0854C153.625 74.0836 153.952 73.0638 154.67 72.3456L165.897 61.1068L170.005 56.9928L176.801 50.1914C177.165 49.827 177.789 50.0293 177.87 50.5378L180.711 68.3543Z" fill="#50758D"/>
<path d="M173.135 75.7661L169.015 79.7981L165.897 61.1071L170.005 56.9932L173.135 75.7661Z" fill="#2B597F"/>
<path d="M195.12 67.3364C195.12 68.9063 194.521 70.4825 193.32 71.6805L123.433 141.567C121.182 143.821 117.617 143.96 115.202 141.984C115.045 141.854 114.89 141.716 114.742 141.567C113.541 140.366 112.942 138.796 112.942 137.22C112.942 135.65 113.541 134.074 114.742 132.876L184.629 62.9891C187.028 60.587 190.921 60.587 193.32 62.9891C193.468 63.1373 193.607 63.2918 193.736 63.4494C194.66 64.578 195.12 65.9556 195.12 67.3364Z" fill="#918291"/>
<path d="M195.12 67.3362C195.12 68.9061 194.521 70.4824 193.32 71.6803L123.433 141.567C121.182 143.821 117.617 143.96 115.202 141.983L193.736 63.4492C194.66 64.5778 195.12 65.9554 195.12 67.3362Z" fill="#7A6E79"/>
</g>
<defs>
<filter id="filter0_d_2229_4544" x="0" y="0" width="260" height="260" filterUnits="userSpaceOnUse" color-interpolation-filters="sRGB">
<feFlood flood-opacity="0" result="BackgroundImageFix"/>
<feColorMatrix in="SourceAlpha" type="matrix" values="0 0 0 0 0 0 0 0 0 0 0 0 0 0 0 0 0 0 127 0" result="hardAlpha"/>
<feOffset dx="2" dy="2"/>
<feGaussianBlur stdDeviation="10"/>
<feComposite in2="hardAlpha" operator="out"/>
<feColorMatrix type="matrix" values="0 0 0 0 0 0 0 0 0 0 0 0 0 0 0 0 0 0 0.35 0"/>
<feBlend mode="normal" in2="BackgroundImageFix" result="effect1_dropShadow_2229_4544"/>
<feBlend mode="normal" in="SourceGraphic" in2="effect1_dropShadow_2229_4544" result="shape"/>
</filter>
<clipPath id="clip0_2229_4544">
<rect width="156" height="156" fill="white" transform="translate(50 50)"/>
</clipPath>
</defs>
</svg>
