<svg width="260" height="260" viewBox="0 0 260 260" fill="none" xmlns="http://www.w3.org/2000/svg">
<g filter="url(#filter0_d_2229_4546)">
<rect x="18" y="18" width="220" height="220" rx="38" fill="white"/>
</g>
<path d="M148.945 57.2286V56.1813C148.945 51.3492 145.027 47.4316 140.195 47.4316H104.79C98.5231 47.4316 93.4426 52.5121 93.4426 58.7793V101.919H159.315V67.5993C159.315 62.7672 155.398 58.8497 150.565 58.8497H153.808C152.912 58.8497 148.945 58.1241 148.945 57.2286Z" fill="#918291"/>
<path d="M153.808 58.8497C152.912 58.8497 152.187 58.1241 152.187 57.2286V56.1813C152.187 51.3492 148.269 47.4316 143.437 47.4316H133.71C138.543 47.4316 142.46 51.3492 142.46 56.1813V57.2286C142.46 58.1241 143.186 58.8497 144.081 58.8497C148.913 58.8497 152.831 62.7669 152.831 67.5993V101.919H162.557V67.5993C162.557 62.7669 158.64 58.8497 153.808 58.8497Z" fill="#685E68"/>
<path d="M158.71 92.3164H156.664L153.422 111.474H158.71C164.001 111.474 168.289 107.186 168.289 101.895C168.289 96.6048 164 92.3164 158.71 92.3164Z" fill="#FFB09E"/>
<path d="M97.2897 111.473H102.578L99.3361 92.3154H97.2897C91.9994 92.3154 87.7109 96.6039 87.7109 101.894C87.7113 107.185 91.9997 111.473 97.2897 111.473Z" fill="#FFCEBF"/>
<path d="M94.4596 208.569L92.028 205.326L89.5963 208.569H70.529C67.7125 208.569 65.4848 206.183 65.6771 203.374L68.2495 165.758C68.6405 160.038 72.7405 155.254 78.333 153.992L112.005 146.393H144.139L167.019 151.574L176.703 154.311C182.29 155.577 186.386 160.359 186.777 166.075L187.08 203.374C187.272 206.184 185.045 208.569 182.228 208.569H166.403L163.971 205.327L161.54 208.569H94.4596V208.569Z" fill="#62DBFB"/>
<path d="M190.323 203.373L187.75 165.75C187.359 160.034 183.264 155.252 177.676 153.986L167.02 151.573C171.319 153.725 174.275 158.022 174.614 162.979L177.353 203.037C177.558 206.029 175.186 208.568 172.187 208.568H185.47C188.287 208.568 190.515 206.183 190.323 203.373Z" fill="#01C0FA"/>
<path d="M128.073 161.399C119.199 161.399 112.006 157.536 112.006 148.663V129.471H144.14V148.663C144.139 157.537 136.946 161.399 128.073 161.399Z" fill="#FFB09E"/>
<path d="M143.055 143.858L127.927 161.399L143.129 172.564C144.098 173.276 145.478 172.722 145.685 171.537L149.685 148.639C149.781 148.091 149.589 147.532 149.176 147.158L145.37 143.715C144.695 143.104 143.65 143.169 143.055 143.858Z" fill="#01C0FA"/>
<path d="M113.07 143.857L127.927 161.399L112.875 172.548C111.906 173.266 110.521 172.712 110.313 171.524L106.318 148.61C106.221 148.052 106.422 147.484 106.848 147.111L110.766 143.685C111.447 143.089 112.485 143.167 113.07 143.857Z" fill="#01C0FA"/>
<path d="M140.564 67.5024C139.457 68.3518 138.16 68.6417 136.682 69.6221C129.356 74.4808 117.557 80.3784 102.201 81.6428C101.547 81.6967 100.984 82.1298 100.78 82.7539C99.8438 85.6216 99.3364 88.6868 99.3364 91.8723V111.974C99.3364 126.331 109.622 138.254 123.137 140.594C124.718 140.868 126.343 140.686 128 140.686C143.831 140.686 153.422 128.01 153.422 111.974V91.8723C153.422 81.1413 150.916 72.4204 142.371 67.3944C141.803 67.0604 141.086 67.1013 140.564 67.5024Z" fill="#FFDFCF"/>
<path d="M140.563 66.8541C139.456 67.7032 138.158 68.6412 136.681 69.621C142.949 74.9469 146.937 82.9363 146.937 91.8724V111.974C146.937 126.331 136.65 138.252 123.137 140.592C124.718 140.866 126.342 141.01 128 141.01C143.831 141.01 156.664 128.011 156.664 111.974V91.8724C156.664 81.1415 150.916 71.7719 142.37 66.7458C141.802 66.4119 141.086 66.453 140.563 66.8541Z" fill="#FFCEBF"/>
<path d="M121.562 121.456C125.759 123.178 130.055 123.105 134.438 121.456" stroke="black" stroke-width="4" stroke-miterlimit="10" stroke-linecap="round" stroke-linejoin="round"/>
<path d="M93.4426 79.9736V92.3111" stroke="black" stroke-width="4" stroke-miterlimit="10" stroke-linecap="round" stroke-linejoin="round"/>
<path d="M162.558 92.3113V67.5993C162.558 62.7672 158.64 58.8497 153.808 58.8497C152.913 58.8497 152.187 58.1241 152.187 57.2286V56.1813C152.187 51.3492 148.27 47.4316 143.437 47.4316H104.79C98.5231 47.4316 93.4426 52.5121 93.4426 58.7793V69.3764" stroke="black" stroke-width="4" stroke-miterlimit="10" stroke-linecap="round" stroke-linejoin="round"/>
<path d="M143.055 143.858L127.927 161.399L143.129 172.564C144.098 173.276 145.478 172.722 145.685 171.537L149.685 148.639C149.781 148.091 149.588 147.532 149.176 147.158L145.37 143.715C144.695 143.104 143.65 143.169 143.055 143.858Z" stroke="black" stroke-width="4" stroke-miterlimit="10" stroke-linecap="round" stroke-linejoin="round"/>
<path d="M113.07 143.857L127.927 161.399L112.876 172.548C111.907 173.266 110.521 172.712 110.314 171.524L106.318 148.61C106.221 148.052 106.422 147.484 106.848 147.111L110.767 143.685C111.448 143.089 112.485 143.167 113.07 143.857Z" stroke="black" stroke-width="4" stroke-miterlimit="10" stroke-linecap="round" stroke-linejoin="round"/>
<path d="M92.0281 186.854V208.567" stroke="black" stroke-width="4" stroke-miterlimit="10" stroke-linecap="round" stroke-linejoin="round"/>
<path d="M163.972 186.854V208.567" stroke="black" stroke-width="4" stroke-miterlimit="10" stroke-linecap="round" stroke-linejoin="round"/>
<path d="M140.564 66.8539C133.974 71.9114 120.656 80.1235 102.201 81.6428C101.547 81.6967 100.984 82.1298 100.78 82.7539C99.8443 85.6216 99.3369 88.6868 99.3369 91.8723V111.974C99.3369 128.01 112.17 141.01 128.001 141.01C143.831 141.01 156.664 128.01 156.664 111.974V91.8723C156.664 81.1413 150.917 71.772 142.371 66.746C141.803 66.412 141.087 66.4529 140.564 66.8539Z" stroke="black" stroke-width="4" stroke-miterlimit="10" stroke-linecap="round" stroke-linejoin="round"/>
<path d="M114.438 98.9492V102.69" stroke="black" stroke-width="4" stroke-miterlimit="10" stroke-linecap="round" stroke-linejoin="round"/>
<path d="M141.563 98.9492V102.69" stroke="black" stroke-width="4" stroke-miterlimit="10" stroke-linecap="round" stroke-linejoin="round"/>
<path d="M144.139 136.392V142.6" stroke="black" stroke-width="4" stroke-miterlimit="10" stroke-linecap="round" stroke-linejoin="round"/>
<path d="M112.006 143.284V136.392" stroke="black" stroke-width="4" stroke-miterlimit="10" stroke-linecap="round" stroke-linejoin="round"/>
<path d="M99.0124 92.3164H97.2901C91.9999 92.3164 87.7114 96.6048 87.7114 101.895C87.7114 107.185 91.9999 111.474 97.2901 111.474H99.0124" stroke="black" stroke-width="4" stroke-miterlimit="10" stroke-linecap="round" stroke-linejoin="round"/>
<path d="M156.988 111.473H158.71C164 111.473 168.289 107.185 168.289 101.894C168.289 96.6042 164 92.3154 158.71 92.3154H156.988" stroke="black" stroke-width="4" stroke-miterlimit="10" stroke-linecap="round" stroke-linejoin="round"/>
<path d="M149.855 147.687L154.518 148.742" stroke="black" stroke-width="4" stroke-miterlimit="10" stroke-linecap="round" stroke-linejoin="round"/>
<path d="M67.4812 177L68.2499 165.757C68.6409 160.038 72.741 155.254 78.3335 153.992L106.294 147.682" stroke="black" stroke-width="4" stroke-miterlimit="10" stroke-linecap="round" stroke-linejoin="round"/>
<path d="M165.266 151.176L177.676 153.986C183.264 155.252 187.359 160.034 187.75 165.75L190.323 203.373C190.515 206.183 188.287 208.568 185.471 208.568H70.5295C67.713 208.568 65.4853 206.183 65.6776 203.373L66.7368 187.883" stroke="black" stroke-width="4" stroke-miterlimit="10" stroke-linecap="round" stroke-linejoin="round"/>
<circle cx="128" cy="185.388" r="2.43164" fill="black"/>
<circle cx="128" cy="197.097" r="2.43164" fill="black"/>
<defs>
<filter id="filter0_d_2229_4546" x="0" y="0" width="260" height="260" filterUnits="userSpaceOnUse" color-interpolation-filters="sRGB">
<feFlood flood-opacity="0" result="BackgroundImageFix"/>
<feColorMatrix in="SourceAlpha" type="matrix" values="0 0 0 0 0 0 0 0 0 0 0 0 0 0 0 0 0 0 127 0" result="hardAlpha"/>
<feOffset dx="2" dy="2"/>
<feGaussianBlur stdDeviation="10"/>
<feComposite in2="hardAlpha" operator="out"/>
<feColorMatrix type="matrix" values="0 0 0 0 0 0 0 0 0 0 0 0 0 0 0 0 0 0 0.35 0"/>
<feBlend mode="normal" in2="BackgroundImageFix" result="effect1_dropShadow_2229_4546"/>
<feBlend mode="normal" in="SourceGraphic" in2="effect1_dropShadow_2229_4546" result="shape"/>
</filter>
</defs>
</svg>
