<svg enable-background="new 0 0 512 512" height="512" viewBox="0 0 512 512" width="512" xmlns="http://www.w3.org/2000/svg"><g id="_x30_4_Video_Tutorial"><g><path d="m503.025 48.833v261.312c0 22.003-17.837 39.84-39.84 39.84h-414.332c-22.003 0-39.84-17.837-39.84-39.84v-261.312c0-22.003 17.837-39.84 39.84-39.84h414.332c22.003 0 39.84 17.837 39.84 39.84z" fill="#70efef"/><path d="m502.989 48.868v261.269c0 21.991-17.768 39.84-39.84 39.84h-414.332c-21.832 0-39.521-17.53-39.84-39.282 29.322 7.809 60.079 11.873 91.87 11.873 183.262 0 334.573-136.57 357.76-313.538h4.541c22.073-.002 39.841 17.766 39.841 39.838z" opacity=".12"/><path d="m159.794 464.668c0 21.213-17.218 38.337-38.337 38.337-21.118 0-38.336-17.123-38.336-38.337 0-21.118 17.218-38.336 38.336-38.336 21.119 0 38.337 17.218 38.337 38.336z" fill="#ffd066"/><path d="m358.474 179.489c0 56.599-45.886 102.486-102.426 102.486-56.599 0-102.485-45.886-102.485-102.486s45.887-102.486 102.485-102.486c56.54 0 102.426 45.887 102.426 102.486z" fill="#f5f5f5"/><path d="m308.258 179.489-73.341 46.692v-93.384z" fill="#fb5a67"/><g fill="#1e2e49"><path d="m48.853 357.949h414.332c26.363 0 47.808-21.445 47.808-47.808v-261.307c0-26.363-21.445-47.808-47.808-47.808h-414.332c-26.363 0-47.808 21.445-47.808 47.808v261.308c.001 26.362 21.446 47.807 47.808 47.807zm-31.871-309.115c0-17.578 14.294-31.872 31.872-31.872h414.332c17.578 0 31.872 14.294 31.872 31.872v261.308c0 17.578-14.294 31.872-31.872 31.872h-414.333c-17.578 0-31.872-14.294-31.872-31.872v-261.308z"/><path d="m8.975 472.683h66.922c3.814 21.717 22.771 38.291 45.563 38.291s41.749-16.574 45.563-38.291h335.964c4.404 0 7.968-3.564 7.968-7.968s-3.564-7.968-7.968-7.968h-335.95c-3.776-21.763-22.753-38.385-45.577-38.385s-41.801 16.622-45.577 38.385h-66.908c-4.404 0-7.968 3.564-7.968 7.968s3.564 7.968 7.968 7.968zm112.484-38.385c16.745 0 30.37 13.625 30.37 30.37s-13.625 30.37-30.37 30.37c-16.691 0-30.265-13.54-30.354-30.21 0-.04.023-.073.023-.113 0-.051-.028-.093-.029-.144.055-16.699 13.649-30.273 30.36-30.273z"/><path d="m121.459 479.048c4.404 0 7.968-3.564 7.968-7.968v-12.823c0-4.404-3.564-7.968-7.968-7.968s-7.968 3.564-7.968 7.968v12.823c.001 4.404 3.564 7.968 7.968 7.968z"/><path d="m256.051 289.942c60.872 0 110.392-49.551 110.392-110.454s-49.52-110.454-110.392-110.454c-60.903 0-110.454 49.551-110.454 110.454s49.55 110.454 110.454 110.454zm0-204.972c52.079 0 94.456 42.4 94.456 94.518s-42.376 94.518-94.456 94.518c-52.118 0-94.518-42.4-94.518-94.518s42.399-94.518 94.518-94.518z"/><path d="m231.081 233.17c1.198.654 2.521.98 3.836.98 1.486 0 2.98-.42 4.28-1.245l73.338-46.695c2.295-1.463 3.688-4 3.688-6.723s-1.393-5.26-3.688-6.723l-73.338-46.687c-2.451-1.548-5.564-1.657-8.116-.265-2.544 1.401-4.132 4.077-4.132 6.987v93.382c0 2.912 1.587 5.588 4.132 6.989zm11.804-85.85 50.531 32.167-50.531 32.175z"/></g></g></g></svg>