<svg id="Layer_1" enable-background="new 0 0 512 512" viewBox="0 0 512 512" xmlns="http://www.w3.org/2000/svg"><path clip-rule="evenodd" d="m454.48 0h-302.14v403.68h304.64c2.95 0 5.78.51 8.42 1.47v-394.26c0-6.01-4.91-10.89-10.92-10.89zm-157.41 304.5c-51.99 0-94.39-42.41-94.39-94.39 0-51.99 42.41-94.39 94.39-94.39 51.99 0 94.37 42.41 94.37 94.39s-42.38 94.39-94.37 94.39zm-250.47 119.4v-378c0-25.26 20.67-45.9 45.9-45.9h43.34v403.68h-43.34c-18.12 0-34.47 7.8-45.9 20.22zm418.8 4.73v29.2h-341.27c-4.56 0-8.25 3.71-8.25 8.28 0 4.56 3.69 8.25 8.25 8.25h341.27v29.2c0 4.65-3.8 8.45-8.42 8.45h-364.48c-25.23 0-45.89-20.66-45.89-45.89 0-25.26 20.66-45.89 45.89-45.89h364.48c4.62-.02 8.42 3.78 8.42 8.4zm-121.36-218.52c0 3.66-1.81 6.8-4.99 8.65l-61.57 35.55c-3.17 1.84-6.8 1.84-10.01 0-3.17-1.84-4.99-4.99-4.99-8.65v-71.09c0-3.69 1.81-6.83 4.99-8.67 3.2-1.84 6.83-1.84 10.01 0l61.57 35.55c3.18 1.83 4.99 4.97 4.99 8.66z" fill-rule="evenodd"/></svg>