<svg width="30" height="30" viewBox="0 0 30 30" fill="none" xmlns="http://www.w3.org/2000/svg">
<g clip-path="url(#clip0_1706_4056)">
<path d="M9.0293 7.82422L10.4287 6.6205L12.6782 9.23572L11.2788 10.4394L9.0293 7.82422Z" fill="#FEDF30"/>
<path d="M7.14746 7.52148L10.4128 4.71275L11.3627 5.81705L8.09733 8.62578L7.14746 7.52148Z" fill="#D7AA02"/>
<path d="M24.9688 10.4434L23.5693 9.23964L25.8188 6.62442L27.2183 7.82814L24.9688 10.4434Z" fill="#FEDF30"/>
<path d="M28.1514 8.62891L24.886 5.82017L25.8359 4.71587L29.1012 7.52461L28.1514 8.62891Z" fill="#D7AA02"/>
<path d="M16.8262 3.70312H19.5408V7.58002H16.8262V3.70312Z" fill="#0055A3"/>
<path d="M21.5062 3.94438H14.8599C14.392 3.94438 14.0127 3.56506 14.0127 3.09716V2.06792C14.0127 1.60002 14.392 1.2207 14.8599 1.2207H21.5063C21.9742 1.2207 22.3535 1.60002 22.3535 2.06792V3.09716C22.3534 3.56506 21.9741 3.94438 21.5062 3.94438Z" fill="#0473CE"/>
<path d="M21.5068 1.2207H19.7373C20.2052 1.2207 20.5845 1.60002 20.5845 2.06792V3.09716C20.5845 3.56506 20.2052 3.94438 19.7373 3.94438H21.5068C21.9747 3.94438 22.354 3.56506 22.354 3.09716V2.06792C22.354 1.60002 21.9747 1.2207 21.5068 1.2207Z" fill="#0055A3"/>
<path d="M26.2209 25.446C30.6623 21.0047 30.6623 13.8039 26.2209 9.36255C21.7796 4.92122 14.5788 4.92122 10.1374 9.36255C5.69611 13.8039 5.69611 21.0047 10.1374 25.446C14.5788 29.8874 21.7796 29.8874 26.2209 25.446Z" fill="#26A6FE"/>
<path d="M18.1836 6.0293C17.8858 6.0293 17.5908 6.04086 17.2988 6.06333C23.1673 6.51484 27.7886 11.4196 27.7886 17.4038C27.7886 23.3881 23.1673 28.2928 17.2988 28.7443C17.5908 28.7668 17.8858 28.7783 18.1836 28.7783C24.4655 28.7783 29.5581 23.6858 29.5581 17.4038C29.5581 11.1218 24.4656 6.0293 18.1836 6.0293Z" fill="#0593FC"/>
<path d="M18.1831 26.2627C23.0752 26.2627 27.0411 22.2969 27.0411 17.4048C27.0411 12.5127 23.0752 8.54688 18.1831 8.54688C13.291 8.54688 9.3252 12.5127 9.3252 17.4048C9.3252 22.2969 13.291 26.2627 18.1831 26.2627Z" fill="#FFF3EF"/>
<path d="M19.3277 8.62002C18.6363 8.52989 17.9532 8.5224 17.2881 8.58941C17.378 8.59837 17.468 8.60828 17.5583 8.62002C22.4094 9.25213 25.8295 13.6972 25.1973 18.5483C24.6553 22.7079 21.3098 25.8152 17.3087 26.218C22.0536 26.6914 26.3464 23.3092 26.9668 18.5483C27.599 13.6972 24.1788 9.25219 19.3277 8.62002Z" fill="#D9E7EC"/>
<path d="M26.644 9.16413L27.2575 8.45051L27.8553 8.96454C27.9358 9.03378 28.0383 9.07147 28.1437 9.07147C28.1548 9.07147 28.1659 9.07106 28.177 9.07023C28.2939 9.06138 28.4026 9.00647 28.4791 8.91747L29.4289 7.81273C29.5882 7.62747 29.5671 7.34819 29.3819 7.18894L26.1153 4.38057C26.0263 4.30407 25.9106 4.26561 25.7936 4.27487C25.6766 4.28366 25.5679 4.33863 25.4914 4.42757L24.5416 5.53231C24.3824 5.71757 24.4034 5.99685 24.5887 6.1561L25.1865 6.67013L24.5261 7.43832C23.1733 6.57423 21.6338 5.97768 19.9827 5.72436V4.3877H21.5062C22.2173 4.3877 22.7958 3.80921 22.7958 3.09812V2.06888C22.7958 1.35779 22.2173 0.779297 21.5062 0.779297H14.8599C14.1489 0.779297 13.5704 1.35779 13.5704 2.06888V3.09812C13.5704 3.80921 14.1489 4.3877 14.8599 4.3877H16.3835V5.72436C14.6999 5.9827 13.1325 6.59823 11.7605 7.49004L11.0556 6.67013L11.6535 6.1561C11.7424 6.0796 11.7974 5.9709 11.8062 5.85394C11.815 5.73698 11.777 5.62125 11.7005 5.53225L10.7507 4.42752C10.5914 4.24231 10.3122 4.2212 10.1269 4.38051L6.86032 7.18888C6.77138 7.26538 6.71647 7.37408 6.70762 7.49105C6.69883 7.60801 6.73682 7.72373 6.81332 7.81273L7.7631 8.91747C7.85057 9.01921 7.97432 9.07141 8.09871 9.07141C8.20081 9.07141 8.30344 9.03626 8.3869 8.96448L8.98474 8.45051L9.65637 9.23167C9.07516 9.83782 8.55795 10.5058 8.11529 11.2243C8.10036 11.2228 8.08521 11.222 8.06981 11.222H5.27624C5.03194 11.222 4.83388 11.4201 4.83388 11.6644C4.83388 11.9087 5.03194 12.1067 5.27624 12.1067H7.62249C7.38957 12.5692 7.1862 13.0488 7.01474 13.5433H2.54514C2.30083 13.5433 2.10277 13.7414 2.10277 13.9857C2.10277 14.23 2.30083 14.428 2.54514 14.428H6.74619C6.58647 15.0412 6.47558 15.6738 6.41643 16.3212H0.442366C0.198062 16.3212 0 16.5193 0 16.7636C0 17.0079 0.198062 17.2059 0.442366 17.2059H6.36883C6.36771 17.272 6.36629 17.338 6.36629 17.4045C6.36629 17.9798 6.40846 18.5455 6.48832 19.0991H2.13226C1.88796 19.0991 1.6899 19.2971 1.6899 19.5414C1.6899 19.7857 1.88796 19.9838 2.13226 19.9838H6.65064C6.76035 20.4748 6.90043 20.9544 7.06936 21.4203H4.86337C4.61906 21.4203 4.421 21.6184 4.421 21.8627C4.421 22.107 4.61906 22.305 4.86337 22.305H7.43145C9.29705 26.3818 13.4145 29.2213 18.1832 29.2213C20.6738 29.2213 23.0559 28.4555 25.072 27.0066C25.2704 26.8641 25.3157 26.5876 25.1731 26.3893C25.0304 26.1908 24.7541 26.1457 24.5557 26.2882C22.691 27.6283 20.4874 28.3366 18.1832 28.3366C12.1551 28.3366 7.25102 23.4325 7.25102 17.4045C7.25102 11.3765 12.1551 6.47237 18.1832 6.47237C21.1012 6.47237 23.7559 7.62163 25.7184 9.49125C25.7224 9.49549 25.7269 9.49939 25.7311 9.50351C27.8152 11.4953 29.1153 14.3009 29.1153 17.4045C29.1153 20.3281 27.9757 23.0759 25.9065 25.1414C25.7336 25.3141 25.7334 25.5941 25.906 25.7671C26.0786 25.9399 26.3587 25.9402 26.5316 25.7676C28.7682 23.5348 30 20.5648 30 17.4045C30 14.2024 28.7193 11.2944 26.644 9.16413ZM25.874 5.33979L28.4697 7.57138L28.0967 8.00519L25.501 5.77361L25.874 5.33979ZM25.8575 7.24692L26.5866 7.87372L26.0027 8.55296C25.7626 8.34062 25.5143 8.13737 25.2575 7.94479L25.8575 7.24692ZM16.2268 3.50297V1.66403H16.9412V3.50297H16.2268ZM17.8259 1.66403H18.5403V3.50297H17.8259V1.66403ZM19.425 3.50297V1.66403H20.1395V3.50297H19.425ZM21.9111 2.06888V3.09812C21.9111 3.32137 21.7295 3.50297 21.5063 3.50297H21.0243V1.66403H21.5063C21.7295 1.66403 21.9111 1.84563 21.9111 2.06888ZM14.4552 3.09812V2.06888C14.4552 1.84563 14.6368 1.66403 14.86 1.66403H15.3421V3.50297H14.86C14.6368 3.50297 14.4552 3.32137 14.4552 3.09812ZM8.14554 8.00525L7.77254 7.57144L10.3682 5.33985L10.7412 5.77366L10.1434 6.28763C10.1434 6.28763 10.1434 6.28769 10.1433 6.28769L8.74339 7.49128C8.74333 7.49134 8.74333 7.49134 8.74327 7.4914L8.14554 8.00525ZM9.66887 7.86234L10.3847 7.24692L11.034 8.00218C10.7788 8.19671 10.5316 8.4012 10.2933 8.61542L9.6556 7.87378L9.66887 7.86234ZM17.2682 5.62267V4.3877H19.098V5.62273C18.7961 5.59949 18.4909 5.58758 18.1831 5.58758C17.8753 5.58758 17.5702 5.59949 17.2682 5.62267Z" fill="black"/>
<path d="M14.478 9.34398C14.3648 9.12746 14.0975 9.04371 13.881 9.15683C11.1915 10.5626 9.35213 13.1962 8.96049 16.2015C8.29783 21.2867 11.8959 25.963 16.9811 26.6256C17.3873 26.6786 17.7902 26.7043 18.1894 26.7042C22.787 26.7038 26.7954 23.284 27.4051 18.6051C27.7261 16.1417 27.0686 13.7008 25.5537 11.7319C24.0388 9.76305 21.8479 8.50196 19.3845 8.18092C18.1826 8.02426 16.9841 8.09982 15.8218 8.40523C15.5855 8.46733 15.4443 8.70922 15.5063 8.9455C15.5684 9.18178 15.8104 9.32287 16.0466 9.26094C16.6033 9.11466 17.1694 9.02731 17.7404 8.998V10.1602C17.7404 10.4045 17.9384 10.6026 18.1828 10.6026C18.4271 10.6026 18.6251 10.4045 18.6251 10.1602V8.99906C18.8399 9.01068 19.0549 9.03014 19.2702 9.05816C20.993 9.28264 22.5682 10.0157 23.8279 11.1594L23.0267 11.9605C22.8539 12.1332 22.8539 12.4133 23.0267 12.5861C23.1131 12.6725 23.2263 12.7156 23.3395 12.7156C23.4527 12.7156 23.5659 12.6725 23.6523 12.5861L24.4511 11.7872C24.5901 11.9428 24.724 12.1042 24.8526 12.2713C25.9103 13.646 26.5055 15.275 26.5891 16.9715H25.4918C25.2474 16.9715 25.0494 17.1696 25.0494 17.4139C25.0494 17.6582 25.2474 17.8562 25.4918 17.8562H26.5866C26.575 18.0673 26.5554 18.2788 26.5278 18.4906C26.2999 20.2393 25.5471 21.7934 24.4492 23.0156L23.6914 22.2578C23.5186 22.085 23.2385 22.085 23.0658 22.2578C22.893 22.4305 22.893 22.7106 23.0658 22.8833L23.8244 23.642C22.4311 24.9001 20.6269 25.6896 18.6804 25.8042V24.7227C18.6804 24.4784 18.4824 24.2804 18.238 24.2804C17.9937 24.2804 17.7957 24.4784 17.7957 24.7227V25.8096C17.5634 25.7987 17.3299 25.7788 17.0954 25.7481C15.3659 25.5228 13.8266 24.7842 12.6105 23.7059L13.3941 22.9224C13.5668 22.7496 13.5668 22.4696 13.3941 22.2968C13.2213 22.124 12.9412 22.124 12.7685 22.2968L11.9805 23.0847C10.7035 21.6885 9.90031 19.8724 9.78241 17.9114H10.9291C11.1734 17.9114 11.3714 17.7133 11.3714 17.469C11.3714 17.2247 11.1734 17.0266 10.9291 17.0266H9.77592C9.78665 16.7909 9.80677 16.5538 9.83779 16.3157C10.0593 14.6164 10.7924 13.0484 11.905 11.8006L12.7294 12.625C12.8158 12.7114 12.929 12.7546 13.0422 12.7546C13.1554 12.7546 13.2687 12.7114 13.355 12.625C13.5278 12.4523 13.5278 12.1722 13.355 11.9995L12.5283 11.1728C13.0553 10.6939 13.6457 10.278 14.2908 9.94076C14.5073 9.82775 14.5912 9.56045 14.478 9.34398Z" fill="black"/>
<path d="M18.1829 13.3457C17.9385 13.3457 17.7405 13.5438 17.7405 13.7881V16.4157C17.3633 16.5854 17.0996 16.9638 17.0996 17.4036C17.0996 18.0009 17.5856 18.4868 18.1829 18.4868C18.3466 18.4868 18.5014 18.4492 18.6407 18.3839L21.592 21.3352C21.6784 21.4216 21.7916 21.4648 21.9048 21.4648C22.018 21.4648 22.1313 21.4216 22.2177 21.3352C22.3904 21.1624 22.3904 20.8823 22.2177 20.7096L19.2207 17.7126C19.2499 17.6145 19.2661 17.511 19.2661 17.4036C19.2661 16.9639 19.0024 16.5854 18.6253 16.4158V13.7881C18.6252 13.5438 18.4272 13.3457 18.1829 13.3457ZM17.9843 17.4035C17.9843 17.294 18.0734 17.205 18.1829 17.205C18.2923 17.205 18.3814 17.294 18.3814 17.4035C18.3814 17.513 18.2923 17.602 18.1829 17.602C18.0733 17.602 17.9843 17.513 17.9843 17.4035Z" fill="black"/>
</g>
<defs>
<clipPath id="clip0_1706_4056">
<rect width="30" height="30" fill="white"/>
</clipPath>
</defs>
</svg>
