<svg width="16" height="14" viewBox="0 0 16 14" fill="none" xmlns="http://www.w3.org/2000/svg">
<path d="M3.47809 0.239328C3.18562 0.247832 2.908 0.370038 2.7041 0.579883L0.455198 2.82823C0.014934 3.26777 0.014934 3.98117 0.455198 4.42071L2.7041 6.67126C3.76573 7.73827 5.36357 6.14043 4.29657 5.07878L3.96588 4.74864H10.2506C12.1398 4.74864 13.6245 6.23552 13.6245 8.12473C13.6245 10.0139 12.1398 11.5003 10.2506 11.5003H8.00006C6.43748 11.5003 6.43748 13.7487 8.00006 13.7487H10.2506C13.3474 13.7487 15.8751 11.2215 15.8751 8.12473C15.8751 5.02794 13.3474 2.5003 10.2506 2.5003H3.96643L4.29657 2.17015C5.03188 1.45443 4.50375 0.208576 3.47809 0.239328Z" fill="#B67508"/>
</svg>
