<svg xmlns="http://www.w3.org/2000/svg" version="1.1" xmlns:xlink="http://www.w3.org/1999/xlink" width="512" height="512" x="0" y="0" viewBox="0 0 24 24" style="enable-background:new 0 0 512 512" xml:space="preserve" class=""><g><path fill="#ffffff" fill-rule="evenodd" d="M2 12C2 6.477 6.477 2 12 2s10 4.477 10 10-4.477 10-10 10S2 17.523 2 12zm10.293 2.293a1 1 0 0 0 1.414 1.414l2.913-2.913.044-.046a.998.998 0 0 0 0-1.496 1.112 1.112 0 0 0-.044-.046l-2.913-2.913a1 1 0 1 0-1.414 1.414L13.586 11H8a1 1 0 1 0 0 2h5.586z" clip-rule="evenodd" opacity="1" data-original="#000000" class=""></path></g></svg>