<svg xmlns="http://www.w3.org/2000/svg" version="1.1" xmlns:xlink="http://www.w3.org/1999/xlink" width="512" height="512" x="0" y="0" viewBox="0 0 20 20" style="enable-background:new 0 0 512 512" xml:space="preserve"><g><path fill="#ffffff" fill-rule="evenodd" d="M0 10C0 4.486 4.486 0 10 0s10 4.486 10 10-4.486 10-10 10S0 15.514 0 10zm8.414-1 1.293-1.293a1 1 0 0 0-1.414-1.414l-3 3a.997.997 0 0 0 0 1.414l3 3a1 1 0 0 0 1.414-1.414L8.414 11H14a1 1 0 0 0 0-2z" clip-rule="evenodd" opacity="1" data-original="#000000"></path></g></svg>