<svg xmlns="http://www.w3.org/2000/svg" version="1.1" xmlns:xlink="http://www.w3.org/1999/xlink" width="512" height="512" x="0" y="0" viewBox="0 0 60 60" style="enable-background:new 0 0 512 512" xml:space="preserve" class=""><g><circle cx="27" cy="27" r="26" fill="#2970e2" opacity="1" data-original="#2970e2" class=""></circle><circle cx="27" cy="27" r="22" fill="#e9f2f2" opacity="1" data-original="#e9f2f2"></circle><g fill="#37404f"><path d="M27 11a1 1 0 0 0 1-1V9a1 1 0 0 0-2 0v1a1 1 0 0 0 1 1zM18.866 10.912a1 1 0 0 0-1.732 1l.5.865a1 1 0 1 0 1.732-1zM12.777 17.634l-.866-.5a1 1 0 0 0-1 1.732l.866.5a1 1 0 1 0 1-1.732zM11 27a1 1 0 0 0-1-1H9a1 1 0 0 0 0 2h1a1 1 0 0 0 1-1zM11.777 34.634l-.866.5a1 1 0 1 0 1 1.732l.866-.5a1 1 0 1 0-1-1.732zM19 40.856a1 1 0 0 0-1.366.367l-.5.866a1 1 0 1 0 1.732 1l.5-.866A1 1 0 0 0 19 40.856zM27 43a1 1 0 0 0-1 1v1a1 1 0 0 0 2 0v-1a1 1 0 0 0-1-1zM45 26h-1a1 1 0 0 0 0 2h1a1 1 0 0 0 0-2zM43.455 17.5a1 1 0 0 0-1.366-.366l-.866.5a1 1 0 1 0 1 1.732l.866-.5a1 1 0 0 0 .366-1.366zM36.5 10.546a1 1 0 0 0-1.366.366l-.5.865a1 1 0 1 0 1.732 1l.5-.865a1 1 0 0 0-.366-1.366zM33.55 30.17 28 26.47V14a1 1 0 0 0-2 0v13a1.01 1.01 0 0 0 .45.84l6 3.99A.939.939 0 0 0 33 32a1 1 0 0 0 .55-1.83z" fill="#37404f" opacity="1" data-original="#37404f" class=""></path></g><path fill="#2060bc" d="M27 50a23 23 0 1 1 23-23 23.025 23.025 0 0 1-23 23zm0-44a21 21 0 1 0 21 21A21.024 21.024 0 0 0 27 6z" opacity="1" data-original="#2060bc"></path><circle cx="27" cy="27" r="3" fill="#e25959" opacity="1" data-original="#e25959"></circle><circle cx="45" cy="45" r="14" fill="#d56a19" opacity="1" data-original="#f2c341" class=""></circle><path fill="#ffffff" d="M45 51a1 1 0 0 1-1-1v-2a1 1 0 0 1 1-1 5 5 0 1 0-5-5 1 1 0 0 1-2 0 7 7 0 1 1 8 6.929V50a1 1 0 0 1-1 1zM45 55a1 1 0 0 1-1-1v-.129a1 1 0 0 1 2 0V54a1 1 0 0 1-1 1z" opacity="1" data-original="#ffffff"></path></g></svg>