<svg xmlns="http://www.w3.org/2000/svg" version="1.1" xmlns:xlink="http://www.w3.org/1999/xlink" width="512" height="512" x="0" y="0" viewBox="0 0 512 512" style="enable-background:new 0 0 512 512" xml:space="preserve" class=""><g><path d="M182.947 265.42h146.106v115.905H182.947zm71.184-134.744h-71.185v35.175h71.185zM511.999 256c0 141.159-114.841 256-256 256S0 397.158 0 256 114.841 0 256 0s255.999 114.841 255.999 256zm-110.675-60.402c0-2.652-1.054-5.196-2.929-7.071l-74.922-74.922a10 10 0 0 0-7.071-2.929H120.676c-5.523 0-10 4.477-10 10v270.648c0 5.523 4.477 10 10 10h270.648c5.523 0 10-4.477 10-10zm-127.193-64.922v45.175c0 5.523-4.477 10-10 10h-91.185c-5.523 0-10-4.477-10-10v-45.175h-32.271v250.648h32.271V255.42c0-5.523 4.477-10 10-10h166.106c5.523 0 10 4.477 10 10v125.905h32.271V199.74l-69.064-69.064z" fill="#ffffff" opacity="1" data-original="#000000" class=""></path></g></svg>