<svg clip-rule="evenodd" fill-rule="evenodd" height="1.707in" image-rendering="optimizeQuality" shape-rendering="geometricPrecision" text-rendering="geometricPrecision" viewBox="0 0 1707 1707" width="1.707in" xmlns="http://www.w3.org/2000/svg"><g id="Layer_x0020_1"><path d="m995 138c-11 0-20-9-20-20v-98c0-26 40-26 40 0v98c0 11-9 20-20 20z"/><path d="m931 1707c-87 0-156-35-165-40-10-4-142-62-283-123-39-17-104-12-198 16-25 7-37-31-11-39 105-30 177-35 225-14l286 125c1 1 145 77 278 0l533-308c25-17 68-72 20-124-43-47-289 49-456 134-25 15-58 25-99 28h-356c-26 0-26-40 0-40h354c138-5 165-134 57-134l-342-1c-269-111-382-107-487-61-24 10-40-27-16-37 115-50 236-56 515 59h330c80 0 117 58 104 113 134-63 364-155 426-88 73 80 3 167-29 185l-534 309c-52 30-105 40-152 40z"/><path d="m248 1631h-168c-28 0-52-23-52-52v-511c0-28 24-52 52-52h168c28 0 51 24 51 52v511c0 29-23 52-51 52zm-168-575c-6 0-12 6-12 12v511c0 7 6 12 12 12h168c6 0 11-5 11-12v-511c0-6-5-12-11-12z"/><path d="m164 1537c-87 0-87-132 0-132s87 132 0 132zm0-92c-34 0-34 52 0 52s34-52 0-52z"/><path d="m995 873c-11 0-20-9-20-20v-333c0-26 40-26 40 0v333c0 11-9 20-20 20z"/><path d="m995 540c-84 0-115-110-70-110 11 0 20 9 20 20 0 66 100 66 100 0 0-26 40-26 40 0 0 50-41 90-90 90z"/><path d="m1131 873h-272c-11 0-20-9-20-20v-74c-105-57-170-165-170-286 0-179 146-326 326-326 179 0 325 147 325 326 0 121-64 229-169 286v74c0 11-9 20-20 20zm-252-40h232v-66c0-7 4-14 11-18 98-48 158-146 158-256 0-157-128-286-285-286-158 0-286 129-286 286 0 110 61 208 159 256 6 4 11 11 11 18z"/><path d="m1078 1053h-167c-40 0-72-33-72-73v-127c0-27 40-27 40 0v127c0 18 14 33 32 33h167c18 0 33-15 33-33v-127c0-27 40-27 40 0v127c0 40-33 73-73 73z"/><path d="m1131 963h-272c-27 0-27-40 0-40h272c26 0 26 40 0 40z"/><path d="m995 138c-11 0-20-9-20-20v-98c0-26 40-26 40 0v98c0 11-9 20-20 20z"/><path d="m1207 195c-15 0-25-17-17-30l49-85c13-23 48-3 35 20l-49 85c-4 6-11 10-18 10z"/><path d="m1363 351c-20 0-28-28-10-38l85-49c22-13 42 22 20 35-15 8-84 52-95 52z"/><path d="m1518 563h-98c-27 0-27-40 0-40h98c26 0 26 40 0 40z"/><path d="m782 195c-7 0-14-4-17-10l-49-85c-13-23 21-43 34-20l49 85c8 13-2 30-17 30z"/><path d="m626 351c-11 0-80-44-94-52-23-13-3-48 20-35l84 49c18 10 11 38-10 38z"/><path d="m569 563h-97c-27 0-27-40 0-40h97c27 0 27 40 0 40z"/><path d="m1061 1362h-356c-26 0-26-40 0-40h354c138-5 165-134 57-134l-342-1c-258-107-373-107-475-66v393c92-24 156-26 200-7l286 125c1 1 145 77 278 0l533-308c25-17 68-72 20-124-43-47-289 49-456 134-25 15-58 25-99 28z" fill="#fed2a4"/><path d="m259 1579v-511c0-6-5-12-11-12h-168c-6 0-12 6-12 12v511c0 7 6 12 12 12h168c6 0 11-5 11-12zm-95-42c-87 0-87-132 0-132s87 132 0 132z" fill="#53c8e8"/><path d="m164 1497c34 0 34-52 0-52s-34 52 0 52z" fill="#ccc"/><path d="m911 1013h167c18 0 33-15 33-33v-17h-232v17c0 18 14 33 32 33z" fill="#55717e"/><path d="m879 923h232v-50h-116-116z" fill="#638a9b"/><path d="m1015 833h96v-66c0-7 4-14 11-18 98-48 158-146 158-256 0-157-128-286-285-286-158 0-286 129-286 286 0 110 61 208 159 256 6 4 11 11 11 18v66h96v-295c-68-16-91-108-50-108 11 0 20 9 20 20 0 66 100 66 100 0 0-26 40-26 40 0 0 43-30 79-70 88z" fill="#f4cf1c"/></g></svg>