<svg id="Layer_1" enable-background="new 0 0 105 105" viewBox="0 0 105 105" xmlns="http://www.w3.org/2000/svg"><g><g><g><g><path d="m95.394043 94.9598236c-.1103516 0-.2001953-.0898438-.2001953-.2001953v-5c0-.1103516.0898438-.2001953.2001953-.2001953s.2001953.0898438.2001953.2001953v5c0 .1103516-.0898438.2001953-.2001953.2001953z" fill="#364f66"/></g><g><path d="m93.6010742 95.6160736c-.1103516 0-.2001953-.0898438-.2001953-.2001953v-10.65625c0-.1103516.0898438-.2001953.2001953-.2001953s.2001953.0898438.2001953.2001953v10.65625c0 .1103516-.0898437.2001953-.2001953.2001953z" fill="#364f66"/></g><g><path d="m91.7143555 96.4598236c-.1103516 0-.2001953-.0898438-.2001953-.2001953v-8.625c0-.1103516.0898438-.2001953.2001953-.2001953s.2001953.0898438.2001953.2001953v8.625c0 .1103516-.0898438.2001953-.2001953.2001953z" fill="#364f66"/></g><g><path d="m89.6987305 97.168808c-.1103516 0-.2001953-.0898438-.2001953-.2001953v-4.7089844c0-.1103516.0898438-.2001953.2001953-.2001953s.2001953.0898438.2001953.2001953v4.7089844c0 .1103515-.0898438.2001953-.2001953.2001953z" fill="#364f66"/></g></g><g><g><path d="m15.300293 16.6697884c-.1103516 0-.2001953-.0898438-.2001953-.2001953v-5c0-.1103516.0898438-.2001953.2001953-.2001953s.2001953.0898438.2001953.2001953v5c0 .1103515-.0898438.2001953-.2001953.2001953z" fill="#364f66"/></g><g><path d="m13.5073242 17.3260384c-.1103516 0-.2001953-.0898438-.2001953-.2001953v-10.65625c0-.1103516.0898438-.2001953.2001953-.2001953s.2001953.0898438.2001953.2001953v10.65625c0 .1103515-.0898437.2001953-.2001953.2001953z" fill="#364f66"/></g><g><path d="m11.621582 18.1697884c-.1103516 0-.2001953-.0898438-.2001953-.2001953v-8.625c0-.1103516.0898438-.2001953.2001953-.2001953s.2001953.0898438.2001953.2001953v8.625c0 .1103515-.0898437.2001953-.2001953.2001953z" fill="#364f66"/></g><g><path d="m9.605957 18.8787727c-.1103516 0-.2001953-.0898438-.2001953-.2001953v-4.7089844c0-.1103516.0898438-.2001953.2001953-.2001953s.2001953.0898438.2001953.2001953v4.7089844c0 .1103516-.0898437.2001953-.2001953.2001953z" fill="#364f66"/></g></g><g><g><path d="m91.7543945 14.304554c-.9541016 0-1.7304688-.7763672-1.7304688-1.7304688 0-.9550781.7763672-1.7314453 1.7304688-1.7314453s1.7304688.7763672 1.7304688 1.7314453c0 .9541016-.7763672 1.7304688-1.7304688 1.7304688zm0-3.0615235c-.7333984 0-1.3300781.5966797-1.3300781 1.3310547 0 .7333984.5966797 1.3300781 1.3300781 1.3300781s1.3300781-.5966797 1.3300781-1.3300781c.0000001-.734375-.5966796-1.3310547-1.3300781-1.3310547z" fill="#364f66"/></g></g><g><g><path d="m89.090332 32.8865852c-.0849609 0-.1630859-.0537109-.1904297-.1386719-.1425781-.4423828-1.2910156-3.0332031-1.3027344-3.0595703-.0214844-.0488281-.0234375-.1044922-.0039063-.1542969.0205078-.0498047.0585938-.0898438.1083984-.1103516l2.9589844-1.2597656c.1005859-.0458984.2177734.0039063.2617188.1054688s-.0039063.21875-.1054688.2617188l-2.7724609 1.1806641c.2705078.6113281 1.1083984 2.5185547 1.2363281 2.9130859.0341797.1054688-.0234375.2177734-.1289063.2519531-.0205076.0068359-.0410155.0097656-.0615233.0097656z" fill="#364f66"/></g></g><g><g><path d="m15.8432617 39.3660774c-.9541016 0-1.7304688-.7763672-1.7304688-1.7304688 0-.9550781.7763672-1.7314453 1.7304688-1.7314453.9550781 0 1.7314453.7763672 1.7314453 1.7314453 0 .9541016-.7763672 1.7304688-1.7314453 1.7304688zm0-3.0615234c-.7333984 0-1.3300781.5966797-1.3300781 1.3310547 0 .7333984.5966797 1.3300781 1.3300781 1.3300781.734375 0 1.3310547-.5966797 1.3310547-1.3300781 0-.734375-.5966797-1.3310547-1.3310547-1.3310547z" fill="#364f66"/></g></g><g><g><path d="m20.1547852 94.2654877c-.0625 0-.1259766-.0039063-.1884766-.0117188-1.3369141-.1728516-2.1230469-2.1425781-2.15625-2.2255859-.3701172-.6308594-.7861328-.9638672-1.2236328-.9638672-.0009766 0-.0029297 0-.0039063 0-.8916016.0039063-1.6640625 1.3369141-1.671875 1.3505859-.0556641.0966797-.1767578.1279297-.2724609.0742188-.0966797-.0546875-.1298828-.1767578-.0751953-.2724609.0361328-.0634766.8945313-1.546875 2.0166016-1.5527344h.0068359c.5898438 0 1.1220703.4003906 1.5830078 1.1904297.0205078.0458984.7460938 1.8603516 1.8486328 2.0029297.5556641.0703125 1.1425781-.3056641 1.7392578-1.1230469.0654297-.0898438.1884766-.1083984.2792969-.0429688.0888672.0644531.1083984.1894531.0429688.2792969-.6279297.8603516-1.2753907 1.2949219-1.9248047 1.2949219z" fill="#364f66"/></g></g></g><g><g><g><g><g><g><g enable-background="new"><g><g><path d="m16.1552162 78.384758c-.2256632.3703995 2.111702 3.5366669 2.9261436 3.1091309l27.1710434 15.0536804c.3061333.1776428.5930481.2705536.8554115.2951584.2650299.0245895.5056381-.0246048.7078133-.1421127l41.9048767-26.0444717c-.202179.1175156-.4427872.1667023-.7078171.1448364-.2623596-.0245895-.5492783-.1202469-.8582153-.2978745l-28.8690948-16.6651955c-.2951889-.1721573-.5656929-.1885529-.7570572-.0765114z" fill="#f9c539"/></g></g><g><g><path d="m16.1852417 67.4559174c-.1278439.604805 2.0069447 3.6994324 2.7594662 2.8558807l26.8694897 13.8830948 42.3731041-24.6233635-28.8718987-16.6651917c-.2951889-.1721573-.5630226-.1885529-.7570572-.0737762z" fill="#fbd46c"/></g></g></g></g><g><g enable-background="new"><g><g><path d="m18.1062412 69.7456894c-.7640839-.441124-1.3853245-.0871048-1.3878193.7928543l-.0152035 5.3630371c-.0024948.8799667.6147099 1.9489594 1.3787937 2.3900833l29.788269 17.197319c.7640839.441124 1.3853226.0871048 1.3878174-.7928619l.0152054-5.3630371c.0024948-.8799591-.6147079-1.9489517-1.3787956-2.3900757z" fill="#dbe7fe"/></g></g></g></g><g><g enable-background="new"><g><g><path d="m16.7044945 75.9005661c-.0026703.879982.6122646 1.9512939 1.3774643 2.3912811l29.7874947 17.1980972c.7651978.4399872 1.3856049.0874557 1.3884048-.7925491l.0164146-5.3646698c0-.308815-.0737953-.6422195-.2077789-.9619675-1.2298698-.1612473-2.4816246-.0683212-3.7114944-.2159119-1.8884392-.2268143-3.7005501-1.03302-5.1325951-2.2792206-.7406425-.6449585-1.3938789-1.4129028-2.2575607-1.8829651-1.1259117-.6148987-2.4733505-.6504288-3.6731949-1.1068192-2.3776665-.9073257-3.9027252-3.3450623-6.2667809-4.2879105-.6368198-.254158-1.325552-.3935394-1.9049892-.757019-1.5469456-.9701691-1.9841251-3.2849274-3.6841354-3.9462967-.360714-.1393814-.748785-.1913071-1.1041603-.3416138-.9292088-.3908005-1.4567337-1.3746338-1.7928925-2.3284073-.0928802-.2651062-.1776199-.5356598-.2678318-.8062134l-1.1642132-.6722946c-.7653313-.4427261-1.3856049-.0874557-1.3884068.7925491z" fill="#c6d7f4"/></g></g></g></g><g><g><path d="m48.0402679 87.460701c.7817459 1.3500519 1.3035316 3.0376053 1.2981949 4.4067917l-.5807724 2.8353729c-1.0160828.7579346-.0712624 2.1654968.0847397 3.1838303l42.3731079-24.6206437c.7842789-.4454575 1.2763062-1.4183731 1.2791061-2.7902908l.0108109-3.4215698c.0028-1.3719177-.4809494-2.9050674-1.2598953-4.2551155s-1.8666916-2.538868-3.0582581-3.2275467l-42.3731041 24.6233635c1.1915703.6886902 1.4471283 1.9157562 2.2260704 3.2658081z" fill="#fbd46c"/></g></g><g><g><path d="m48.0389328 87.460701c.7844162 1.3500519 1.303669 3.0362396 1.3008652 4.405426l-.5821075 2.8367386c-1.0166168.757019-.0709953 2.1644516.0847397 3.1838303l42.3731078-24.6206437c.7842789-.4454575 1.2763062-1.4183731 1.2791061-2.7902908l.0108109-3.4215698c.0028-1.3719177-.4809494-2.9050674-1.2598953-4.2551155-.2049789-.3552704-.431839-.6996193-.6749878-1.0248337-.573967.317009-1.0714645.7378845-1.4540634 1.2871819-1.0248871 1.4730301-1.120575 3.7386093-2.7466507 4.5010834-.967514.4536514-2.1044998.155777-3.1675568.2514191-2.3778.2186279-4.091423 2.3475647-5.2693787 4.4218216-.3197479.565712-.6477661 1.166954-1.1998444 1.5085602-.9018478.5547867-2.0552521.2486877-3.1073685.1421204-3.2687073-.3252182-6.6249619 1.7791138-7.7536697 4.8618088-.2706375.7433548-.5084457 1.6288071-1.2353439 1.9430847-.4263687.1858292-.9129257.1147919-1.371994.0628662-1.7628632-.1967773-3.5612297-.0491943-5.2693787.4235916-.5411377.1503067-1.0985565.3525391-1.459404.7843399-.5220528.6285629-.4700089 1.5413589-.7489166 2.3093033-.4371796 1.2051926-1.6725197 1.9622116-2.9188042 2.262825-1.2490845.3006287-2.5499496.2350235-3.8289299.3334198-.4155617.0327911-.828186.0819855-1.2381401.153038.0737954.1448363.1530648.2924269.2378045.4399947z" fill="#f9c539"/></g></g><g><g><path d="m18.9456425 70.3117981 26.8685551 13.8830948 42.3731041-24.6233635-2.4433212-1.4101791c-5.2282791 1.9895515-11.3421326 1.5905457-16.2370529-1.136879-1.7300339-.9619827-3.3615875-2.2163696-5.3048782-2.6099091-.9318733-.1885681-1.8993835-.1667175-2.8259201-.3853455-1.9076614-.4427299-3.5284004-1.9458199-4.1186485-3.8123894-.4427834-1.4074287-.3471031-3.0116386-1.1534042-4.2469101-.2869148-.439991-.6613731-.7925301-1.0877457-1.0794945l-38.831089 22.5654945c-.1283781.6039812 2.0061453 3.7003481 2.7604006 2.8558809z" fill="#f9c539"/></g></g><g><g><path d="m16.9440613 67.5286636c-.5890293-.3400574-1.067482-.0657654-1.0694017.6110687-.001914.6751404.4734221 1.5000763 1.0624514 1.8401337l28.8698273 16.6670914c.4591103.2650528.8765297.6640549 1.2285805 1.1408539.3506088.4759674.6300049 1.0263672.7955666 1.5739136.1098366.3658524.1694565.7299042.168457 1.0827408l-.0097046 3.4231949c-.001503.5292587-.1401443.9283676-.3790207 1.1965485-.2387886.2665253-.5777931.3936462-.9710464.3586121-.2631607-.0244904-.5497856-.1186066-.8568764-.2958984l-28.8698236-16.6670839c-.5890312-.3400574-1.0674791-.0674667-1.0693979.609375-.0019188.6768341.4734221 1.5000687 1.0624514 1.840126l28.8698273 16.6670914c1.1961594.690567 2.2852173.7589188 3.0675812.3114395.7849274-.4456787 1.2757034-1.4162903 1.2795944-2.78862l.0097046-3.4232025c.0038872-1.370636-.4797935-2.9038162-1.2596321-4.252861-.7784691-1.3499527-1.866436-2.5387573-3.0593147-3.2274323z" fill="#d89a1e"/></g></g></g><g><g><g enable-background="new"><g><g><path d="m16.1552162 59.1352921c-.2256632.3703995 2.111702 3.5366707 2.9261436 3.1091309l27.1710434 15.0536804c.3061333.1776505.5930481.2705536.8554115.2951584.2650299.0245895.5056381-.0246048.7078133-.1421127l41.9048767-26.0444679c-.202179.1175117-.4427872.1667023-.7078171.1448326-.2623596-.0245857-.5492783-.1202469-.8582153-.2978745l-28.8690948-16.6651917c-.2951889-.1721573-.5656929-.1885567-.7570572-.0765152z" fill="#f9c539"/></g></g><g><g><path d="m16.1852417 48.2064552c-.1278439.6048012 2.0069447 3.6994324 2.7594662 2.8558769l26.8694897 13.8830948 42.3731041-24.6233597-28.8718987-16.6651935c-.2951889-.1721573-.5630226-.1885529-.7570572-.0737762z" fill="#fbd46c"/></g></g></g></g><g><g enable-background="new"><g><g><path d="m18.1062412 50.4962234c-.7640839-.4411201-1.3853245-.0871048-1.3878193.7928581l-.0152035 5.3630371c-.0024948.8799667.6147099 1.9489594 1.3787937 2.3900795l29.788269 17.1973267c.7640839.4411163 1.3853226.0871048 1.3878174-.7928619l.0152054-5.3630371c.0024948-.8799667-.6147079-1.9489594-1.3787956-2.3900757z" fill="#dbe7fe"/></g></g></g></g><g><g enable-background="new"><g><g><path d="m16.7044945 56.651104c-.0026703.879982.6122646 1.9512901 1.3774643 2.3912811l29.7874947 17.1980934c.7651978.4399948 1.3856049.0874557 1.3884048-.7925491l.0164146-5.3646698c0-.308815-.0737953-.6422195-.2077789-.9619675-1.2298698-.1612473-2.4816246-.0683212-3.7114944-.2159042-1.8884392-.2268219-3.7005501-1.0330276-5.1325951-2.2792282-.7406425-.6449585-1.3938789-1.4128952-2.2575607-1.8829651-1.1259117-.6148987-2.4733505-.6504288-3.6731949-1.1068192-2.3776665-.9073219-3.9027252-3.3450584-6.2667809-4.2879066-.6368198-.254158-1.325552-.3935394-1.9049892-.757019-1.5469456-.9701729-1.9841251-3.2849236-3.6841354-3.9462967-.360714-.1393814-.748785-.1913071-1.1041603-.3416138-.9292088-.3908005-1.4567337-1.3746338-1.7928925-2.3284111-.0928802-.2650986-.1776199-.535656-.2678318-.8062096l-1.1642132-.6722946c-.7653313-.4427299-1.3856049-.0874557-1.3884068.7925453z" fill="#c6d7f4"/></g></g></g></g><g><g><path d="m48.0402679 68.211235c.7817459 1.3500519 1.3035316 3.0376129 1.2981949 4.4067917l-.5807724 2.8353806c-1.0160828.7579269-.0712624 2.1654892.0847397 3.1838226l42.3731079-24.6206398c.7842789-.4454613 1.2763062-1.4183731 1.2791061-2.7902908l.0108109-3.4215698c.0028-1.3719177-.4809494-2.9050674-1.2598953-4.2551155-.7789459-1.3500519-1.8666916-2.538868-3.0582581-3.2275467l-42.3731041 24.6233596c1.1915703.6886979 1.4471283 1.9157639 2.2260704 3.2658081z" fill="#fbd46c"/></g></g><g><g><path d="m48.0389328 68.211235c.7844162 1.3500519 1.303669 3.0362396 1.3008652 4.405426l-.5821075 2.8367462c-1.0166168.7570114-.0709953 2.164444.0847397 3.1838226l42.3731078-24.6206397c.7842789-.4454613 1.2763062-1.4183731 1.2791061-2.7902908l.0108109-3.4215698c.0028-1.3719177-.4809494-2.9050674-1.2598953-4.2551155-.2049789-.3552742-.431839-.6996193-.6749878-1.0248337-.573967.3170052-1.0714645.7378807-1.4540634 1.2871819-1.0248871 1.4730301-1.120575 3.7386093-2.7466507 4.5010834-.967514.4536514-2.1044998.155777-3.1675568.2514191-2.3778.2186279-4.091423 2.3475647-5.2693787 4.4218178-.3197479.565712-.6477661 1.166954-1.1998444 1.508564-.9018478.5547867-2.0552521.2486877-3.1073685.1421165-3.2687073-.3252144-6.6249619 1.7791138-7.7536697 4.8618088-.2706375.7433586-.5084457 1.6288109-1.2353439 1.9430847-.4263687.185833-.9129257.1147919-1.371994.0628662-1.7628632-.1967773-3.5612297-.0491905-5.2693787.4235954-.5411377.1503067-1.0985565.3525391-1.459404.7843399-.5220528.6285629-.4700089 1.5413551-.7489166 2.3092995-.4371796 1.2052002-1.6725197 1.9622116-2.9188042 2.262825-1.2490845.3006287-2.5499496.2350235-3.8289299.3334198-.4155617.0327988-.828186.0819855-1.2381401.1530457.0737954.1448287.1530648.2924193.2378045.439987z" fill="#eaad24"/></g></g><g><g><path d="m18.9456425 51.0623322 26.8685551 13.8830948 42.3731041-24.6233597-2.4433212-1.410183c-5.2282791 1.9895554-11.3421326 1.5905457-16.2370529-1.1368752-1.7300339-.9619827-3.3615875-2.2163734-5.3048782-2.6099091-.9318733-.1885719-1.8993835-.1667213-2.8259201-.3853493-1.9076614-.4427261-3.5284004-1.945816-4.1186485-3.8123875-.4427834-1.4074306-.3471031-3.0116367-1.1534042-4.2469101-.2869148-.439991-.6613731-.7925282-1.0877457-1.0794964l-38.831089 22.5654984c-.1283781.6039773 2.0061453 3.700348 2.7604006 2.8558771z" fill="#f9c539"/></g></g><g><g><path d="m16.9440613 48.2792015c-.5890293-.3400574-1.067482-.0657692-1.0694017.6110687-.001914.6751404.4734221 1.5000725 1.0624514 1.8401337l28.8698273 16.6670876c.4591103.2650528.8765297.6640549 1.2285805 1.1408615.3506088.4759674.6300049 1.0263596.7955666 1.5739059.1098366.3658524.1694565.7299042.168457 1.0827408l-.0097046 3.4232025c-.001503.5292511-.1401443.92836-.3790207 1.1965408-.2387886.2665253-.5777931.3936462-.9710464.3586121-.2631607-.0244904-.5497856-.1186066-.8568764-.2958908l-28.8698236-16.6670914c-.5890312-.3400574-1.0674791-.0674629-1.0693979.609375s.4734221 1.5000725 1.0624514 1.8401299l28.8698273 16.6670876c1.1961594.690567 2.2852173.7589188 3.0675812.3114395.7849274-.4456787 1.2757034-1.4162827 1.2795944-2.78862l.0097046-3.4231949c.0038872-1.3706436-.4797935-2.9038239-1.2596321-4.2528687-.7784691-1.3499527-1.866436-2.5387573-3.0593147-3.2274323z" fill="#d89a1e"/></g></g></g></g></g><g><g><path d="m90.0864258 78.8377533c-.0683594 0-.1357422-.0361328-.1728516-.0996094-.0556641-.0957031-.0234375-.2177734.0722656-.2734375l4.9199219-2.859375c.0927734-.0556641.2177734-.0234375.2734375.0722656s.0234375.2177734-.0722656.2734375l-4.9199219 2.859375c-.03125.0185547-.0664062.0273438-.1005859.0273438z" fill="#364f66"/></g><g><path d="m66.6889648 92.4324799c-.0683594 0-.1357422-.0361328-.1728516-.0996094-.0556641-.0957031-.0234375-.2177734.0722656-.2734375l20.7177735-12.038086c.0927734-.0566406.2177734-.0234375.2734375.0722656s.0234375.2177734-.0722656.2734375l-20.7177734 12.038086c-.03125.0185547-.0664063.0273438-.100586.0273438z" fill="#364f66"/></g><g><path d="m54.0063477 99.8016205c-.0683594 0-.1357422-.0361328-.1728516-.0996094-.0556641-.0957031-.0234375-.2177734.0722656-.2734375l9.5263672-5.5351563c.0927734-.0566406.2177734-.0234375.2734375.0722656s.0234375.2177734-.0722656.2734375l-9.5263672 5.5351563c-.03125.0185547-.0664063.0273438-.1005859.0273438z" fill="#364f66"/></g></g><g><g><path d="m82.1118164 18.4715462c-.0332031 0-.0673828-.0087891-.0986328-.0263672l-6.1572266-3.4736328c-.0957031-.0537109-.1298828-.1757813-.0751953-.2724609.0527344-.0957031.1748047-.1298828.2724609-.0751953l6.1572266 3.4736328c.0957031.0537109.1298828.1757813.0751953.2724609-.0361328.0644531-.1044922.1015625-.1738281.1015625z" fill="#364f66"/></g><g><path d="m73.7836914 13.773304c-.0332031 0-.0673828-.0087891-.0986328-.0263672l-9.5439453-5.3828125c-.0957031-.0537109-.1298828-.1757813-.0751953-.2724609.0527344-.0957036.1748047-.1308599.2724609-.0751953l9.5439453 5.3828125c.0957031.0537109.1298828.1757813.0751953.2724609-.0361328.0644531-.1044922.1015625-.1738281.1015625z" fill="#364f66"/></g><g><path d="m62.2163086 7.2488894c-.0332031 0-.0673828-.0087891-.0986328-.0263672l-2.9257813-1.6503906c-.0957031-.0537109-.1298828-.1757813-.0751953-.2724609.0527344-.0957031.1748047-.1298828.2724609-.0751953l2.9257813 1.6503906c.0957031.0537109.1298828.1757813.0751953.2724609-.0361328.0644532-.1044922.1015625-.1738281.1015625z" fill="#364f66"/></g></g></g><g><g><g enable-background="new"><g><g><path d="m74.6652374 23.8080063-.0457764 16.1469002c-.0098267 3.4664001-2.288208 6.927578-6.8396988 9.5725899-9.161808 5.3242226-24.060276 5.3228149-33.2820129-.0013161-4.6395302-2.6786118-6.9571877-6.1947746-6.9472351-9.7056923l.0457764-16.1468906c-.0099525 3.5109138 2.3077068 7.0270729 6.9472389 9.7056866 9.2217369 5.3241348 24.1202011 5.3255386 33.2820091.0013199 4.5514908-2.6450177 6.8298722-6.1061917 6.8396988-9.5725976z" fill="#324566"/></g></g></g><g><g><g><path d="m74.6414032 34.029953-.0194855 5.9279633c-.0134201 3.461235-2.2900696 6.9224701-6.8443298 9.5723801-9.1601181 5.3194656-24.0586662 5.3194656-33.2778893-.0065117-4.6389256-2.6761055-6.9617405-6.1896973-6.9486427-9.703289l.0129395-5.4961395c1.1255455.0196495 2.2705803.3402481 3.2585888.8506241 2.2442226 1.1711845 3.9454823 3.1406326 5.8756504 4.7763863 1.7338448 1.4656258 3.873436 2.7284203 6.13731 2.525589 2.3555641-.2159309 4.4427605-1.9760017 6.7983246-1.8058739 1.4001427.1047096 2.6499672.8833275 3.9258308 1.4721756 2.4732933 1.1384773 5.6924286 1.4852753 7.6749916-.3795052.7261887-.6804581 1.2300186-1.6095543 2.0870361-2.1199303 1.7472649-1.0337639 4.1092186.1439667 5.980442-.6543007 1.812439-.7786179 2.4536438-3.0555687 4.004425-4.2725601.3990404-.3140908.8504716-.5430795 1.3348085-.687008z" fill="#26404f"/></g></g></g></g><g><g><g enable-background="new"><g><path d="m82.1119537 23.9889965-.0077209 2.1126385c-.0026627 1.0031757-.660965 2.0037556-1.975296 2.7658596l-24.1204338 14.0185528c-2.6466331 1.5371666-6.9549103 1.5397606-9.6197701 0l-24.2785263-14.0159588c-1.3402786-.7750607-2.0089607-1.7912102-2.0064297-2.8047485l.0051899-2.1100445c3.3606281-2.6267242 25.4197044-7.6252689 23.5450363-3.3733006l2.6453018 14.0410175c2.6647339 1.5397606 6.9703522 1.5371666 9.6171112 0l12.5255699-12.5289059c-3.8760375-4.9086856 8.798317-.9875831 13.6699677 1.8948899z" fill="#162830"/></g></g></g><g><g><path d="m80.1035843 21.184824c2.66465 1.5384254 2.6787033 4.0323887.0314178 5.5708122l-24.1215744 14.0178204c-2.6456451 1.537468-6.9529152 1.5384293-9.6175652.0000038l-24.2793349-14.0175724c-2.6645603-1.538372-2.6786175-4.0323334-.0313301-5.5707569l24.1215705-14.0178199c2.6472893-1.5384235 6.9529228-1.5384336 9.6174812-.0000606z" fill="#324566"/></g></g><g><g><path d="m80.1341324 26.7548542-24.1204415 14.0185528c-2.646759 1.5371666-6.9523773 1.5397606-9.6171112 0l-24.2811851-14.0185528c-2.6622009-1.5371647-2.6777687-4.0308475-.0311356-5.5706062l2.3822231-1.3842201c.1840363-.002594.3680725 0 .5495777.0051746 3.1391277.075182 6.2238293.8761597 9.360424.9954052 3.1391258.1166515 6.5427933-.5936203 8.6216202-2.9473152.8658829-.9824486 1.4698868-2.2163162 2.5300598-2.9862041 1.4516602-1.0550222 3.393158-1.0005808 5.1844139-1.0809383 1.791256-.0777617 3.8131256-.4769688 4.7567253-2.0011768.6609612-1.0731535.6143837-2.452199 1.2053528-3.5642567.0778427-.1451626.1632767-.2825398.2592201-.4121494l23.1691133 13.3756808c2.6648636 1.5397587 2.6804275 4.0334415.0311432 5.5706062z" fill="#26404f"/></g></g><g><g><g><path d="m33.332428 42.650692c-.2506142 0-.4536362-.2031479-.4536362-.4536324v-6.8622093c0-1.126358.6050186-2.1777916 1.5788689-2.7439461l17.6996613-10.2866039c.2166901-.1256847.4946442-.052021.6199493.1642914.1260681.2165623.0524025.4942608-.1642876.6201992l-17.6994095 10.2866058c-.6953888.4042702-1.1275101 1.1550903-1.1275101 1.9594536v6.8622093c0 .2504845-.203022.4536324-.4536361.4536324z" fill="#162830"/></g></g><g><g><path d="m32.9003944 42.305069c-.2506142 0-.4536362-.2031479-.4536362-.4536324v-6.8622093c0-1.1263618.6050186-2.1777916 1.5788651-2.7439461l17.6996613-10.2866058c.2166939-.1256847.494648-.052021.6199532.1642895.1260681.2165642.0524025.4942627-.1642914.6202011l-17.6994057 10.2866039c-.6953926.4042702-1.1275101 1.1550941-1.1275101 1.9594574v6.8622093c0 .2504845-.203022.4536324-.4536362.4536324z" fill="#fbd46c"/></g></g><g><g><path d="m55.7547379 20.4231377c1.9712906 1.1381149 1.9830246 2.9813137.0245934 4.119421s-5.1405716 1.1373329-7.1118584-.000782c-1.9698105-1.1372604-1.9815445-2.9804573-.0231133-4.1185646s5.1405716-1.1373349 7.1103783-.0000744z" fill="#162830"/></g></g><g><g><g><path d="m54.6530495 20.6175518c1.9712906 1.1381149 1.9830246 2.9813137.0245934 4.119421s-5.1405716 1.1373329-7.1118584-.000782c-1.9698067-1.1372604-1.9815445-2.9804573-.0231133-4.1185646s5.1405716-1.1373348 7.1103783-.0000744z" fill="#fbd46c"/></g></g><g><g><path d="m54.6767426 24.7379761c-1.9571724 1.137949-5.1389427 1.135149-7.1101761-.0028-.8778305-.5060635-1.3671265-1.1547241-1.4650116-1.8173599.3550911-.0279522.7297096.0055981 1.0876656.0307522.6821976.0503426 1.4818039-.008379 1.8760796-.5675659.2487411-.349493.2879219-.8443794.6262245-1.1099968.3970032-.3159256 1.0596771-.1845245 1.3755913-.581543.2040977-.2544403.1594543-.5871582.1258698-.9254551 1.2525864.0139751 2.4995728.2991676 3.4613686.8527584 1.9712332 1.137949 1.9824255 2.9832611.0223883 4.1212101z" fill="#f9c539"/></g></g></g><g><path d="m32.564682 39.1965599-1.2761726 5.5076447c0 1.0746613 3.2240105 1.0746613 3.2240105 0l-1.2761688-5.5076447z" fill="#fbd46c"/></g><g><path d="m34.5112839 44.7031555c0 1.0757675-3.2221584 1.0757675-3.2221584 0l.5781841-2.4988556c.0829048-.002594.1658096-.0103798.2488403-.0233345.1840363-.028511.3680725-.1062737.4717369-.2592201.0751839-.1140556.0984726-.2592201.1866951-.3603172.1346741-.1555252.3809814-.1736717.5105934-.3317909.0777168-.0959091.1011314-.2229271.1244202-.3447647.0284805-.1503525.0648041-.3032837.1140442-.4484444z" fill="#f9c539"/></g></g></g></g><g><g><path d="m51.1274414 25.7361946c-1.3144531 0-2.6318359-.2900391-3.6367188-.8701172s-1.5585938-1.3603516-1.5595703-2.1962891c-.0009766-.8310547.5449219-1.6054688 1.5361328-2.1816406 1.9951172-1.1591797 5.2519531-1.1611328 7.2607422 0 1.0048828.5800781 1.5595703 1.3603516 1.5615234 2.1962891.0009766.8310547-.5449219 1.6054688-1.5371094 2.1826172-.9970702.5791015-2.3095702.8691406-3.6249999.8691406zm-.0341797-5.8222656c-1.2607422 0-2.5195313.2783203-3.4755859.8339844-.8945313.5195313-1.3876953 1.2021484-1.3867188 1.9208984.0009766.7246094.5019531 1.4130859 1.4101563 1.9375 1.9257813 1.1113281 5.0488281 1.1123047 6.9609375.0009766.8955078-.5205078 1.3876953-1.203125 1.3867188-1.921875-.0009766-.7246094-.5019531-1.4130859-1.4111328-1.9375-.9619141-.5556641-2.2246095-.8339844-3.4843751-.8339844z" fill="#fff"/></g></g></g></g></svg>