<svg width="24" height="24" viewBox="0 0 24 24" fill="none" xmlns="http://www.w3.org/2000/svg">
<circle cx="12" cy="12" r="12" fill="#FE151A"/>
<g clip-path="url(#clip0_1790_4363)">
<path fill-rule="evenodd" clip-rule="evenodd" d="M9.17405 17.2443C9.07094 17.2443 8.98659 17.1599 8.98659 17.0568V10.9268C8.98659 10.8237 9.07094 10.7393 9.17405 10.7393C9.27715 10.7393 9.36151 10.8237 9.36151 10.9268V17.0568C9.36151 17.1599 9.27715 17.2443 9.17405 17.2443ZM18.0036 8.3679H17.4224L16.8038 18.7252C16.7569 19.447 16.2133 19.9906 15.5197 19.9906H8.47106C7.78682 19.9906 7.2338 19.447 7.19631 18.7252L6.57768 8.3679H5.99655C5.89344 8.3679 5.80908 8.28354 5.80908 8.18043V7.14938C5.80908 6.48389 6.35273 5.93087 7.02759 5.93087H9.10844V5.48096C9.10844 4.6655 9.77393 4 10.5894 4H13.4107C14.2262 4 14.8917 4.6655 14.8917 5.48096V5.93087H16.9725C17.638 5.93087 18.191 6.48389 18.191 7.14938V8.18043C18.191 8.28354 18.1067 8.3679 18.0036 8.3679ZM9.48336 5.93087H10.0364V5.48096C10.0364 5.18102 10.2801 4.92794 10.5894 4.92794H13.4107C13.7107 4.92794 13.9637 5.18102 13.9637 5.48096V5.93087H14.5168V5.48096C14.5168 4.8717 14.02 4.37493 13.4107 4.37493H10.5894C9.98014 4.37493 9.48336 4.8717 9.48336 5.48096V5.93087ZM6.18401 7.99297H17.8161V7.14938C17.8161 6.6901 17.4318 6.3058 16.9725 6.3058H7.02759C6.55894 6.3058 6.18401 6.6901 6.18401 7.14938V7.99297ZM6.95261 8.3679L7.57124 18.7065C7.59936 19.222 7.99303 19.6157 8.47106 19.6157H15.5197C16.0071 19.6157 16.4008 19.222 16.4289 18.7065L17.0475 8.3679H6.95261ZM10.4113 5.93087H13.5888V5.48096C13.5888 5.38723 13.5045 5.30287 13.4107 5.30287H10.5894C10.4863 5.30287 10.4113 5.38723 10.4113 5.48096V5.93087ZM14.8167 17.2443C14.7136 17.2443 14.6292 17.1599 14.6292 17.0568V10.9268C14.6292 10.8237 14.7136 10.7393 14.8167 10.7393C14.9198 10.7393 15.0042 10.8237 15.0042 10.9268V17.0568C15.0042 17.1599 14.9198 17.2443 14.8167 17.2443ZM12.1922 18.116C12.0891 18.116 12.0047 18.0316 12.0047 17.9285V10.0551C12.0047 9.95196 12.0891 9.8676 12.1922 9.8676C12.2953 9.8676 12.3797 9.95196 12.3797 10.0551V17.9285C12.3797 18.0316 12.2953 18.116 12.1922 18.116Z" fill="black"/>
<path fill-rule="evenodd" clip-rule="evenodd" d="M12.3797 10.0551V17.9286C12.3797 18.0317 12.2953 18.116 12.1922 18.116C12.0891 18.116 12.0048 18.0317 12.0048 17.9286V10.0551C12.0048 9.95199 12.0891 9.86763 12.1922 9.86763C12.2953 9.86763 12.3797 9.95199 12.3797 10.0551ZM9.36154 10.9268V17.0568C9.36154 17.16 9.27718 17.2443 9.17408 17.2443C9.07097 17.2443 8.98661 17.16 8.98661 17.0568V10.9268C8.98661 10.8237 9.07097 10.7393 9.17408 10.7393C9.27718 10.7393 9.36154 10.8237 9.36154 10.9268ZM16.4289 18.7065L17.0475 8.36792H6.95264L7.57127 18.7065C7.59939 19.2221 7.99306 19.6157 8.47109 19.6157H15.5197C16.0071 19.6157 16.4008 19.2221 16.4289 18.7065ZM14.6293 17.0568V10.9268C14.6293 10.8237 14.7136 10.7393 14.8167 10.7393C14.9198 10.7393 15.0042 10.8237 15.0042 10.9268V17.0568C15.0042 17.16 14.9198 17.2443 14.8167 17.2443C14.7136 17.2443 14.6293 17.16 14.6293 17.0568Z" fill="#E4E4E4"/>
<path fill-rule="evenodd" clip-rule="evenodd" d="M6.75585 7.99308H17.8162V7.14949C17.8162 6.69021 17.4319 6.30591 16.9726 6.30591H7.02767C6.55901 6.30591 6.18408 6.69021 6.18408 7.14949V7.99308H6.74647H6.75585Z" fill="#B6BBC4"/>
<path fill-rule="evenodd" clip-rule="evenodd" d="M13.4108 4.92802C13.7107 4.92802 13.9638 5.18109 13.9638 5.48103V5.93095H14.5168V5.48103C14.5168 4.87178 14.02 4.375 13.4108 4.375H10.5894C9.98018 4.375 9.4834 4.87178 9.4834 5.48103V5.93095H10.0364V5.48103C10.0364 5.18109 10.2801 4.92802 10.5894 4.92802H13.4108Z" fill="#8991A0"/>
</g>
<defs>
<clipPath id="clip0_1790_4363">
<rect width="16" height="16" fill="white" transform="translate(4 4)"/>
</clipPath>
</defs>
</svg>
