<svg width="24" height="24" viewBox="0 0 24 24" fill="none" xmlns="http://www.w3.org/2000/svg">
<circle cx="12" cy="12" r="12" fill="#3ACA92"/>
<g clip-path="url(#clip0_1790_4324)">
<path d="M17.25 5.25C17.25 4.97386 17.0261 4.75 16.75 4.75H6.25C5.97386 4.75 5.75 4.97386 5.75 5.25V6.31436H17.25V5.25Z" fill="#FCB64D"/>
<path d="M6.25 5.75C6.25 5.47386 6.47386 5.25 6.75 5.25H17.25C17.25 4.97386 17.0261 4.75 16.75 4.75H6.25C5.97386 4.75 5.75 4.97386 5.75 5.25V6.31436H6.25V5.75Z" fill="#F78C1E"/>
<path d="M5.75 6.31445V18.7501C5.75 19.0262 5.97386 19.2501 6.25 19.2501H16.75C17.0261 19.2501 17.25 19.0262 17.25 18.7501V6.31445H5.75Z" fill="#EEEEEE"/>
<path d="M17.25 6.81445V6.31445H5.75V18.7501C5.75 19.0262 5.97386 19.2501 6.25 19.2501V17.8144C6.25 11.7393 11.1749 6.81445 17.25 6.81445Z" fill="#E0E0E0"/>
<path d="M14.7253 7.854H7.2749C7.13684 7.854 7.0249 7.96594 7.0249 8.104C7.0249 8.24207 7.13684 8.354 7.2749 8.354H14.7253C14.8634 8.354 14.9753 8.24207 14.9753 8.104C14.9753 7.96594 14.8634 7.854 14.7253 7.854Z" fill="#434343"/>
<path d="M13.2253 9.29932H7.2749C7.13684 9.29932 7.0249 9.41125 7.0249 9.54932C7.0249 9.68738 7.13684 9.79932 7.2749 9.79932H13.2253C13.3634 9.79932 13.4753 9.68738 13.4753 9.54932C13.4753 9.41125 13.3634 9.29932 13.2253 9.29932Z" fill="#434343"/>
<path d="M11.7253 10.7446H7.2749C7.13684 10.7446 7.0249 10.8566 7.0249 10.9946C7.0249 11.1327 7.13684 11.2446 7.2749 11.2446H11.7253C11.8634 11.2446 11.9753 11.1327 11.9753 10.9946C11.9753 10.8566 11.8634 10.7446 11.7253 10.7446Z" fill="#434343"/>
<path d="M10.4753 12.1899H7.2749C7.13684 12.1899 7.0249 12.3019 7.0249 12.4399C7.0249 12.578 7.13684 12.6899 7.2749 12.6899H10.4753C10.6134 12.6899 10.7253 12.578 10.7253 12.4399C10.7253 12.3019 10.6134 12.1899 10.4753 12.1899Z" fill="#434343"/>
<path d="M9.22534 13.6353H7.2749C7.13684 13.6353 7.0249 13.7472 7.0249 13.8853C7.0249 14.0233 7.13684 14.1353 7.2749 14.1353H9.22534C9.36341 14.1353 9.47534 14.0233 9.47534 13.8853C9.47534 13.7472 9.36341 13.6353 9.22534 13.6353Z" fill="#434343"/>
<path d="M16.9316 8.12817L18.6991 9.89567L17.6282 10.9666L15.8607 9.1991L16.9316 8.12817Z" fill="#FAA629"/>
<path d="M17.7531 9.45103L18.4498 10.1476L18.6998 9.89764L16.932 8.12988L15.8608 9.20104L16.1108 9.45104C16.5643 8.99753 17.2996 8.99752 17.7531 9.45103Z" fill="#F78C1E"/>
<path d="M15.861 9.20093L9.85059 15.2113L10.7345 16.0952L16.7449 10.0848L15.861 9.20093Z" fill="#F47C20"/>
<path d="M10.7329 16.0947L16.7424 10.0852L17.6262 10.969L11.6167 16.9785L10.7329 16.0947Z" fill="#F78C1E"/>
<path d="M20.1036 7.78669L19.0429 6.72604C18.8477 6.53077 18.5311 6.53077 18.3358 6.72604L16.9321 8.12974L18.6999 9.89752L20.1036 8.4938C20.2989 8.29855 20.2989 7.98196 20.1036 7.78669Z" fill="#EC417A"/>
<path d="M17.2752 8.28669C18.0562 7.50564 19.3225 7.50564 20.1036 8.28669C20.1351 8.31815 20.1596 8.35351 20.1809 8.39025C20.2919 8.19895 20.2674 7.95049 20.1036 7.78669L19.0429 6.72604C18.8477 6.53077 18.5311 6.53077 18.3358 6.72604L16.9321 8.12974L17.1821 8.37974L17.2752 8.28669Z" fill="#D81B61"/>
<path d="M9.32031 17.5095L11.6184 16.9792L9.85065 15.2114L9.32031 17.5095Z" fill="#434343"/>
<path d="M11.1351 16.9959L11.2122 17.0729L11.6184 16.9792L9.85065 15.2114L9.32031 17.5095L9.44218 17.4814C9.62 16.7109 10.5759 16.4367 11.1351 16.9959Z" fill="#212121"/>
</g>
<defs>
<clipPath id="clip0_1790_4324">
<rect width="16" height="16" fill="white" transform="translate(5 4)"/>
</clipPath>
</defs>
</svg>
