<svg width="24" height="24" viewBox="0 0 24 24" fill="none" xmlns="http://www.w3.org/2000/svg">
<circle cx="12" cy="12" r="12" fill="#D08D0F"/>
<path d="M9.5 10.5H14.5V13.5H9.5V10.5Z" fill="#584CE6"/>
<path d="M4.75 10.75H7.25V13.25H4.75V10.75ZM5 16.25H7.5V18.75H5V16.25Z" fill="#FFEFD0"/>
<path d="M16.5 16.25H19V18.75H16.5V16.25ZM16.75 10.75H19.25V13.25H16.75V10.75Z" fill="#C6FFC7"/>
<path d="M4.75 5.25H7.25V7.75H4.75V5.25Z" fill="#FFEFD0"/>
<path d="M16.5 5.25H19V7.75H16.5V5.25Z" fill="#C6FFC7"/>
<path d="M19.25 10.5H16.75C16.6837 10.5 16.6201 10.5263 16.5732 10.5732C16.5263 10.6201 16.5 10.6837 16.5 10.75V11.75H14.75V10.5C14.75 10.4337 14.7237 10.3701 14.6768 10.3232C14.6299 10.2763 14.5663 10.25 14.5 10.25V7.25C14.5 7.11739 14.5527 6.99021 14.6464 6.89645C14.7402 6.80268 14.8674 6.75 15 6.75H16.25V7.75C16.25 7.8163 16.2763 7.87989 16.3232 7.92678C16.3701 7.97366 16.4337 8 16.5 8H19C19.0663 8 19.1299 7.97366 19.1768 7.92678C19.2237 7.87989 19.25 7.8163 19.25 7.75V5.25C19.25 5.1837 19.2237 5.12011 19.1768 5.07322C19.1299 5.02634 19.0663 5 19 5H16.5C16.4337 5 16.3701 5.02634 16.3232 5.07322C16.2763 5.12011 16.25 5.1837 16.25 5.25V6.25H15C14.7348 6.25 14.4804 6.35536 14.2929 6.54289C14.1054 6.73043 14 6.98478 14 7.25V10.25H10V7.31C10.0061 7.03734 9.90458 6.77326 9.71743 6.57488C9.53028 6.3765 9.27255 6.25979 9 6.25H7.5V5.25C7.5 5.1837 7.47366 5.12011 7.42678 5.07322C7.37989 5.02634 7.3163 5 7.25 5H4.75C4.6837 5 4.62011 5.02634 4.57322 5.07322C4.52634 5.12011 4.5 5.1837 4.5 5.25V7.75C4.5 7.8163 4.52634 7.87989 4.57322 7.92678C4.62011 7.97366 4.6837 8 4.75 8H7.25C7.3163 8 7.37989 7.97366 7.42678 7.92678C7.47366 7.87989 7.5 7.8163 7.5 7.75V6.75H9C9.14017 6.75902 9.27117 6.8228 9.36471 6.92758C9.45826 7.03235 9.50685 7.16971 9.5 7.31V10.25C9.4337 10.25 9.37011 10.2763 9.32322 10.3232C9.27634 10.3701 9.25 10.4337 9.25 10.5V11.75H7.5V10.75C7.5 10.6837 7.47366 10.6201 7.42678 10.5732C7.37989 10.5263 7.3163 10.5 7.25 10.5H4.75C4.6837 10.5 4.62011 10.5263 4.57322 10.5732C4.52634 10.6201 4.5 10.6837 4.5 10.75V13.25C4.5 13.3163 4.52634 13.3799 4.57322 13.4268C4.62011 13.4737 4.6837 13.5 4.75 13.5H7.25C7.3163 13.5 7.37989 13.4737 7.42678 13.4268C7.47366 13.3799 7.5 13.3163 7.5 13.25V12.25H9.25V13.5C9.25 13.5663 9.27634 13.6299 9.32322 13.6768C9.37011 13.7237 9.4337 13.75 9.5 13.75V16.6975C9.5 16.844 9.44179 16.9846 9.33818 17.0882C9.23456 17.1918 9.09403 17.25 8.9475 17.25H7.75V16.25C7.75 16.1837 7.72366 16.1201 7.67678 16.0732C7.62989 16.0263 7.5663 16 7.5 16H5C4.9337 16 4.87011 16.0263 4.82322 16.0732C4.77634 16.1201 4.75 16.1837 4.75 16.25V18.75C4.75 18.8163 4.77634 18.8799 4.82322 18.9268C4.87011 18.9737 4.9337 19 5 19H7.5C7.5663 19 7.62989 18.9737 7.67678 18.9268C7.72366 18.8799 7.75 18.8163 7.75 18.75V17.75H8.9475C9.22644 17.7493 9.49376 17.6382 9.691 17.441C9.88824 17.2438 9.99934 16.9764 10 16.6975V13.75H14V16.8125C14 17.0611 14.0988 17.2996 14.2746 17.4754C14.4504 17.6512 14.6889 17.75 14.9375 17.75H16.25V18.75C16.25 18.8163 16.2763 18.8799 16.3232 18.9268C16.3701 18.9737 16.4337 19 16.5 19H19C19.0663 19 19.1299 18.9737 19.1768 18.9268C19.2237 18.8799 19.25 18.8163 19.25 18.75V16.25C19.25 16.1837 19.2237 16.1201 19.1768 16.0732C19.1299 16.0263 19.0663 16 19 16H16.5C16.4337 16 16.3701 16.0263 16.3232 16.0732C16.2763 16.1201 16.25 16.1837 16.25 16.25V17.25H14.9375C14.8217 17.2493 14.7108 17.203 14.6289 17.1211C14.547 17.0392 14.5007 16.9283 14.5 16.8125V13.75C14.5663 13.75 14.6299 13.7237 14.6768 13.6768C14.7237 13.6299 14.75 13.5663 14.75 13.5V12.25H16.5V13.25C16.5 13.3163 16.5263 13.3799 16.5732 13.4268C16.6201 13.4737 16.6837 13.5 16.75 13.5H19.25C19.3163 13.5 19.3799 13.4737 19.4268 13.4268C19.4737 13.3799 19.5 13.3163 19.5 13.25V10.75C19.5 10.6837 19.4737 10.6201 19.4268 10.5732C19.3799 10.5263 19.3163 10.5 19.25 10.5ZM16.75 5.5H18.75V7.5H16.75V5.5ZM7 7.5H5V5.5H7V7.5ZM7 13H5V11H7V13ZM7.25 18.5H5.25V16.5H7.25V18.5ZM16.75 16.5H18.75V18.5H16.75V16.5ZM14.25 13.25H9.75V10.75H14.25V13.25ZM19 13H17V11H19V13Z" fill="#1C1C1C"/>
</svg>
