<svg xmlns="http://www.w3.org/2000/svg" version="1.1" xmlns:xlink="http://www.w3.org/1999/xlink" width="512" height="512" x="0" y="0" viewBox="0 0 24 24" style="enable-background:new 0 0 512 512" xml:space="preserve" class=""><g><g fill="#000"><path d="M14 4a2 2 0 1 1-4 0 2 2 0 0 1 4 0z" fill="#ffffff" opacity="1" data-original="#000000"></path><path fill-rule="evenodd" d="M12 2.75a1.25 1.25 0 1 0 0 2.5 1.25 1.25 0 0 0 0-2.5zM9.25 4a2.75 2.75 0 1 1 5.5 0 2.75 2.75 0 0 1-5.5 0z" clip-rule="evenodd" fill="#ffffff" opacity="1" data-original="#000000"></path><path d="M14 12a2 2 0 1 1-4 0 2 2 0 0 1 4 0z" fill="#ffffff" opacity="1" data-original="#000000"></path><path fill-rule="evenodd" d="M12 10.75a1.25 1.25 0 1 0 0 2.5 1.25 1.25 0 0 0 0-2.5zM9.25 12a2.75 2.75 0 1 1 5.5 0 2.75 2.75 0 0 1-5.5 0z" clip-rule="evenodd" fill="#ffffff" opacity="1" data-original="#000000"></path><path d="M14 20a2 2 0 1 1-4 0 2 2 0 0 1 4 0z" fill="#ffffff" opacity="1" data-original="#000000"></path><path fill-rule="evenodd" d="M12 18.75a1.25 1.25 0 1 0 0 2.5 1.25 1.25 0 0 0 0-2.5zM9.25 20a2.75 2.75 0 1 1 5.5 0 2.75 2.75 0 0 1-5.5 0z" clip-rule="evenodd" fill="#ffffff" opacity="1" data-original="#000000"></path></g></g></svg>