<svg clip-rule="evenodd" fill-rule="evenodd" height="1.707in" image-rendering="optimizeQuality" shape-rendering="geometricPrecision" text-rendering="geometricPrecision" viewBox="0 0 1707 1707" width="1.707in" xmlns="http://www.w3.org/2000/svg"><g id="Layer_x0020_1"><g id="_442877280"><g fill="#263b7e"><path d="m302 670h-86v-178h86z"/><path d="m1405 418h86v168h-86z"/><path d="m1405 670h86v168h-86z"/></g><path d="m538 0h630c138 0 251 112 251 250v1206c0 138-113 251-251 251h-630c-137 0-250-113-250-251v-1206c0-138 113-250 250-250z" fill="#2a428c"/><path d="m538 86h43l35 74c23 49 44 99 98 99h278c54 0 76-50 99-99l34-74h43c91 0 164 74 164 164v1206c0 91-73 165-164 165h-630c-90 0-164-74-164-165v-1206c0-90 74-164 164-164z" fill="#5ddcf9"/><path d="m552 1502c-10 0-17-8-17-17s7-17 17-17h603c9 0 17 8 17 17s-8 17-17 17z" fill="#95e9fb"/><g fill="#3c58a0"><circle cx="767" cy="172" r="38"/><path d="m876 189c-10 0-17-7-17-17 0-9 7-17 17-17h102c9 0 17 8 17 17 0 10-8 17-17 17z" fill-rule="nonzero"/></g></g><g id="_442876152"><circle cx="853" cy="853" fill="#f73b6c" r="378"/><circle cx="853" cy="853" fill="#fff" r="286"/><path d="m733 672 298 174-298 174z" fill="#f73b6c"/></g></g></svg>