<svg id="Layer_1" enable-background="new 0 0 68 68" viewBox="0 0 68 68" xmlns="http://www.w3.org/2000/svg"><g><g><g><path d="m66.0013351 29.8031006v17.1098633c0 6.1801758-5.0102539 11.1899414-11.1901855 11.1899414h-23.7299805c-.6298828 0-1.25.1899414-1.7800293.5302734l-9.8598633 6.5c-2.1401367 1.4199219-5.000001-.1201172-5.000001-2.6904297v-32.6499023c0-6.1801758 5.0100107-11.1899414 11.1899424-11.1899414h29.1699219c6.1899414 0 11.2001953 5.0097656 11.2001953 11.2001953z" fill="#e9293a"/></g></g><g><g><path d="m14.4412756 38.5702477v23.8725013c0 2.5703125 2.8598642 4.1103516 5.000001 2.6904297l9.8598633-6.5c.5300293-.340332 1.1501465-.5302734 1.7800293-.5302734h23.7299805c6.1799316 0 11.1901855-5.0097656 11.1901855-11.1899414v-8.3427162z" fill="#d42032"/></g></g><g><g><g><g><g><g><g><g><g><path d="m46.2125702 23.2005959c-.1516151.2481651-.3714828.4131126-.619278.4926682-.3170319.091526-.6646156.0559349-.9566002-.1339188l-1.9501991-1.2328949-.8867149 2.1123981c-.1364326.3273945-.4080238.5612583-.7125397.6590214-.2477951.0795555-.5225906.0734177-.7903252-.0401173-.5823822-.243803-.8498116-.9138546-.6062393-1.4961624l1.2411118-3.003624-2.9288979-9.3521471-1.4810257-4.7440848c-.1861458-.612556.1466103-1.244523.7558746-1.4401259.5999641-.1926174 1.2445221.1466107 1.4400482.7556419l1.1636848 3.7228737 3.2465363 10.3742886 2.7351875 1.7475548c.5304643.3440608.6841394 1.0511474.3493768 1.5786285z" fill="#fabb53"/></g></g></g><g><g><path d="m37.8008461 20.1832542-10.3060493 9.8913765c-.6084023.5914803-1.462532.8590794-2.2998447.720541l-14.1096754-2.2497444c-1.3680944-.220829-2.3530617-1.4198017-2.2818003-2.8048477l.2401619-4.8375149.1467171-2.8841476 10.9640675-7.3556538-.0022335-.0071297 13.1889324-.2036648 1.7683983 2.2919703 2.9575958 3.8360491c.8389853 1.0916424.7237662 2.6431332-.2662698 3.602766z" fill="#454545"/></g></g><g><g><path d="m38.068161 16.5782032-4.723114-6.1238327-13.196003.1992245.0022335.0071297-.137188.0919151 6.2615662 19.9858093c.4518604-.1133823.876236-.3301144 1.2197437-.6612682l10.3042908-9.8919983c.9904557-.9601555 1.1065407-2.5170079.2684708-3.6069794z" fill="#2c2c2c"/></g></g><g><g><path d="m35.10952 12.7444391-10.4935189 8.7557249c-.5479755.4519749-1.2488194.6715508-1.9492435.6106987l-13.6231194-1.207798.1467171-2.8841476 10.9640675-7.3556538-.0022335-.0071297 13.1889324-.2036648z" fill="#0c0c0c"/></g></g><g><g><path d="m38.7177849 5.7772503 1.1636848 3.7228737c-.1990356.2633896-.4359131.5071344-.7005768.7290287l-1.1780052.9766665-1.4810257-4.7440849c-.1861458-.612556.1466103-1.244523.7558746-1.4401259.5999642-.1926175 1.2445222.1466107 1.4400483.7556419z" fill="#f99944"/></g></g><g><g><path d="m37.8965797 8.6926365-13.7096614 11.4384575c-.547863.4523315-1.2487068.6719055-1.9492435.6106987l-17.7953597-1.5761395c-2.3748879-.2099667-3.3081365-3.1887302-1.4849136-4.7139673l13.6986501-11.4992099c.5455189-.4598186 1.2536716-.6816831 1.9640388-.615334l17.8040237 1.6294055c2.3696328.2194419 3.3028833 3.1982055 1.4724656 4.726089z" fill="#454545"/></g></g><g><g><path d="m36.4240303 3.9664259-17.8040218-1.6294055c-.4082928-.0380661-.8121185.02934-1.1886578.1719728l5.6869411 18.1517086c.3864651-.0972004.7539787-.2698898 1.0685463-.5297298l13.7096577-11.4384576c1.8304215-1.5278826.897171-4.5066466-1.4724655-4.7260885z" fill="#2c2c2c"/></g></g><g><g><ellipse cx="20.421" cy="11.539" fill="#e8edf2" rx="3.092" ry="2.104" transform="matrix(.954 -.299 .299 .954 -2.516 6.633)"/></g></g><g><g><path d="m23.37117 10.6176958c.3453331 1.1022425-.6924629 2.4217262-2.3205166 2.9317961-1.1899357.3728085-2.3702774.2133379-3.0475464-.3358889.5026073.0429668 1.0552197-.009984 1.6173916-.1861134 1.6280537-.5100698 2.6681957-1.8220682 2.3205166-2.931797-.0938168-.2994442-.2780552-.5545092-.5310001-.7477274.9639187.0828228 1.7324219.5396548 1.9611549 1.2697306z" fill="#c4d3e4"/></g></g></g><g><g><g><path d="m7.2245808 11.9976263 5.8917198-4.9801283c.2336607-.1975079.5347242-.2915497.8258553-.2671385.291131.0244107.5840273.1573873.7914228.4027457.4099674.4850106.3434124 1.2123752-.1356068 1.6172786l-5.8917198 4.9801273c-.4850111.4099674-1.2073107.3494034-1.6172786-.1356068-.4098468-.4848679-.3494034-1.2073106.1356073-1.617278z" fill="#7d7d7d"/></g></g></g></g></g></g></g></g><g><g><g><circle cx="40.221" cy="38.353" fill="#e8edf2" r="12.445"/></g></g><g><g><path d="m27.7845383 38.5194092c.090332 6.7954102 5.619873 12.2788086 12.4367676 12.2788086s12.3464355-5.4833984 12.4367676-12.2788086z" fill="#c4d3e4"/></g></g><g><g><g><path d="m31.0626907 36.8529053c.4732208 0 .9094467-.3004341 1.036171-.7563744.9891701-3.5588875 4.2524681-6.1806374 8.1224442-6.1806374.6040039 0 1.0932617-.4892578 1.0932617-1.0927734 0-.6040039-.4892578-1.0932617-1.0932617-1.0932617-4.8649635 0-8.9664211 3.2904816-10.21838 7.7610016-.1919174.6852989.3480988 1.3620453 1.059763 1.3620453z" fill="#fff"/></g></g></g><g><g><path d="m44.6878548 40.433342-5.3173714 3.0193062c-1.5958366.9066963-3.5747337-.2424927-3.5747337-2.074585v-6.0448456c0-1.8320961 1.9788971-2.9875145 3.5683441-2.081131l5.323761 3.0193062c1.6148452.9191628 1.6148452 3.2427864 0 4.1619492z" fill="#e9293a"/></g></g><g><g><path d="m35.7956886 38.5702477v2.8076248c0 1.8322487 1.9788628 2.9812775 3.5748291 2.0745811l5.3174095-3.0189972c.7344666-.4181175 1.1173553-1.1283875 1.1837196-1.8632088h-10.0759582z" fill="#d42032"/></g></g></g></g></svg>