<svg xmlns="http://www.w3.org/2000/svg" version="1.1" xmlns:xlink="http://www.w3.org/1999/xlink" width="512" height="512" x="0" y="0" viewBox="0 0 24 24" style="enable-background:new 0 0 512 512" xml:space="preserve"><g><path d="M10 9H5c-.6 0-1-.4-1-1V3c0-.6.4-1 1-1s1 .4 1 1v4h4c.6 0 1 .4 1 1s-.4 1-1 1z" fill="#ffffff" opacity="1" data-original="#000000"></path><path d="M12 21c-1.1 0-2.2-.2-3.2-.6-1.8-.7-3.3-1.9-4.4-3.5-.3-.5-.2-1.1.3-1.4s1.1-.2 1.4.3c.8 1.2 2 2.2 3.4 2.7s2.9.6 4.4.2c1.4-.4 2.7-1.3 3.6-2.5s1.4-2.6 1.5-4.1c0-1.5-.4-3-1.3-4.2s-2.1-2.1-3.5-2.6-2.9-.5-4.4 0c-1.4.5-2.6 1.4-3.5 2.6-.3.5-.9.6-1.4.3s-.6-1-.2-1.4C5.8 5.2 7.4 4 9.2 3.4s3.8-.6 5.6 0 3.4 1.8 4.5 3.4 1.7 3.4 1.6 5.4c0 1.9-.7 3.8-1.9 5.3s-2.8 2.6-4.7 3.2c-.6.2-1.5.3-2.3.3z" fill="#ffffff" opacity="1" data-original="#000000"></path></g></svg>