<svg width="24" height="24" viewBox="0 0 24 24" fill="none" xmlns="http://www.w3.org/2000/svg">
<g clip-path="url(#clip0_1242_1568)">
<path d="M12 24C18.6274 24 24 18.6274 24 12C24 5.37258 18.6274 0 12 0C5.37258 0 0 5.37258 0 12C0 18.6274 5.37258 24 12 24Z" fill="#3757F1"/>
<path d="M12.0001 6.29999C8.2001 6.29999 4.9001 8.69999 3.6001 12C4.9001 15.4 8.2001 17.7 12.0001 17.7C15.8001 17.7 19.1001 15.3 20.4001 12C19.1001 8.59999 15.8001 6.29999 12.0001 6.29999ZM12.0001 15.8C9.9001 15.8 8.2001 14.1 8.2001 12C8.2001 9.89999 9.9001 8.19999 12.0001 8.19999C14.1001 8.19999 15.8001 9.89999 15.8001 12C15.8001 14.1 14.1001 15.8 12.0001 15.8ZM12.0001 9.69999C10.7001 9.69999 9.7001 10.7 9.7001 12C9.7001 13.3 10.7001 14.3 12.0001 14.3C13.3001 14.3 14.3001 13.3 14.3001 12C14.3001 10.7 13.3001 9.69999 12.0001 9.69999Z" fill="white"/>
</g>
<defs>
<clipPath id="clip0_1242_1568">
<rect width="24" height="24" fill="white"/>
</clipPath>
</defs>
</svg>
