<svg width="30" height="30" viewBox="0 0 30 30" fill="none" xmlns="http://www.w3.org/2000/svg">
<g clip-path="url(#clip0_1705_4040)">
<path d="M27.5697 4.89313V28.8114C27.5697 29.267 27.2005 29.6362 26.745 29.6362H10.5738C10.1183 29.6362 9.74902 29.267 9.74902 28.8114V4.89313C9.74902 4.43762 10.1183 4.06836 10.5738 4.06836H26.745C27.2005 4.06836 27.5697 4.43762 27.5697 4.89313Z" fill="#45D76E"/>
<path d="M25.1674 1.16266V25.081C25.1674 25.5365 24.7981 25.9057 24.3426 25.9057H8.17145C7.71594 25.9057 7.34668 25.5365 7.34668 25.081V1.16266C7.34668 0.707148 7.71594 0.337891 8.17145 0.337891H24.3426C24.7981 0.337891 25.1674 0.707148 25.1674 1.16266Z" fill="white"/>
<path d="M13.1238 4.39777C13.1238 5.43799 12.2788 6.27992 11.2416 6.27992C10.2014 6.27992 9.35645 5.43799 9.35645 4.39777C9.35645 3.35756 10.2014 2.51562 11.2416 2.51562C12.2788 2.51562 13.1238 3.35756 13.1238 4.39777ZM13.1238 10.2143C13.1238 11.2545 12.2788 12.0965 11.2416 12.0965C10.2014 12.0965 9.35645 11.2545 9.35645 10.2143C9.35645 9.1741 10.2014 8.33217 11.2416 8.33217C12.2788 8.33223 13.1238 9.17416 13.1238 10.2143ZM13.1238 16.0309C13.1238 17.0711 12.2788 17.9131 11.2416 17.9131C10.2014 17.9131 9.35645 17.0711 9.35645 16.0309C9.35645 14.9907 10.2014 14.1488 11.2416 14.1488C12.2788 14.1488 13.1238 14.9908 13.1238 16.0309ZM13.1238 21.8475C13.1238 22.8877 12.2788 23.7297 11.2416 23.7297C10.2014 23.7297 9.35645 22.8877 9.35645 21.8475C9.35645 20.8073 10.2014 19.9654 11.2416 19.9654C12.2788 19.9654 13.1238 20.8073 13.1238 21.8475Z" fill="#FFABCA"/>
<path d="M2.42969 10.0645H5.33154V25.8518H2.42969V10.0645Z" fill="#4DABF5"/>
<path d="M2.42871 10.0642L3.88131 6.54883L5.33396 10.0643L2.42871 10.0642Z" fill="#FACA42"/>
<path d="M2.42969 25.8516V27.4057C2.42969 27.904 2.83363 28.308 3.33197 28.308L4.42932 28.308C4.9276 28.308 5.3316 27.9041 5.3316 27.4058V25.8517L2.42969 25.8516Z" fill="#B7BBBA"/>
<path d="M24.3429 0H8.17188C7.53045 0 7.00879 0.521602 7.00879 1.16309V25.0812C7.00879 25.7227 7.53039 26.2447 8.17188 26.2447H9.41072V28.837C9.41072 29.4784 9.93232 30.0001 10.5738 30.0001H26.7448C27.3862 30.0001 27.9083 29.4785 27.9083 28.837V4.91877C27.9083 4.27734 27.3862 3.75527 26.7448 3.75527H25.506V1.16309C25.506 0.521602 24.9844 0 24.3429 0ZM8.17188 25.568C7.90357 25.568 7.68549 25.3495 7.68549 25.0812V1.16309C7.68549 0.894785 7.90357 0.676699 8.17188 0.676699H24.3429C24.6112 0.676699 24.8293 0.894785 24.8293 1.16309V25.0812C24.8293 25.3495 24.6112 25.568 24.3429 25.568H8.17188ZM26.7448 4.43197C27.0131 4.43197 27.2316 4.65047 27.2316 4.91877V28.8369C27.2316 29.1052 27.0131 29.3233 26.7448 29.3233H10.5738C10.3055 29.3233 10.0874 29.1052 10.0874 28.8369V26.2447H24.3429C24.9843 26.2447 25.506 25.7227 25.506 25.0812V4.43197H26.7448Z" fill="#3E3E3E"/>
<path d="M11.2425 2.17578C10.0164 2.17578 9.01855 3.17187 9.01855 4.39619C9.01855 5.62092 10.0164 6.61701 11.2425 6.61701C12.4668 6.61701 13.4629 5.62092 13.4629 4.39619C13.4629 3.17187 12.4668 2.17578 11.2425 2.17578ZM11.2425 5.94031C10.3891 5.94031 9.69525 5.24773 9.69525 4.39619C9.69525 3.54506 10.3891 2.85248 11.2425 2.85248C12.0936 2.85248 12.7862 3.54506 12.7862 4.39619C12.7862 5.24779 12.0937 5.94031 11.2425 5.94031Z" fill="#3E3E3E"/>
<path d="M11.706 3.67494L10.9782 4.40273L10.7755 4.20053C10.7441 4.1691 10.7068 4.14418 10.6657 4.12717C10.6247 4.11016 10.5807 4.10141 10.5363 4.10141C10.4919 4.10141 10.4479 4.11016 10.4068 4.12717C10.3658 4.14418 10.3285 4.1691 10.2971 4.20053C10.1649 4.33271 10.1649 4.54723 10.2971 4.67895L10.7389 5.12039C10.7703 5.15185 10.8076 5.1768 10.8487 5.19381C10.8897 5.21082 10.9337 5.21956 10.9782 5.21953C11.0226 5.2196 11.0666 5.21088 11.1077 5.19387C11.1487 5.17685 11.186 5.15188 11.2174 5.12039L12.1844 4.15336C12.2472 4.08977 12.2823 4.00393 12.282 3.91458C12.2817 3.82523 12.2461 3.73962 12.1829 3.67645C12.1197 3.61327 12.0341 3.57765 11.9447 3.57737C11.8554 3.57709 11.7695 3.61216 11.706 3.67494ZM23.1573 2.76562H14.7282C14.6395 2.76727 14.5551 2.80364 14.493 2.86691C14.4309 2.93018 14.3961 3.01529 14.3961 3.10395C14.3961 3.1926 14.4309 3.27771 14.493 3.34098C14.5551 3.40425 14.6395 3.44062 14.7282 3.44227H23.1573C23.2459 3.44062 23.3304 3.40425 23.3925 3.34098C23.4546 3.27771 23.4894 3.1926 23.4894 3.10395C23.4894 3.01529 23.4546 2.93018 23.3925 2.86691C23.3304 2.80364 23.2459 2.76727 23.1573 2.76562ZM23.1573 4.05914H14.7282C14.6395 4.06079 14.5551 4.09716 14.493 4.16043C14.4309 4.2237 14.3961 4.30881 14.3961 4.39746C14.3961 4.48611 14.4309 4.57123 14.493 4.63449C14.5551 4.69776 14.6395 4.73413 14.7282 4.73578H23.1573C23.2459 4.73413 23.3304 4.69776 23.3925 4.63449C23.4546 4.57123 23.4894 4.48611 23.4894 4.39746C23.4894 4.30881 23.4546 4.2237 23.3925 4.16043C23.3304 4.09716 23.2459 4.06079 23.1573 4.05914ZM14.7282 6.02971H19.9197C20.0083 6.02806 20.0928 5.99169 20.1549 5.92842C20.217 5.86515 20.2518 5.78004 20.2518 5.69139C20.2518 5.60273 20.217 5.51762 20.1549 5.45435C20.0928 5.39109 20.0083 5.35472 19.9197 5.35307H14.7282C14.6395 5.35472 14.5551 5.39109 14.493 5.45435C14.4309 5.51762 14.3961 5.60273 14.3961 5.69139C14.3961 5.78004 14.4309 5.86515 14.493 5.92842C14.5551 5.99169 14.6395 6.02806 14.7282 6.02971ZM11.2425 7.99371C10.0164 7.99371 9.01855 8.9898 9.01855 10.2141C9.01855 11.4388 10.0164 12.4349 11.2425 12.4349C12.4668 12.4349 13.4629 11.4388 13.4629 10.2141C13.4629 8.9898 12.4668 7.99371 11.2425 7.99371ZM11.2425 11.7582C10.3891 11.7582 9.69525 11.0657 9.69525 10.2141C9.69525 9.36299 10.3891 8.67041 11.2425 8.67041C12.0936 8.67041 12.7862 9.36299 12.7862 10.2141C12.7862 11.0657 12.0937 11.7582 11.2425 11.7582Z" fill="#3E3E3E"/>
<path d="M11.706 9.49135L10.9782 10.2191L10.7755 10.0165C10.7441 9.98503 10.7068 9.9601 10.6658 9.94309C10.6247 9.92608 10.5807 9.91732 10.5363 9.91732C10.4918 9.91732 10.4479 9.92608 10.4068 9.94309C10.3658 9.9601 10.3285 9.98503 10.2971 10.0165C10.2656 10.0479 10.2407 10.0852 10.2237 10.1262C10.2067 10.1672 10.1979 10.2112 10.1979 10.2557C10.1979 10.3001 10.2067 10.3441 10.2237 10.3851C10.2407 10.4262 10.2656 10.4635 10.2971 10.4949L10.7389 10.9367C10.805 11.0028 10.8914 11.0359 10.9782 11.0359C11.0649 11.0359 11.1513 11.0028 11.2174 10.9367L12.1844 9.96971C12.2479 9.90626 12.2835 9.82021 12.2835 9.73049C12.2835 9.64077 12.2478 9.55472 12.1844 9.49129C12.1209 9.42785 12.0349 9.39222 11.9452 9.39223C11.8554 9.39225 11.7694 9.4279 11.706 9.49135ZM23.1573 8.58203H14.7282C14.6395 8.58368 14.5551 8.62005 14.493 8.68332C14.4309 8.74659 14.3961 8.8317 14.3961 8.92035C14.3961 9.009 14.4309 9.09412 14.493 9.15738C14.5551 9.22065 14.6395 9.25702 14.7282 9.25867H23.1573C23.2459 9.25702 23.3304 9.22065 23.3925 9.15738C23.4546 9.09412 23.4894 9.009 23.4894 8.92035C23.4894 8.8317 23.4546 8.74659 23.3925 8.68332C23.3304 8.62005 23.2459 8.58368 23.1573 8.58203ZM23.1573 9.87549H14.7282C14.6395 9.87714 14.5551 9.91351 14.493 9.97678C14.4309 10.04 14.3961 10.1252 14.3961 10.2138C14.3961 10.3025 14.4309 10.3876 14.493 10.4508C14.5551 10.5141 14.6395 10.5505 14.7282 10.5521H23.1573C23.2459 10.5505 23.3304 10.5141 23.3925 10.4508C23.4546 10.3876 23.4894 10.3025 23.4894 10.2138C23.4894 10.1252 23.4546 10.04 23.3925 9.97678C23.3304 9.91351 23.2459 9.87714 23.1573 9.87549ZM14.7282 11.8461H19.9197C20.0083 11.8445 20.0928 11.8081 20.1549 11.7448C20.217 11.6816 20.2518 11.5964 20.2518 11.5078C20.2518 11.4191 20.217 11.334 20.1549 11.2708C20.0928 11.2075 20.0083 11.1711 19.9197 11.1695H14.7282C14.6395 11.1711 14.5551 11.2075 14.493 11.2708C14.4309 11.334 14.3961 11.4191 14.3961 11.5078C14.3961 11.5964 14.4309 11.6816 14.493 11.7448C14.5551 11.8081 14.6395 11.8445 14.7282 11.8461ZM11.2425 13.8101C10.0164 13.8101 9.01855 14.8062 9.01855 16.0305C9.01855 17.2548 10.0164 18.2509 11.2425 18.2509C12.4668 18.2509 13.4629 17.2548 13.4629 16.0305C13.4629 14.8062 12.4668 13.8101 11.2425 13.8101ZM11.2425 17.5742C10.3891 17.5742 9.69525 16.8816 9.69525 16.0305C9.69525 15.1793 10.3891 14.4868 11.2425 14.4868C12.0936 14.4868 12.7862 15.1793 12.7862 16.0305C12.7862 16.8817 12.0937 17.5742 11.2425 17.5742Z" fill="#3E3E3E"/>
<path d="M11.706 15.3078L10.9782 16.0355L10.7755 15.8329C10.7441 15.8014 10.7068 15.7765 10.6658 15.7595C10.6247 15.7425 10.5807 15.7337 10.5363 15.7337C10.4918 15.7337 10.4479 15.7425 10.4068 15.7595C10.3658 15.7765 10.3285 15.8014 10.2971 15.8329C10.2656 15.8643 10.2407 15.9016 10.2237 15.9426C10.2067 15.9837 10.1979 16.0276 10.1979 16.0721C10.1979 16.1165 10.2067 16.1605 10.2237 16.2016C10.2407 16.2426 10.2656 16.2799 10.2971 16.3113L10.7389 16.7531C10.805 16.8192 10.8914 16.8523 10.9782 16.8523C11.0649 16.8523 11.1513 16.8192 11.2174 16.7531L12.1844 15.7861C12.2158 15.7547 12.2408 15.7174 12.2578 15.6764C12.2747 15.6353 12.2835 15.5913 12.2835 15.5469C12.2835 15.5025 12.2747 15.4585 12.2577 15.4174C12.2407 15.3764 12.2158 15.3391 12.1844 15.3077C12.153 15.2763 12.1157 15.2514 12.0746 15.2344C12.0336 15.2174 11.9896 15.2086 11.9452 15.2086C11.9007 15.2086 11.8567 15.2174 11.8157 15.2344C11.7747 15.2514 11.7374 15.2763 11.706 15.3078ZM23.1573 14.3984H14.7282C14.6395 14.4001 14.5551 14.4365 14.493 14.4997C14.4309 14.563 14.3961 14.6481 14.3961 14.7368C14.3961 14.8254 14.4309 14.9105 14.493 14.9738C14.5551 15.0371 14.6395 15.0734 14.7282 15.0751H23.1573C23.2459 15.0734 23.3304 15.0371 23.3925 14.9738C23.4546 14.9105 23.4894 14.8254 23.4894 14.7368C23.4894 14.6481 23.4546 14.563 23.3925 14.4997C23.3304 14.4365 23.2459 14.4001 23.1573 14.3984ZM23.1573 15.6919H14.7282C14.6395 15.6935 14.5551 15.7299 14.493 15.7932C14.4309 15.8564 14.3961 15.9416 14.3961 16.0302C14.3961 16.1189 14.4309 16.204 14.493 16.2672C14.5551 16.3305 14.6395 16.3669 14.7282 16.3685H23.1573C23.2459 16.3669 23.3304 16.3305 23.3925 16.2672C23.4546 16.204 23.4894 16.1189 23.4894 16.0302C23.4894 15.9416 23.4546 15.8564 23.3925 15.7932C23.3304 15.7299 23.2459 15.6935 23.1573 15.6919ZM14.7282 17.6625H19.9197C20.0083 17.6609 20.0928 17.6245 20.1549 17.5612C20.217 17.498 20.2518 17.4129 20.2518 17.3242C20.2518 17.2355 20.217 17.1504 20.1549 17.0872C20.0928 17.0239 20.0083 16.9875 19.9197 16.9859H14.7282C14.6395 16.9875 14.5551 17.0239 14.493 17.0872C14.4309 17.1504 14.3961 17.2355 14.3961 17.3242C14.3961 17.4129 14.4309 17.498 14.493 17.5612C14.5551 17.6245 14.6395 17.6609 14.7282 17.6625ZM11.2425 19.6265C10.0164 19.6265 9.01855 20.6226 9.01855 21.8469C9.01855 23.0712 10.0164 24.0673 11.2425 24.0673C12.4668 24.0673 13.4629 23.0712 13.4629 21.8469C13.4629 20.6226 12.4668 19.6265 11.2425 19.6265ZM11.2425 23.3906C10.3891 23.3906 9.69525 22.698 9.69525 21.8469C9.69525 20.9957 10.3891 20.3032 11.2425 20.3032C12.0936 20.3032 12.7862 20.9957 12.7862 21.8469C12.7862 22.698 12.0937 23.3906 11.2425 23.3906Z" fill="#3E3E3E"/>
<path d="M11.7056 21.1248L10.9778 21.853L10.7752 21.6504C10.7438 21.6189 10.7065 21.594 10.6654 21.577C10.6244 21.56 10.5804 21.5512 10.5359 21.5512C10.4915 21.5512 10.4475 21.56 10.4065 21.577C10.3654 21.594 10.3281 21.6189 10.2967 21.6504C10.2653 21.6818 10.2404 21.7191 10.2234 21.7601C10.2063 21.8011 10.1976 21.8451 10.1976 21.8896C10.1976 21.934 10.2063 21.978 10.2234 22.019C10.2404 22.0601 10.2653 22.0974 10.2967 22.1288L10.7386 22.5706C10.77 22.6021 10.8073 22.627 10.8483 22.6441C10.8894 22.6611 10.9334 22.6698 10.9778 22.6698C11.0223 22.6698 11.0663 22.6611 11.1073 22.6441C11.1484 22.627 11.1857 22.6021 11.2171 22.5706L12.1841 21.6032C12.2155 21.5718 12.2405 21.5345 12.2575 21.4935C12.2745 21.4524 12.2832 21.4084 12.2832 21.364C12.2832 21.3196 12.2745 21.2756 12.2575 21.2345C12.2405 21.1935 12.2155 21.1562 12.1841 21.1248C12.1527 21.0933 12.1154 21.0684 12.0743 21.0514C12.0333 21.0344 11.9893 21.0256 11.9449 21.0256C11.9004 21.0256 11.8564 21.0344 11.8154 21.0514C11.7743 21.0684 11.737 21.0933 11.7056 21.1248ZM23.157 20.2155H14.7278C14.6392 20.2171 14.5547 20.2535 14.4926 20.3168C14.4305 20.38 14.3958 20.4651 14.3958 20.5538C14.3958 20.6424 14.4305 20.7275 14.4926 20.7908C14.5547 20.8541 14.6392 20.8905 14.7278 20.8921H23.157C23.2456 20.8905 23.33 20.8541 23.3921 20.7908C23.4542 20.7275 23.489 20.6424 23.489 20.5538C23.489 20.4651 23.4542 20.38 23.3921 20.3168C23.33 20.2535 23.2456 20.2171 23.157 20.2155ZM23.157 21.5094H14.7278C14.6392 21.511 14.5547 21.5474 14.4926 21.6107C14.4305 21.6739 14.3958 21.7591 14.3958 21.8477C14.3958 21.9364 14.4305 22.0215 14.4926 22.0847C14.5547 22.148 14.6392 22.1844 14.7278 22.186H23.157C23.2456 22.1844 23.33 22.148 23.3921 22.0847C23.4542 22.0215 23.489 21.9364 23.489 21.8477C23.489 21.7591 23.4542 21.6739 23.3921 21.6107C23.33 21.5474 23.2456 21.511 23.157 21.5094ZM19.9194 22.8033H14.7278C14.6392 22.8049 14.5547 22.8413 14.4926 22.9045C14.4305 22.9678 14.3958 23.0529 14.3958 23.1416C14.3958 23.2302 14.4305 23.3153 14.4926 23.3786C14.5547 23.4419 14.6392 23.4782 14.7278 23.4799H19.9194C20.008 23.4782 20.0924 23.4419 20.1545 23.3786C20.2166 23.3153 20.2514 23.2302 20.2514 23.1416C20.2514 23.0529 20.2166 22.9678 20.1545 22.9045C20.0924 22.8413 20.008 22.8049 19.9194 22.8033ZM3.33246 28.6472H4.42986C5.11406 28.6472 5.67047 28.0908 5.67047 27.4066C5.68441 3.64169 5.68061 11.8383 5.68061 10.0651C5.68071 9.99522 5.65915 9.92703 5.61891 9.86992L4.19373 6.4208C4.08891 6.16703 3.67301 6.16703 3.56812 6.4208C3.23689 7.22746 2.14682 9.83945 2.10943 9.97785C2.10164 10.0063 2.0918 10.0342 2.0918 10.0651V27.4066C2.09186 28.0908 2.64826 28.6472 3.33246 28.6472ZM3.88096 7.43587L4.82771 9.72677H2.9342L3.88096 7.43587ZM2.76855 10.4034H4.99377V25.514H2.76855V10.4034ZM2.76855 26.1907H4.99377V27.4066C4.99377 27.7176 4.74088 27.9705 4.42986 27.9705H3.33246C3.02145 27.9705 2.76855 27.7176 2.76855 27.4066V26.1907Z" fill="#3E3E3E"/>
</g>
<defs>
<clipPath id="clip0_1705_4040">
<rect width="30" height="30" fill="white"/>
</clipPath>
</defs>
</svg>
