<svg width="30" height="30" viewBox="0 0 30 30" fill="none" xmlns="http://www.w3.org/2000/svg">
<g clip-path="url(#clip0_1706_4081)">
<path d="M29.5605 15C29.5605 22.9764 23.1469 29.4545 15.1951 29.5594C15.0161 29.5613 14.7684 29.5613 14.4404 29.55C6.65859 29.2559 0.439453 22.8539 0.439453 15C0.439453 7.12793 6.68672 0.71543 14.4932 0.448242C14.6613 0.442383 14.8307 0.439453 15 0.439453C15.0627 0.439453 14.9971 0.439453 15.1951 0.440625C23.1469 0.545508 29.5605 7.02363 29.5605 15Z" fill="#BBEC6C"/>
<path d="M29.5605 15C29.5605 22.9764 23.1469 29.4545 15.1951 29.5594C15.0161 29.5613 14.7684 29.5613 14.4404 29.55C22.026 29.0443 28.2422 22.7109 28.2422 15C28.2422 7.28027 22.0898 0.941602 14.4932 0.448242C14.6613 0.442383 14.8307 0.439453 15 0.439453C15.0627 0.439453 14.9971 0.439453 15.1951 0.440625C23.1469 0.545508 29.5605 7.02363 29.5605 15Z" fill="#A2E62E"/>
<path d="M1.31836 15.1338C1.31836 11.7832 2.62312 8.63314 4.99242 6.26391C7.36172 3.89467 10.5118 2.58984 13.8623 2.58984C17.2129 2.58984 20.363 3.89461 22.7323 6.26391C25.1015 8.6332 26.4063 11.7833 26.4063 15.1338C26.4063 17.9957 25.417 21.0295 23.6206 23.2509C21.8511 25.4389 19.3731 26.9844 16.6429 27.6026C15.8942 27.7721 15.1498 27.0682 14.9803 26.3195C14.8107 25.5707 15.2803 24.8264 16.029 24.6569C18.1523 24.1761 20.0807 22.9727 21.459 21.2685C22.8769 19.5152 23.6263 17.3938 23.6263 15.1339C23.6263 9.74994 19.2462 5.36988 13.8623 5.36988C8.4784 5.36988 4.09828 9.74994 4.09828 15.1338C4.09828 17.3979 4.85016 19.5222 6.27264 21.2771C7.65551 22.9832 9.58934 24.1853 11.7179 24.6619C12.467 24.8297 12.9385 25.5732 12.7706 26.322C12.6029 27.0711 11.8596 27.5424 11.1105 27.3746C8.37352 26.7618 5.8885 25.2179 4.11305 23.0276C2.31082 20.8042 1.31836 18.0009 1.31836 15.1338Z" fill="#A2E62E"/>
<path d="M27.4016 15.1342C27.4016 17.9959 26.4125 20.7955 24.616 23.0168C22.8465 25.2047 20.3686 26.7504 17.6381 27.3686C17.508 27.3979 17.3791 27.4078 17.2525 27.4008C17.2508 27.4002 17.2484 27.4002 17.2467 27.4002C17.0492 27.3885 16.8588 27.334 16.6883 27.2443C16.5406 27.1682 16.4076 27.065 16.2963 26.9402C16.2957 26.9396 16.2957 26.9396 16.2957 26.9396H16.2951C16.1428 26.7697 16.0297 26.5588 15.9758 26.3197C15.8059 25.5709 16.2758 24.8268 17.0246 24.6568C19.148 24.1764 21.0764 22.9729 22.4545 21.2684C23.8725 19.5152 24.6219 17.3941 24.6219 15.1342C24.6219 9.75 20.2414 5.37012 14.8578 5.37012C9.47363 5.37012 5.09375 9.75 5.09375 15.1342C5.09375 17.3982 5.84551 19.5223 7.26816 21.2771C8.65098 22.9834 10.5846 24.1857 12.7133 24.6621C13.4621 24.8297 13.9338 25.5732 13.7662 26.3221C13.598 27.0715 12.8551 27.5426 12.1057 27.375C9.36875 26.7621 6.88379 25.2182 5.1084 23.0279C3.30605 20.8043 2.31348 18.0012 2.31348 15.1342C2.31348 11.7832 3.61836 8.6332 5.98789 6.26426C8.27246 3.9791 11.2842 2.68418 14.501 2.59512C14.6193 2.5916 14.7383 2.58984 14.8578 2.58984C18.2082 2.58984 21.3582 3.89473 23.7277 6.26426C26.0967 8.6332 27.4016 11.7832 27.4016 15.1342Z" fill="#4FC123"/>
<path d="M12.7134 24.6613C10.5848 24.1846 8.65094 22.9825 7.26807 21.2764C5.84564 19.5215 5.09371 17.3972 5.09371 15.1331C5.09371 9.97496 9.11447 5.73881 14.1863 5.39264C13.9644 5.37752 13.7407 5.36914 13.515 5.36914C8.13109 5.36914 3.75098 9.74926 3.75098 15.1331C3.75098 17.3972 4.50285 19.5215 5.92533 21.2764C7.3082 22.9825 9.24203 24.1846 11.3706 24.6613C12.1197 24.829 12.5912 25.5726 12.4233 26.3213C12.327 26.7513 12.0409 27.0895 11.673 27.2681C11.8166 27.3058 11.9609 27.3414 12.106 27.374C12.855 27.5417 13.5984 27.0705 13.7661 26.3213C13.9339 25.5725 13.4624 24.829 12.7134 24.6613Z" fill="#47A920"/>
<path d="M23.7279 6.26426C21.3584 3.89473 18.2084 2.58984 14.858 2.58984C14.7385 2.58984 14.6195 2.5916 14.5012 2.59512C14.3957 2.59805 14.2908 2.60273 14.1865 2.60801C17.285 2.77031 20.1748 4.05352 22.385 6.26426C24.7545 8.6332 26.0594 11.7832 26.0594 15.1342C26.0594 17.9959 25.0697 20.7955 23.2732 23.0168C21.7354 24.9187 19.5824 26.3317 17.2605 27.0751C16.6713 27.1498 16.3149 26.9507 16.2965 26.9402C16.4393 27.1001 16.6177 27.2239 16.8159 27.3031C16.9378 27.3487 17.0671 27.3899 17.2527 27.4008C17.3793 27.4078 17.5082 27.3979 17.6383 27.3686C20.3688 26.7504 22.8467 25.2047 24.6162 23.0168C26.4127 20.7955 27.4018 17.9959 27.4018 15.1342C27.4018 11.7832 26.0969 8.6332 23.7279 6.26426Z" fill="#47A920"/>
<path d="M25.6066 4.39336C22.7735 1.56029 19.0066 0 15 0C11.271 0 7.69646 1.37736 4.93465 3.87826C4.75477 4.04115 4.74094 4.31906 4.90389 4.499C5.06684 4.67889 5.34475 4.69266 5.52463 4.52977C8.12443 2.17547 11.4895 0.878906 15 0.878906C18.7719 0.878906 22.3181 2.34773 24.9851 5.01486C27.6522 7.68199 29.1211 11.2281 29.1211 15C29.1211 18.7719 27.6523 22.3181 24.9851 24.9851C22.318 27.6522 18.7719 29.1211 15 29.1211C11.2281 29.1211 7.68193 27.6523 5.01486 24.9851C2.34779 22.318 0.878906 18.7719 0.878906 15C0.878906 11.7033 2.03906 8.49521 4.14562 5.96678C4.30102 5.78027 4.27582 5.50324 4.08932 5.34785C3.90275 5.1924 3.62566 5.21772 3.47039 5.40416C1.23246 8.09027 0 11.4981 0 15C0 19.0066 1.56029 22.7735 4.39336 25.6066C7.22643 28.4398 10.9934 30 15 30C19.0066 30 22.7735 28.4397 25.6066 25.6066C28.4398 22.7736 30 19.0066 30 15C30 10.9934 28.4397 7.22648 25.6066 4.39336Z" fill="black"/>
<path d="M12.9192 26.8211C12.7048 26.9571 12.4503 27.0012 12.2025 26.9459C9.5618 26.3545 7.16385 24.8647 5.45045 22.7508C3.7115 20.6055 2.75391 17.9004 2.75391 15.1338C2.75391 11.9006 4.01297 8.86084 6.29918 6.57463C8.58551 4.28836 11.6252 3.0293 14.8584 3.0293C18.0916 3.0293 21.1314 4.28836 23.4176 6.57463C25.2865 8.44348 26.47 10.8028 26.8402 13.3975C26.8745 13.6378 27.0971 13.8044 27.3373 13.7704C27.5776 13.7361 27.7446 13.5135 27.7103 13.2733C27.3129 10.4888 26.0435 7.9575 24.0391 5.95307C21.5868 3.50086 18.3264 2.15039 14.8584 2.15039C11.3904 2.15039 8.12994 3.50092 5.67768 5.95307C3.22547 8.40539 1.875 11.6658 1.875 15.1338C1.875 18.1013 2.90232 21.0029 4.76771 23.3043C6.60521 25.5712 9.17742 27.169 12.0104 27.8034C12.1446 27.8335 12.2797 27.8484 12.4138 27.8484C12.7567 27.8483 13.0933 27.7514 13.3899 27.5633C13.8026 27.3016 14.0887 26.8949 14.1954 26.4182C14.3023 25.9414 14.217 25.4516 13.9553 25.0388C13.6935 24.626 13.2868 24.3398 12.8099 24.2331C10.7775 23.7779 8.93086 22.6299 7.61004 21.0004C6.25172 19.3246 5.53377 17.2959 5.53377 15.1338C5.53377 9.99223 9.71678 5.80922 14.8584 5.80922C19.9999 5.80922 24.1829 9.99223 24.1829 15.1338C24.1829 17.2921 23.4673 19.3178 22.1134 20.9921C20.797 22.6199 18.9554 23.7692 16.9281 24.2282C16.4515 24.3362 16.0454 24.6231 15.7847 25.0365C15.5239 25.4498 15.4398 25.9399 15.5478 26.4165C15.7706 27.4003 16.7521 28.0195 17.736 27.7968C20.5621 27.1569 23.1271 25.5574 24.9584 23.2928C26.7682 21.0548 27.7916 18.2339 27.8401 15.3498C27.8441 15.1071 27.6507 14.9071 27.408 14.903C27.4055 14.903 27.403 14.903 27.4005 14.903C27.1613 14.903 26.9653 15.0949 26.9613 15.335C26.9161 18.024 25.9621 20.6538 24.275 22.7401C22.5673 24.8517 20.1762 26.3431 17.542 26.9396C17.0306 27.0553 16.5208 26.7335 16.405 26.2223C16.3489 25.9747 16.3927 25.7201 16.5281 25.5055C16.6637 25.2907 16.8746 25.1415 17.1223 25.0855C19.3414 24.583 21.3568 23.3255 22.797 21.5447C24.2787 19.7124 25.062 17.4955 25.062 15.1338C25.062 9.5076 20.4847 4.93031 14.8585 4.93031C9.23226 4.93031 4.65498 9.5076 4.65498 15.1338C4.65498 17.4998 5.44072 19.7198 6.92736 21.5538C8.37223 23.3364 10.3932 24.5925 12.618 25.0907C12.8657 25.1462 13.0771 25.2949 13.2131 25.5094C13.349 25.7238 13.3934 25.9783 13.3378 26.226C13.2823 26.4738 13.1337 26.685 12.9192 26.8211Z" fill="black"/>
<path d="M21.3995 12.4191C21.1758 12.3252 20.9181 12.4305 20.8242 12.6543L18.9592 17.0982C18.8652 17.3219 18.9705 17.5795 19.1944 17.6734C19.2499 17.6967 19.3076 17.7078 19.3642 17.7078C19.5359 17.7078 19.699 17.6065 19.7696 17.4382L21.6346 12.9944C21.7285 12.7706 21.6232 12.5131 21.3995 12.4191Z" fill="black"/>
<path d="M17.5946 16.2732V14.1391C17.5946 13.161 16.7988 12.3652 15.8207 12.3652C14.8426 12.3652 14.0469 13.161 14.0469 14.1391V16.2732C14.0469 17.2512 14.8426 18.047 15.8207 18.047C16.7988 18.047 17.5946 17.2512 17.5946 16.2732ZM14.9258 16.2732V14.1391C14.9258 13.6456 15.3273 13.2441 15.8207 13.2441C16.3141 13.2441 16.7156 13.6457 16.7156 14.1391V16.2732C16.7156 16.7667 16.3141 17.1681 15.8207 17.1681C15.3273 17.1681 14.9258 16.7667 14.9258 16.2732Z" fill="black"/>
<path d="M9.96387 14.1391V16.2732C9.96387 17.2512 10.7596 18.047 11.7377 18.047C12.7158 18.047 13.5115 17.2512 13.5115 16.2732V14.1391C13.5115 13.161 12.7158 12.3652 11.7377 12.3652C10.7596 12.3652 9.96387 13.161 9.96387 14.1391ZM12.6327 14.1391V16.2732C12.6327 16.7667 12.2312 17.1681 11.7378 17.1681C11.2444 17.1681 10.8428 16.7666 10.8428 16.2732V14.1391C10.8428 13.6456 11.2444 13.2441 11.7378 13.2441C12.2312 13.2441 12.6327 13.6456 12.6327 14.1391Z" fill="black"/>
<path d="M8.95445 18.0194C9.19721 18.0194 9.39391 17.8227 9.39391 17.58V12.9043C9.39391 12.6615 9.19721 12.4648 8.95445 12.4648H7.95508C7.71232 12.4648 7.51562 12.6615 7.51562 12.9043C7.51562 13.1471 7.71232 13.3438 7.95508 13.3438H8.515V17.58C8.515 17.8227 8.71176 18.0194 8.95445 18.0194Z" fill="black"/>
<path d="M19.0463 12.3926C18.764 12.3926 18.5352 12.6214 18.5352 12.9037C18.5352 13.1861 18.764 13.415 19.0463 13.415C19.3286 13.415 19.5575 13.1861 19.5575 12.9037C19.5575 12.6214 19.3287 12.3926 19.0463 12.3926Z" fill="black"/>
<path d="M21.0225 17.0776C21.0225 17.3599 21.2513 17.5888 21.5337 17.5888C21.816 17.5888 22.0449 17.3599 22.0449 17.0776C22.0449 16.7953 21.816 16.5664 21.5337 16.5664C21.2513 16.5663 21.0225 16.7952 21.0225 17.0776Z" fill="black"/>
</g>
<defs>
<clipPath id="clip0_1706_4081">
<rect width="30" height="30" fill="white"/>
</clipPath>
</defs>
</svg>
