<svg xmlns="http://www.w3.org/2000/svg" version="1.1" xmlns:xlink="http://www.w3.org/1999/xlink" width="512" height="512" x="0" y="0" viewBox="0 0 24 24" style="enable-background:new 0 0 512 512" xml:space="preserve" class=""><g><path fill="#a19113" fill-rule="evenodd" d="M6 4a3 3 0 0 1 3-3h7.172a3 3 0 0 1 2.12.879l3.83 3.828A3 3 0 0 1 23 7.828V20a3 3 0 0 1-3 3H9a3 3 0 0 1-3-3v-1a1 1 0 1 1 2 0v1a1 1 0 0 0 1 1h11a1 1 0 0 0 1-1V9h-3a3 3 0 0 1-3-3V3H9a1 1 0 0 0-1 1v7a1 1 0 1 1-2 0zm11-.586L20.586 7H18a1 1 0 0 1-1-1zm-2.293 12.293-3 3a1 1 0 0 1-1.414-1.414L11.586 16H2a1 1 0 1 1 0-2h9.586l-1.293-1.293a1 1 0 0 1 1.414-1.414l3 3a1 1 0 0 1 0 1.414z" clip-rule="evenodd" opacity="1" data-original="#000000" class=""></path></g></svg>