<svg xmlns="http://www.w3.org/2000/svg" version="1.1" xmlns:xlink="http://www.w3.org/1999/xlink" width="512" height="512" x="0" y="0" viewBox="0 0 32 32" style="enable-background:new 0 0 512 512" xml:space="preserve" class=""><g><path d="M12 28c-2.757 0-5-2.243-5-5v-3h2v3c0 1.654 1.346 3 3 3s3-1.346 3-3v-8c0-2.757 2.243-5 5-5s5 2.243 5 5v4h-2v-4c0-1.654-1.346-3-3-3s-3 1.346-3 3v8c0 2.757-2.243 5-5 5z" fill="#094e8c" opacity="1" data-original="#000000" class=""></path><path d="M8 2C4.691 2 2 4.691 2 8c0 5.802 5.107 10.54 5.325 10.738a.997.997 0 0 0 1.35 0C8.893 18.539 14 13.802 14 8c0-3.309-2.691-6-6-6zm0 9c-1.654 0-3-1.346-3-3s1.346-3 3-3 3 1.346 3 3-1.346 3-3 3z" fill="#094e8c" opacity="1" data-original="#000000" class=""></path><circle cx="8" cy="8" r="2" fill="#094e8c" opacity="1" data-original="#000000" class=""></circle><path d="M24.277 22.084a.499.499 0 0 0-.554 0l-.723.482V20h2v2.566z" fill="#094e8c" opacity="1" data-original="#000000" class=""></path><path d="M19 20h3v3.5a.5.5 0 0 0 .777.416L24 23.1l1.223.815A.498.498 0 0 0 26 23.5V20h3a1 1 0 0 1 1 1v8a1 1 0 0 1-1 1H19a1 1 0 0 1-1-1v-8a1 1 0 0 1 1-1z" fill="#094e8c" opacity="1" data-original="#000000" class=""></path></g></svg>