<svg xmlns="http://www.w3.org/2000/svg" version="1.1" xmlns:xlink="http://www.w3.org/1999/xlink" width="512" height="512" x="0" y="0" viewBox="0 0 24 24" style="enable-background:new 0 0 512 512" xml:space="preserve" fill-rule="evenodd" class=""><g><path d="M6.259 12a2.751 2.751 0 0 0-5.5 0 2.751 2.751 0 0 0 5.5 0zM6.259 20a2.751 2.751 0 0 0-5.5 0 2.751 2.751 0 0 0 5.5 0zM6.259 4a2.751 2.751 0 0 0-5.5 0 2.751 2.751 0 0 0 5.5 0z" fill="#094e8c" opacity="1" data-original="#000000" class=""></path><path d="M2.75 6v3.991a.75.75 0 0 0 1.5 0V6a.75.75 0 0 0-1.5 0zM2.759 14.027V18a.75.75 0 0 0 1.5 0v-3.973a.75.75 0 0 0-1.5 0zM9.5 6H16a.75.75 0 0 0 0-1.5H9.5a.75.75 0 0 0 0 1.5zM9.5 14H16a.75.75 0 0 0 0-1.5H9.5a.75.75 0 0 0 0 1.5zM9.5 22H16a.75.75 0 0 0 0-1.5H9.5a.75.75 0 0 0 0 1.5zM9.5 3.5H22A.75.75 0 0 0 22 2H9.5a.75.75 0 0 0 0 1.5zM9.5 11.5H22a.75.75 0 0 0 0-1.5H9.5a.75.75 0 0 0 0 1.5zM9.5 19.5H22a.75.75 0 0 0 0-1.5H9.5a.75.75 0 0 0 0 1.5z" fill="#094e8c" opacity="1" data-original="#000000" class=""></path></g></svg>