<svg width="260" height="260" viewBox="0 0 260 260" fill="none" xmlns="http://www.w3.org/2000/svg">
<g filter="url(#filter0_d_2229_4548)">
<rect x="18" y="18" width="220" height="220" rx="38" fill="white"/>
</g>
<path d="M186.983 85.4443H69.0173V186.411H186.983V85.4443Z" fill="#E9EAEB"/>
<path d="M186.983 85.4443H172.006V186.411H186.983V85.4443Z" fill="#B9BBC1"/>
<path d="M187.394 85.4439H68.606V68.8693C68.606 67.545 69.6793 66.4717 71.0036 66.4717H184.996C186.321 66.4717 187.394 67.545 187.394 68.8693V85.4439Z" fill="#FDC74F"/>
<path d="M184.996 66.4717H172.417V78.9491H187.394V68.8693C187.394 67.545 186.32 66.4717 184.996 66.4717Z" fill="#FCA629"/>
<path d="M69.0179 115.499C63.5887 115.499 59.1875 111.098 59.1875 105.669V97.6602H78.8481V105.669C78.8481 111.098 74.447 115.499 69.0179 115.499Z" fill="#E60D28"/>
<path d="M88.6786 115.499C83.2493 115.499 78.8481 111.098 78.8481 105.669V97.6602H98.5088V105.669C98.509 111.098 94.1079 115.499 88.6786 115.499Z" fill="#F2F2F2"/>
<path d="M108.339 115.499C102.91 115.499 98.509 111.098 98.509 105.669V97.6602H118.17V105.669C118.17 111.098 113.768 115.499 108.339 115.499Z" fill="#E60D28"/>
<path d="M128 115.499C122.571 115.499 118.169 111.098 118.169 105.669V97.6602H137.83V105.669C137.83 111.098 133.429 115.499 128 115.499Z" fill="#F2F2F2"/>
<path d="M147.661 115.499C142.232 115.499 137.831 111.098 137.831 105.669V97.6602H157.491V105.669C157.491 111.098 153.09 115.499 147.661 115.499Z" fill="#E60D28"/>
<path d="M167.321 115.499C161.892 115.499 157.491 111.098 157.491 105.669V97.6602H177.152V105.669C177.152 111.098 172.751 115.499 167.321 115.499Z" fill="#F2F2F2"/>
<path d="M186.982 115.499C181.553 115.499 177.152 111.098 177.152 105.669V97.6602H196.812V105.669C196.813 111.098 192.411 115.499 186.982 115.499Z" fill="#E60D28"/>
<path d="M78.8481 97.661H59.1875L68.5961 78.9492H85.5687L78.8481 97.661Z" fill="#FC502A"/>
<path d="M98.509 97.661H78.8481L85.5687 78.9492H102.541L98.509 97.661Z" fill="white"/>
<path d="M118.17 97.661H98.509L102.541 78.9492H119.514L118.17 97.661Z" fill="#FC502A"/>
<path d="M137.83 97.661H118.169L119.514 78.9492H136.486L137.83 97.661Z" fill="white"/>
<path d="M157.491 97.661H137.83L136.486 78.9492H153.459L157.491 97.661Z" fill="#FC502A"/>
<path d="M177.152 97.661H157.491L153.459 78.9492H170.431L177.152 97.661Z" fill="white"/>
<path d="M196.813 97.661H177.152L170.431 78.9492H187.404L196.813 97.661Z" fill="#FC502A"/>
<path d="M192.43 177.187H63.5697C61.09 177.187 59.0801 179.197 59.0801 181.676V188.256C59.0801 188.959 59.65 189.529 60.3528 189.529H195.647C196.35 189.529 196.92 188.959 196.92 188.256V181.676C196.92 179.197 194.91 177.187 192.43 177.187Z" fill="#8B8996"/>
<path d="M192.43 177.187H181.897V189.528H195.647C196.35 189.528 196.92 188.959 196.92 188.256V181.676C196.92 179.197 194.91 177.187 192.43 177.187Z" fill="#706F7F"/>
<path d="M175.363 163.991H114.812C113.824 163.991 113.023 163.19 113.023 162.202V128.884C113.023 127.896 113.824 127.095 114.812 127.095H175.363C176.351 127.095 177.152 127.896 177.152 128.884V162.202C177.152 163.19 176.351 163.991 175.363 163.991Z" fill="#00C6C8"/>
<path d="M175.363 127.095H162.129V163.991H175.363C176.351 163.991 177.152 163.19 177.152 162.202V128.884C177.152 127.895 176.351 127.095 175.363 127.095Z" fill="#0FB0C0"/>
<path d="M104.519 177.187H76.8931V128.884C76.8931 127.896 77.694 127.095 78.6819 127.095H102.73C103.718 127.095 104.519 127.896 104.519 128.884V177.187Z" fill="#00C6C8"/>
<path d="M102.73 127.095H89.4961V177.187H104.519V128.884C104.519 127.895 103.718 127.095 102.73 127.095Z" fill="#0FB0C0"/>
<path d="M96.7988 155.389C97.9476 155.389 98.8789 154.457 98.8789 153.309V149.564C98.8789 148.416 97.9476 147.484 96.7988 147.484C95.6501 147.484 94.7188 148.416 94.7188 149.564V153.309C94.7188 154.457 95.6501 155.389 96.7988 155.389Z" fill="black"/>
<path d="M192.43 175.107H189.062V117.394C194.641 116.407 198.893 111.527 198.893 105.67V97.6609C198.893 97.6202 198.889 97.5802 198.887 97.54C198.885 97.5175 198.885 97.4951 198.884 97.4726C198.876 97.3905 198.865 97.3098 198.848 97.231C198.847 97.2263 198.846 97.2219 198.844 97.2175C198.828 97.1417 198.807 97.068 198.782 96.9956C198.776 96.9773 198.769 96.959 198.762 96.9409C198.739 96.8788 198.714 96.8184 198.685 96.7593C198.68 96.7485 198.677 96.7371 198.671 96.7266L189.474 78.436V68.8693C189.474 66.4004 187.465 64.3916 184.996 64.3916H90.4077C89.259 64.3916 88.3276 65.3229 88.3276 66.4717C88.3276 67.6204 89.259 68.5518 90.4077 68.5518H184.996C185.171 68.5518 185.314 68.6943 185.314 68.8693V76.869H70.6861V68.8693C70.6861 68.6943 70.8286 68.5518 71.0036 68.5518H80.7295C81.8783 68.5518 82.8096 67.6204 82.8096 66.4717C82.8096 65.3229 81.8783 64.3916 80.7295 64.3916H71.0036C68.5347 64.3916 66.5259 66.4004 66.5259 68.8693V78.436L57.3289 96.7266C57.3237 96.7374 57.3201 96.7487 57.3151 96.7593C57.2865 96.8184 57.261 96.8788 57.238 96.9409C57.2313 96.9592 57.2241 96.9773 57.218 96.9956C57.1936 97.068 57.1722 97.1417 57.1559 97.2175C57.1548 97.2219 57.1534 97.2263 57.1523 97.231C57.1356 97.3101 57.124 97.3905 57.1168 97.4726C57.1148 97.4951 57.1148 97.5175 57.1134 97.54C57.1112 97.5802 57.1073 97.6202 57.1073 97.6609V105.67C57.1073 111.527 61.359 116.407 66.9378 117.394V175.107H63.5697C59.9471 175.107 57 178.054 57 181.677V188.256C57 190.105 58.504 191.609 60.3528 191.609H195.647C197.496 191.609 199 190.105 199 188.256V181.677C199 178.054 196.053 175.107 192.43 175.107ZM194.733 105.67C194.733 109.943 191.256 113.42 186.982 113.42C182.709 113.42 179.232 109.943 179.232 105.67V99.7413H194.733V105.67ZM186.122 81.0292L193.438 95.5808H178.615L173.389 81.0292H186.122ZM168.968 81.0292L174.194 95.5808H159.171L156.035 81.0292H168.968ZM175.072 99.741V105.67C175.072 109.943 171.595 113.42 167.322 113.42C163.048 113.42 159.571 109.943 159.571 105.67V99.741H175.072ZM151.779 81.0292L154.915 95.5808H139.767L138.721 81.0292H151.779ZM155.411 99.741V105.67C155.411 109.943 151.934 113.42 147.661 113.42C143.388 113.42 139.911 109.943 139.911 105.67V99.741H155.411ZM121.45 81.0292H134.55L135.595 95.5808H120.404L121.45 81.0292ZM120.25 99.741H135.75V105.67C135.75 109.943 132.274 113.42 128 113.42C123.726 113.42 120.25 109.943 120.25 105.67V99.741ZM128 117.58C132.078 117.58 135.683 115.519 137.83 112.385C139.978 115.519 143.583 117.58 147.661 117.58C151.739 117.58 155.344 115.519 157.491 112.385C159.639 115.519 163.243 117.58 167.322 117.58C171.4 117.58 175.004 115.519 177.152 112.385C178.926 114.974 181.695 116.827 184.902 117.394V175.107H106.599V128.883C106.599 126.75 104.863 125.015 102.73 125.015H78.6819C76.5486 125.015 74.813 126.75 74.813 128.883V175.107H71.0979V117.394C74.3057 116.827 77.0744 114.974 78.8483 112.385C80.9961 115.519 84.6007 117.58 88.6788 117.58C92.7568 117.58 96.3615 115.519 98.5092 112.385C100.657 115.519 104.262 117.58 108.339 117.58C112.417 117.58 116.022 115.519 118.17 112.385C120.317 115.519 123.922 117.58 128 117.58ZM102.439 129.175V175.107H78.9731V129.175H102.439ZM80.9281 105.67V99.7413H96.4289V105.67C96.4289 109.943 92.9521 113.42 88.6785 113.42C84.4049 113.42 80.9281 109.943 80.9281 105.67ZM104.221 81.0292H117.279L116.233 95.5808H101.085L104.221 81.0292ZM100.589 99.741H116.089V105.67C116.089 109.943 112.613 113.42 108.339 113.42C104.066 113.42 100.589 109.943 100.589 105.67V99.741ZM99.965 81.0292L96.8291 95.5808H81.8053L87.0316 81.0292H99.965ZM69.8785 81.0292H82.6113L77.385 95.5808H62.5616L69.8785 81.0292ZM61.2675 105.67V99.7413H76.7682V105.67C76.7682 109.943 73.2914 113.42 69.0179 113.42C64.7443 113.42 61.2675 109.943 61.2675 105.67ZM194.84 187.448H61.1602V181.676C61.1602 180.348 62.241 179.267 63.5697 179.267H192.43C193.759 179.267 194.84 180.348 194.84 181.676V187.448H194.84Z" fill="black"/>
<path d="M110.943 128.884V162.203C110.943 164.336 112.679 166.072 114.812 166.072H175.363C177.496 166.072 179.232 164.336 179.232 162.203V128.884C179.232 126.75 177.496 125.015 175.363 125.015H149.927C148.778 125.015 147.847 125.946 147.847 127.095C147.847 128.243 148.778 129.175 149.927 129.175H175.072V161.911H115.104V129.175H140.134C141.283 129.175 142.214 128.243 142.214 127.095C142.214 125.946 141.283 125.015 140.134 125.015H114.812C112.679 125.015 110.943 126.75 110.943 128.884Z" fill="black"/>
<defs>
<filter id="filter0_d_2229_4548" x="0" y="0" width="260" height="260" filterUnits="userSpaceOnUse" color-interpolation-filters="sRGB">
<feFlood flood-opacity="0" result="BackgroundImageFix"/>
<feColorMatrix in="SourceAlpha" type="matrix" values="0 0 0 0 0 0 0 0 0 0 0 0 0 0 0 0 0 0 127 0" result="hardAlpha"/>
<feOffset dx="2" dy="2"/>
<feGaussianBlur stdDeviation="10"/>
<feComposite in2="hardAlpha" operator="out"/>
<feColorMatrix type="matrix" values="0 0 0 0 0 0 0 0 0 0 0 0 0 0 0 0 0 0 0.35 0"/>
<feBlend mode="normal" in2="BackgroundImageFix" result="effect1_dropShadow_2229_4548"/>
<feBlend mode="normal" in="SourceGraphic" in2="effect1_dropShadow_2229_4548" result="shape"/>
</filter>
</defs>
</svg>
