<svg width="260" height="260" viewBox="0 0 260 260" fill="none" xmlns="http://www.w3.org/2000/svg">
<g filter="url(#filter0_d_2229_4547)">
<rect x="18" y="18" width="220" height="220" rx="38" fill="white"/>
</g>
<g clip-path="url(#clip0_2229_4547)">
<path d="M146.83 152.162C145.093 152.07 143.448 152.802 142.534 154.265L128 176.933L113.466 154.265C112.552 152.802 110.907 151.979 109.17 152.162C78.9148 155.361 59.4453 165.69 59.4453 178.578C59.4453 196.402 94.7281 206 128 206C161.272 206 196.555 196.402 196.555 178.578C196.555 165.69 177.085 155.361 146.83 152.162Z" fill="#61DE56"/>
<path d="M196.555 178.578C196.555 196.403 161.272 206 128 206V176.933L142.534 154.265C143.448 152.802 145.093 152.07 146.83 152.162C177.085 155.361 196.555 165.69 196.555 178.578Z" fill="#13C37B"/>
<path d="M128 50C100.578 50 77.7266 72.12 77.7266 100.273C77.7266 110.968 80.9255 120.565 87.1417 129.523L124.161 187.902C125.075 189.364 126.538 190.004 128 190.004C129.463 190.004 130.925 189.364 131.839 187.902L169.041 129.341C175.075 120.748 178.273 110.694 178.273 100.273C178.273 72.577 155.696 50 128 50ZM128 123.125C115.4 123.125 105.148 112.874 105.148 100.273C105.148 87.6731 115.4 77.4219 128 77.4219C140.6 77.4219 150.852 87.6731 150.852 100.273C150.852 112.874 140.6 123.125 128 123.125Z" fill="#FD3018"/>
<path d="M128 50V77.4219C140.6 77.4219 150.852 87.6731 150.852 100.273C150.852 112.874 140.6 123.125 128 123.125V190.004C129.462 190.004 130.925 189.364 131.839 187.902L169.041 129.341C175.075 120.748 178.273 110.694 178.273 100.273C178.273 72.577 155.696 50 128 50Z" fill="#E61E14"/>
</g>
<defs>
<filter id="filter0_d_2229_4547" x="0" y="0" width="260" height="260" filterUnits="userSpaceOnUse" color-interpolation-filters="sRGB">
<feFlood flood-opacity="0" result="BackgroundImageFix"/>
<feColorMatrix in="SourceAlpha" type="matrix" values="0 0 0 0 0 0 0 0 0 0 0 0 0 0 0 0 0 0 127 0" result="hardAlpha"/>
<feOffset dx="2" dy="2"/>
<feGaussianBlur stdDeviation="10"/>
<feComposite in2="hardAlpha" operator="out"/>
<feColorMatrix type="matrix" values="0 0 0 0 0 0 0 0 0 0 0 0 0 0 0 0 0 0 0.35 0"/>
<feBlend mode="normal" in2="BackgroundImageFix" result="effect1_dropShadow_2229_4547"/>
<feBlend mode="normal" in="SourceGraphic" in2="effect1_dropShadow_2229_4547" result="shape"/>
</filter>
<clipPath id="clip0_2229_4547">
<rect width="156" height="156" fill="white" transform="translate(50 50)"/>
</clipPath>
</defs>
</svg>
