<svg width="30" height="30" viewBox="0 0 30 30" fill="none" xmlns="http://www.w3.org/2000/svg">
<g clip-path="url(#clip0_1705_4016)">
<path d="M25.5465 29.5312C28.4059 29.5312 29.9996 26.25 28.2184 24C26.484 21.7969 23.8121 20.3906 20.7652 20.3906H9.234C6.18712 20.3906 3.51525 21.7969 1.78087 24C-0.000379108 26.25 1.59337 29.5312 4.45275 29.5312H25.5465Z" fill="#E4EBF7"/>
<path d="M14.5777 23.3906H27.6559C25.9215 21.5625 23.484 20.3906 20.7652 20.3906H9.234C6.18712 20.3906 3.51525 21.7969 1.78087 24C-0.000379042 26.25 1.59337 29.5312 4.45275 29.5312H4.96837C6.70275 25.7812 10.4527 23.3906 14.5777 23.3906Z" fill="#C9D8EF"/>
<path d="M20.4371 20.3906H20.8121C23.859 20.3906 26.5309 21.7969 28.2652 24C29.9996 26.25 28.4059 29.5312 25.5465 29.5312H4.45275C1.59337 29.5312 -0.000379108 26.25 1.78087 24C3.51525 21.7969 6.18712 20.3906 9.234 20.3906H9.609" stroke="#2B3C65" stroke-miterlimit="10" stroke-linecap="round" stroke-linejoin="round"/>
<path d="M18.5156 17.2031V20.2031C18.5156 21.1875 18.1406 22.0313 17.4844 22.6875C16.875 23.3438 15.9844 23.7187 15 23.7187C13.0781 23.7187 11.4844 22.1719 11.4844 20.2031V17.2031H18.5156Z" fill="#FECB4D" stroke="#2B3C65" stroke-miterlimit="10" stroke-linecap="round" stroke-linejoin="round"/>
<path d="M24.6094 3.375V7.96875" stroke="#2B3C65" stroke-miterlimit="10" stroke-linecap="round" stroke-linejoin="round"/>
<path d="M21.7969 8.95312V12.7969C21.7969 16.4531 18.9844 19.5937 15.3281 19.7812C11.4375 19.9687 8.20312 16.8281 8.20312 12.9844V8.95312C8.20312 5.20312 11.25 2.15625 15 2.15625C18.75 2.15625 21.7969 5.20312 21.7969 8.95312Z" fill="#FECB4D" stroke="#2B3C65" stroke-miterlimit="10" stroke-linecap="round" stroke-linejoin="round"/>
<path d="M23.5312 12.375C23.5312 13.3125 22.7344 14.0625 21.75 14.0625C21.7969 13.7344 21.8437 13.4063 21.8437 13.125V10.6875C22.7344 10.7813 23.5312 11.4844 23.5312 12.375Z" fill="#FECB4D" stroke="#2B3C65" stroke-miterlimit="10" stroke-linecap="round" stroke-linejoin="round"/>
<path d="M6.46875 12.375C6.46875 13.3125 7.26563 14.0625 8.25 14.0625C8.20312 13.7344 8.15625 13.4063 8.15625 13.125V10.6875C7.26562 10.7813 6.46875 11.4844 6.46875 12.375Z" fill="#FECB4D" stroke="#2B3C65" stroke-miterlimit="10" stroke-linecap="round" stroke-linejoin="round"/>
<path d="M11.9062 12.5625C12.2687 12.5625 12.5625 12.2687 12.5625 11.9062C12.5625 11.5438 12.2687 11.25 11.9062 11.25C11.5438 11.25 11.25 11.5438 11.25 11.9062C11.25 12.2687 11.5438 12.5625 11.9062 12.5625Z" fill="#2B3C65"/>
<path d="M18.0937 12.5625C18.4562 12.5625 18.75 12.2687 18.75 11.9062C18.75 11.5438 18.4562 11.25 18.0937 11.25C17.7313 11.25 17.4375 11.5438 17.4375 11.9062C17.4375 12.2687 17.7313 12.5625 18.0937 12.5625Z" fill="#2B3C65"/>
<path d="M10.7812 11.4375C11.5313 10.7344 12.2812 10.7344 13.0312 11.4375" stroke="#2B3C65" stroke-miterlimit="10" stroke-linecap="round" stroke-linejoin="round"/>
<path d="M16.9688 11.4375C17.7188 10.7344 18.4687 10.7344 19.2187 11.4375" stroke="#2B3C65" stroke-miterlimit="10" stroke-linecap="round" stroke-linejoin="round"/>
<path d="M15 14.1094V14.8587" stroke="#2B3C65" stroke-miterlimit="10" stroke-linecap="round" stroke-linejoin="round"/>
<path d="M12.8438 15.9375C14.3438 17.0156 15.7969 17.0156 17.2031 15.9375" stroke="#2B3C65" stroke-miterlimit="10" stroke-linecap="round" stroke-linejoin="round"/>
<path d="M18.9844 3.37594C17.8594 3.42282 16.8281 3.75094 15.6563 3.65719C14.3906 3.56344 13.1719 3.14157 11.9062 3.18844C11.4844 3.18844 10.125 3.09469 9.84375 3.32907C9.28125 3.75094 8.71875 3.93844 8.15625 3.93844V8.76657H21.9375V3.61032C20.9062 3.51657 19.9687 3.37594 18.9844 3.37594Z" fill="#45C8F5"/>
<path d="M18.9844 3.37594C17.8594 3.42282 16.8281 3.75094 15.6563 3.65719C14.3906 3.56344 13.1719 3.14157 11.9062 3.18844C11.4844 3.18844 10.125 3.09469 9.84375 3.32907C9.28125 3.75094 8.71875 3.93844 8.15625 3.93844V8.76657H21.9375V3.61032C20.9062 3.51657 19.9687 3.37594 18.9844 3.37594Z" stroke="#2B3C65" stroke-miterlimit="10" stroke-linecap="round" stroke-linejoin="round"/>
<path d="M25.3125 3.9375L15.5625 6.23438C15.2344 6.32813 14.8594 6.32813 14.4844 6.23438L4.6875 3.9375C4.125 3.79687 4.125 2.95313 4.6875 2.8125L14.4375 0.515625C14.7656 0.421875 15.1406 0.421875 15.5156 0.515625L25.3125 2.8125C25.875 2.95313 25.875 3.79687 25.3125 3.9375Z" fill="#42BAEB"/>
<path d="M25.3125 3.9375L24.8438 4.03125L17.2969 2.29687C16.9688 2.20312 16.5937 2.20312 16.2187 2.29687L6.9375 4.5L4.6875 3.9375C4.125 3.79687 4.125 2.95312 4.6875 2.8125L14.4375 0.515625C14.7656 0.421875 15.1406 0.421875 15.5156 0.515625L25.3125 2.8125C25.875 2.95312 25.875 3.79687 25.3125 3.9375Z" fill="#03ADDB"/>
<path d="M25.3125 3.9375L15.5625 6.23438C15.2344 6.32813 14.8594 6.32813 14.4844 6.23438L4.6875 3.9375C4.125 3.79687 4.125 2.95313 4.6875 2.8125L14.4375 0.515625C14.7656 0.421875 15.1406 0.421875 15.5156 0.515625L25.3125 2.8125C25.875 2.95313 25.875 3.79687 25.3125 3.9375Z" stroke="#2B3C65" stroke-miterlimit="10" stroke-linecap="round" stroke-linejoin="round"/>
</g>
<defs>
<clipPath id="clip0_1705_4016">
<rect width="30" height="30" fill="white"/>
</clipPath>
</defs>
</svg>
