<svg width="26" height="26" viewBox="0 0 26 26" fill="none" xmlns="http://www.w3.org/2000/svg">
<mask id="mask0_1981_4552" style="mask-type:alpha" maskUnits="userSpaceOnUse" x="0" y="0" width="26" height="26">
<circle cx="13.0001" cy="13.0001" r="12.0714" fill="#D9D9D9"/>
</mask>
<g mask="url(#mask0_1981_4552)">
<circle cx="13.0001" cy="13.0001" r="12.0714" fill="white"/>
</g>
<g clip-path="url(#clip0_1981_4552)">
<path fill-rule="evenodd" clip-rule="evenodd" d="M13 0.558594C6.14753 0.558594 0.558594 6.14753 0.558594 13C0.558594 19.8525 6.14748 25.4414 13 25.4414C19.8525 25.4414 25.4414 19.8525 25.4414 13C25.4414 6.14748 19.8525 0.558594 13 0.558594ZM8.51861 17.8191C8.0337 17.3713 7.61846 16.8514 7.28396 16.274C5.47909 13.1472 6.55439 9.13433 9.68145 7.32905C10.6714 6.75711 11.7714 6.46009 12.8871 6.45018L12.0206 5.58299L13.0981 4.50592L15.8884 7.29691L13.0981 10.0879L12.0206 9.01083L13.0555 7.97504C12.1486 7.95509 11.2484 8.18335 10.4425 8.64825C8.04273 10.0338 7.21886 13.1128 8.60392 15.5122C8.8598 15.9561 9.17861 16.3552 9.55124 16.6984L8.51861 17.819V17.8191ZM16.2296 18.6708C15.2464 19.2386 14.1352 19.534 13.0172 19.5454L13.8882 20.4169L12.8107 21.4941L10.0204 18.7029L12.8107 15.9119L13.8882 16.9892L12.8556 18.0222C13.7625 18.0395 14.6694 17.8119 15.4663 17.3514C17.866 15.9662 18.6921 12.8869 17.3071 10.4874C17.0467 10.0367 16.7211 9.63214 16.3418 9.28535L17.3676 8.15979C17.8638 8.61235 18.2858 9.1392 18.6247 9.72578C20.4318 12.8526 19.3565 16.8655 16.2295 18.6707L16.2296 18.6708Z" fill="url(#paint0_linear_1981_4552)"/>
</g>
<defs>
<linearGradient id="paint0_linear_1981_4552" x1="4.20961" y1="21.7904" x2="21.7904" y2="4.20961" gradientUnits="userSpaceOnUse">
<stop stop-color="#7820E4"/>
<stop offset="1" stop-color="#4CC6F2"/>
</linearGradient>
<clipPath id="clip0_1981_4552">
<rect width="26" height="26" fill="white"/>
</clipPath>
</defs>
</svg>
