<svg width="24" height="24" viewBox="0 0 24 24" fill="none" xmlns="http://www.w3.org/2000/svg">
<g clip-path="url(#clip0_1981_4545)">
<path d="M24 12C24 5.37258 18.6274 0 12 0C5.37258 0 0 5.37258 0 12C0 18.6274 5.37258 24 12 24C18.6274 24 24 18.6274 24 12Z" fill="url(#paint0_linear_1981_4545)"/>
<path d="M8.79278 9.64279L5.12434 10.5972C4.67106 10.7148 4.222 10.3933 4.18778 9.92638L3.91028 6.14545C3.88684 5.82857 4.24403 5.62795 4.50278 5.8131L5.59075 6.59217C8.40371 3.27998 13.3345 2.6256 16.9298 5.20138C18.3492 6.21763 19.3589 7.59295 19.9242 9.11545C20.0793 9.53357 19.8412 9.99482 19.409 10.1059L18.1307 10.435C17.7623 10.5297 17.3845 10.3323 17.2439 9.97841C16.8595 9.01045 16.2023 8.1381 15.2929 7.48701C12.9604 5.81591 9.78559 6.18295 7.88809 8.23795L8.91746 8.97529C9.17621 9.16045 9.10121 9.5631 8.79371 9.64326L8.79278 9.64279ZM18.877 13.4031L15.2086 14.3575C14.9006 14.4376 14.8261 14.8403 15.0848 15.0254L16.1142 15.7628C14.2162 17.8178 11.0418 18.1848 8.70934 16.5137C7.79996 15.8626 7.14231 14.9903 6.7584 14.0223C6.61778 13.6684 6.24043 13.4706 5.87153 13.5658L4.59325 13.8948C4.16106 14.0059 3.92293 14.4672 4.07809 14.8853C4.6434 16.4073 5.65309 17.7826 7.07246 18.7994C10.6678 21.3751 15.5986 20.7212 18.4115 17.4086L19.4995 18.1876C19.7578 18.3728 20.115 18.1726 20.092 17.8553L19.8145 14.0744C19.7803 13.6075 19.3312 13.2854 18.8779 13.4036L18.877 13.4031Z" fill="white"/>
</g>
<defs>
<linearGradient id="paint0_linear_1981_4545" x1="3.51469" y1="3.51469" x2="20.4853" y2="20.4853" gradientUnits="userSpaceOnUse">
<stop stop-color="#54BDFF"/>
<stop offset="1" stop-color="#0042C7"/>
</linearGradient>
<clipPath id="clip0_1981_4545">
<rect width="24" height="24" fill="white"/>
</clipPath>
</defs>
</svg>
