<svg xmlns="http://www.w3.org/2000/svg" version="1.1" xmlns:xlink="http://www.w3.org/1999/xlink" width="512" height="512" x="0" y="0" viewBox="0 0 64 64" style="enable-background:new 0 0 512 512" xml:space="preserve" class=""><g><path d="M59.59 20.21A29.973 29.973 0 0 0 32 2a29.96 29.96 0 0 0-18 6V4c0-1.1-.9-2-2-2s-2 .9-2 2v8c0 .92.62 1.72 1.51 1.94l8 2a2.006 2.006 0 0 0 2.43-1.45c.27-1.07-.38-2.16-1.46-2.43l-3.92-.98A25.94 25.94 0 0 1 31.99 6C42.42 6 51.8 12.2 55.9 21.79c1.39 3.23 2.09 6.66 2.09 10.21s-.7 6.98-2.09 10.21A1.996 1.996 0 0 0 57.74 45c.78 0 1.51-.45 1.84-1.21 1.6-3.73 2.41-7.7 2.41-11.79s-.81-8.06-2.41-11.79zM52.49 50.06l-8-2c-1.07-.27-2.16.38-2.43 1.46-.27 1.07.38 2.16 1.46 2.43l3.92.98a25.94 25.94 0 0 1-15.43 5.08c-10.43 0-19.81-6.2-23.91-15.79-1.39-3.23-2.09-6.66-2.09-10.21s.7-6.98 2.09-10.21c.44-1.02-.03-2.19-1.05-2.63-1.02-.43-2.19.03-2.63 1.05-1.6 3.73-2.41 7.7-2.41 11.79s.81 8.06 2.41 11.79a29.973 29.973 0 0 0 27.59 18.21c6.54 0 12.82-2.12 18-6v4c0 1.1.9 2 2 2s2-.9 2-2v-8c0-.92-.62-1.72-1.51-1.94z" fill="#32b35d" opacity="1" data-original="#000000" class=""></path><path d="M28 42c.51 0 1.02-.2 1.41-.59l17-17c.78-.78.78-2.05 0-2.83s-2.05-.78-2.83 0L27.99 37.17l-6.59-6.59c-.78-.78-2.05-.78-2.83 0s-.78 2.05 0 2.83l8 8c.39.39.9.59 1.41.59z" fill="#32b35d" opacity="1" data-original="#000000" class=""></path></g></svg>